QuaeriteRegnumDei.ufo
<glyph name="exclam" format="2">
	<advance width="212"/>
	<unicode hex="0021"/>
	<outline>
		<contour>
			<point x="188.19238" y="64.9707" type="line"/>
			<point x="101.39453" y="-20.66602" type="line"/>
			<point x="95.65918" y="-12.47462" type="line" smooth="yes"/>
			<point x="94.71387" y="-10.99513"/>
			<point x="93.75293" y="-9.5254"/>
			<point x="92.77637" y="-8.06642" type="curve" smooth="yes"/>
			<point x="86.29492" y="0.79491"/>
			<point x="79.08105" y="9.37889"/>
			<point x="71.39453" y="17.33299" type="curve" smooth="yes"/>
			<point x="59.03125" y="30.12596"/>
			<point x="45.25391" y="41.55076"/>
			<point x="30.39453" y="51.33396" type="curve"/>
			<point x="24.65918" y="59.52536" type="line"/>
			<point x="122.95703" y="128.35446" type="line"/>
			<point x="137.81641" y="118.57126"/>
			<point x="151.59375" y="107.14646"/>
			<point x="163.95703" y="94.35349" type="curve" smooth="yes"/>
			<point x="172.78906" y="85.21482"/>
			<point x="180.90234" y="75.38084"/>
			<point x="188.19238" y="64.97068" type="curve"/>
		</contour>
		<contour>
			<point x="195" y="194.99998" type="line"/>
			<point x="258.42383" y="257.78221" type="line"/>
			<point x="500" y="593" type="line"/>
			<point x="492.92871" y="600.07127" type="line"/>
			<point x="429.50488" y="537.28904" type="line"/>
			<point x="187.92871" y="202.07127" type="line"/>
		</contour>
	</outline>
</glyph>
<glyph name="quotedbl" format="2">
	<advance width="316"/>
	<unicode hex="0022"/>
	<outline>
		<contour>
			<point x="14" y="613" type="line"/>
			<point x="123" y="613" type="line"/>
			<point x="123" y="452.33301" type="line"/>
			<point x="14" y="412" type="line"/>
		</contour>
		<contour>
			<point x="194" y="613" type="line"/>
			<point x="303" y="613" type="line"/>
			<point x="303" y="452.33301" type="line"/>
			<point x="194" y="412" type="line"/>
		</contour>
	</outline>
</glyph>
<glyph name="numbersign" format="2">
	<advance width="527"/>
	<unicode hex="0023"/>
	<outline>
		<contour>
			<point x="292.89062" y="470" type="line"/>
			<point x="208.03808" y="470" type="line"/>
			<point x="179.37289" y="379.96191" type="line"/>
			<point x="91.99999" y="379.96191" type="line"/>
			<point x="91.99999" y="295.10937" type="line"/>
			<point x="91.99999" y="288.03808" type="line"/>
			<point x="150.10735" y="288.03808" type="line"/>
			<point x="120.78118" y="195.92382" type="line"/>
			<point x="27.99999" y="195.92382" type="line"/>
			<point x="27.99999" y="111.07128" type="line"/>
			<point x="27.99999" y="103.99999" type="line"/>
			<point x="91.51563" y="103.99999" type="line"/>
			<point x="52.03808" y="-20.00001" type="line"/>
			<point x="59.10937" y="-20.00001" type="line"/>
			<point x="143.96191" y="-20.00001" type="line"/>
			<point x="183.43946" y="103.99999" type="line"/>
			<point x="271.51563" y="103.99999" type="line"/>
			<point x="232.03808" y="-20.00001" type="line"/>
			<point x="239.10839" y="-20.00001" type="line"/>
			<point x="323.96191" y="-20.00001" type="line"/>
			<point x="363.43946" y="103.99999" type="line"/>
			<point x="445" y="103.99999" type="line"/>
			<point x="445" y="188.85351" type="line"/>
			<point x="445" y="195.92382" type="line"/>
			<point x="392.70501" y="195.92382" type="line"/>
			<point x="422.03118" y="288.03808" type="line"/>
			<point x="510" y="288.03808" type="line"/>
			<point x="510" y="372.89062" type="line"/>
			<point x="510" y="379.96191" type="line"/>
			<point x="451.29671" y="379.96191" type="line"/>
			<point x="479.9619" y="470" type="line"/>
			<point x="472.89061" y="470" type="line"/>
			<point x="388.03807" y="470" type="line"/>
			<point x="359.37288" y="379.96191" type="line"/>
			<point x="271.29671" y="379.96191" type="line"/>
			<point x="299.9619" y="470" type="line"/>
		</contour>
		<contour>
			<point x="330.10735" y="288.03809" type="line"/>
			<point x="300.78118" y="195.92383" type="line"/>
			<point x="212.70501" y="195.92383" type="line"/>
			<point x="242.03118" y="288.03809" type="line"/>
		</contour>
	</outline>
</glyph>
<glyph name="dollar" format="2">
	<advance width="439"/>
	<unicode hex="0024"/>
	<outline>
		<contour>
			<point x="408.69727" y="440.31934" type="line"/>
			<point x="402.96094" y="448.51074" type="line"/>
			<point x="357.54492" y="470.07519"/>
			<point x="310.66406" y="487.71874"/>
			<point x="262.65722" y="492.50976" type="curve" smooth="yes"/>
			<point x="259.22671" y="492.85223"/>
			<point x="255.78178" y="493.11518"/>
			<point x="252.33008" y="493.28562" type="curve"/>
			<point x="252.33008" y="572.4619" type="line"/>
			<point x="243.66992" y="577.4619" type="line"/>
			<point x="183.66992" y="523.53807" type="line"/>
			<point x="183.66992" y="479.99104" type="line"/>
			<point x="181.55115" y="478.87751"/>
			<point x="179.45211" y="477.68449"/>
			<point x="177.37501" y="476.40819" type="curve" smooth="yes"/>
			<point x="175.60157" y="475.31835"/>
			<point x="173.84767" y="474.16698"/>
			<point x="172.11622" y="472.95409" type="curve" smooth="yes"/>
			<point x="73.81739" y="404.12499" type="line" smooth="yes"/>
			<point x="62.66016" y="396.31054"/>
			<point x="52.45508" y="385.95702"/>
			<point x="44.20801" y="373.16503" type="curve" smooth="yes"/>
			<point x="34.68067" y="358.38964"/>
			<point x="27.85157" y="340.33495"/>
			<point x="25.12598" y="321.0869" type="curve" smooth="yes"/>
			<point x="22.39844" y="301.83788"/>
			<point x="23.84766" y="281.51952"/>
			<point x="29.37598" y="263.40038" type="curve" smooth="yes"/>
			<point x="32.93946" y="251.72362"/>
			<point x="38.17091" y="241.03514"/>
			<point x="44.59474" y="231.85448" type="curve" smooth="yes"/>
			<point x="50.33107" y="223.6621" type="line"/>
			<point x="50.37795" y="223.59472" type="line"/>
			<point x="50.44924" y="223.49316" type="line" smooth="yes"/>
			<point x="54.01174" y="218.42871"/>
			<point x="57.81838" y="213.95605"/>
			<point x="61.97365" y="209.93164" type="curve" smooth="yes"/>
			<point x="73.76174" y="198.51367"/>
			<point x="87.65334" y="191.43847"/>
			<point x="101.89846" y="187.75585" type="curve" smooth="yes"/>
			<point x="116.14358" y="184.07323"/>
			<point x="130.72854" y="183.71093"/>
			<point x="145.23049" y="183.49023" type="curve" smooth="yes"/>
			<point x="183.66994" y="182.90469" type="line"/>
			<point x="183.66994" y="58.29689" type="line"/>
			<point x="164.21346" y="69.12805"/>
			<point x="145.45666" y="82.44758"/>
			<point x="127.68166" y="97.51072" type="curve"/>
			<point x="29.38381" y="28.68064" type="line"/>
			<point x="35.11916" y="20.48924" type="line"/>
			<point x="79.90705" y="-17.46558"/>
			<point x="130.92846" y="-44.35025"/>
			<point x="183.66995" y="-48.24994" type="curve"/>
			<point x="183.66995" y="-160.46193" type="line"/>
			<point x="192.33011" y="-165.46193" type="line"/>
			<point x="252.33011" y="-111.53908" type="line"/>
			<point x="252.33011" y="-35.72661" type="line"/>
			<point x="256.16921" y="-33.75751"/>
			<point x="259.94068" y="-31.53966"/>
			<point x="263.62894" y="-29.05666" type="curve" smooth="yes"/>
			<point x="264.10062" y="-28.73928"/>
			<point x="264.38675" y="-28.54397"/>
			<point x="264.98831" y="-28.126" type="curve"/>
			<point x="264.98831" y="-28.126"/>
			<point x="265.12112" y="-28.03323"/>
			<point x="265.22659" y="-27.95901" type="curve" smooth="yes"/>
			<point x="363.52542" y="40.87009" type="line" smooth="yes"/>
			<point x="386.07522" y="56.68259"/>
			<point x="404.98147" y="83.45603"/>
			<point x="412.24807" y="116.31833" type="curve" smooth="yes"/>
			<point x="416.33596" y="134.7988"/>
			<point x="416.64944" y="154.84665"/>
			<point x="412.76272" y="173.40622" type="curve" smooth="yes"/>
			<point x="409.57424" y="188.62497"/>
			<point x="403.6133" y="202.60544"/>
			<point x="395.5508" y="214.17868" type="curve" smooth="yes"/>
			<point x="395.48049" y="214.27927" type="line"/>
			<point x="395.43361" y="214.34567" type="line"/>
			<point x="389.69728" y="222.53707" type="line" smooth="yes"/>
			<point x="387.9629" y="225.01363"/>
			<point x="386.13478" y="227.3691"/>
			<point x="384.22169" y="229.59176" type="curve" smooth="yes"/>
			<point x="373.39552" y="242.16207"/>
			<point x="360.00197" y="250.33297"/>
			<point x="346.08205" y="254.59762" type="curve" smooth="yes"/>
			<point x="332.1631" y="258.86227"/>
			<point x="317.77736" y="259.29391"/>
			<point x="303.5049" y="259.51071" type="curve" smooth="yes"/>
			<point x="252.3301" y="260.28949" type="line"/>
			<point x="252.3301" y="395.95804" type="line"/>
			<point x="271.92863" y="388.93904"/>
			<point x="291.29316" y="380.56138"/>
			<point x="310.39846" y="371.4902" type="curve"/>
		</contour>
		<contour>
			<point x="183.66994" y="413.7948" type="line"/>
			<point x="183.66994" y="268.26816" type="line"/>
			<point x="173.27334" y="272.34636"/>
			<point x="163.32069" y="278.44341"/>
			<point x="154.53616" y="286.95212" type="curve" smooth="yes"/>
			<point x="151.48147" y="289.91013"/>
			<point x="148.59377" y="293.1406"/>
			<point x="145.86232" y="296.65622" type="curve"/>
			<point x="140.78127" y="304.71579"/>
			<point x="136.44045" y="314.11032"/>
			<point x="133.41018" y="324.03805" type="curve" smooth="yes"/>
			<point x="127.88186" y="342.15719"/>
			<point x="126.43264" y="362.47555"/>
			<point x="129.16018" y="381.72457" type="curve" smooth="yes"/>
			<point x="130.87307" y="393.82125"/>
			<point x="134.14846" y="405.29"/>
			<point x="138.8008" y="416.05562" type="curve"/>
			<point x="148.92482" y="416.80855"/>
			<point x="159.72755" y="416.52437"/>
			<point x="170.09474" y="415.48921" type="curve" smooth="yes"/>
			<point x="174.62994" y="415.03661"/>
			<point x="179.1551" y="414.46929"/>
			<point x="183.66993" y="413.79479" type="curve"/>
		</contour>
		<contour>
			<point x="252.33009" y="32.09794" type="line"/>
			<point x="252.33009" y="177.93189" type="line"/>
			<point x="252.72694" y="177.81667"/>
			<point x="253.12342" y="177.69843"/>
			<point x="253.51954" y="177.57709" type="curve" smooth="yes"/>
			<point x="267.43946" y="173.31147"/>
			<point x="280.83301" y="165.14155"/>
			<point x="291.65918" y="152.57124" type="curve" smooth="yes"/>
			<point x="292.50684" y="151.58686"/>
			<point x="293.45899" y="150.4228"/>
			<point x="294.19629" y="149.48237" type="curve"/>
			<point x="300.91504" y="138.72651"/>
			<point x="305.90625" y="126.24213"/>
			<point x="308.72852" y="112.7685" type="curve" smooth="yes"/>
			<point x="312.61524" y="94.20893"/>
			<point x="312.30176" y="74.16108"/>
			<point x="308.21485" y="55.68061" type="curve" smooth="yes"/>
			<point x="306.11036" y="46.16596"/>
			<point x="302.87403" y="36.82416"/>
			<point x="299.14258" y="28.72943" type="curve"/>
			<point x="292.93457" y="28.25091"/>
			<point x="286.63867" y="28.19525"/>
			<point x="280.41797" y="28.5097" type="curve" smooth="yes"/>
			<point x="270.99588" y="28.9872"/>
			<point x="261.62473" y="30.2058"/>
			<point x="252.33008" y="32.09792" type="curve"/>
		</contour>
	</outline>
</glyph>
<glyph name="percent" format="2">
	<advance width="328"/>
	<unicode hex="0025"/>
	<outline>
		<contour>
			<point x="16.84961" y="42.53906" type="line"/>
			<point x="16.84961" y="0.77539"/>
			<point x="36.35938" y="-36.03125"/>
			<point x="65.94043" y="-57.5498" type="curve" smooth="yes"/>
			<point x="65.98242" y="-57.58007" type="line"/>
			<point x="66.02734" y="-57.6123" type="line" smooth="yes"/>
			<point x="66.06836" y="-57.6416"/>
			<point x="66.02832" y="-57.61328"/>
			<point x="66.07031" y="-57.64355" type="curve" smooth="yes"/>
			<point x="66.11133" y="-57.67382"/>
			<point x="66.07129" y="-57.64452"/>
			<point x="66.11328" y="-57.67479" type="curve" smooth="yes"/>
			<point x="71.14844" y="-61.3242" type="line" smooth="yes"/>
			<point x="88.48535" y="-73.88377"/>
			<point x="109.2666" y="-81.20017"/>
			<point x="131.59961" y="-81.20017" type="curve" smooth="yes"/>
			<point x="155.18262" y="-81.20017"/>
			<point x="177.01465" y="-73.05857"/>
			<point x="195.03027" y="-59.08787" type="curve" smooth="yes"/>
			<point x="253.38183" y="-13.74412" type="line" smooth="yes"/>
			<point x="281.38476" y="8.02248"/>
			<point x="299.66601" y="43.80568"/>
			<point x="299.66601" y="84.23341" type="curve" smooth="yes"/>
			<point x="299.66601" y="125.99708"/>
			<point x="280.15624" y="162.80274"/>
			<point x="250.57519" y="184.32227" type="curve" smooth="yes"/>
			<point x="250.5332" y="184.35157" type="line"/>
			<point x="250.48925" y="184.38477" type="line" smooth="yes"/>
			<point x="250.44726" y="184.41504"/>
			<point x="250.48828" y="184.38477"/>
			<point x="250.44629" y="184.41602" type="curve" smooth="yes"/>
			<point x="250.4043" y="184.44629"/>
			<point x="250.44434" y="184.41699"/>
			<point x="250.40332" y="184.44629" type="curve" smooth="yes"/>
			<point x="245.36816" y="188.09668" type="line" smooth="yes"/>
			<point x="228.03027" y="200.65625"/>
			<point x="207.24902" y="207.97265"/>
			<point x="184.91601" y="207.97265" type="curve" smooth="yes"/>
			<point x="161.333" y="207.97265"/>
			<point x="139.50195" y="199.83105"/>
			<point x="121.48535" y="185.86035" type="curve" smooth="yes"/>
			<point x="63.13476" y="140.5166" type="line" smooth="yes"/>
			<point x="35.13183" y="118.75"/>
			<point x="16.8496" y="82.9668"/>
			<point x="16.8496" y="42.53907" type="curve"/>
		</contour>
		<contour>
			<point x="80.23632" y="84.23341" type="line"/>
			<point x="80.23632" y="110.32423"/>
			<point x="87.92675" y="134.584"/>
			<point x="100.76757" y="154.16603" type="curve"/>
			<point x="110.59569" y="157.31056"/>
			<point x="120.89647" y="158.97951"/>
			<point x="131.59959" y="158.97951" type="curve" smooth="yes"/>
			<point x="152.82322" y="158.97951"/>
			<point x="172.79099" y="152.29494"/>
			<point x="189.52341" y="140.88088" type="curve"/>
			<point x="217.82126" y="119.11916"/>
			<point x="236.27927" y="83.20217"/>
			<point x="236.27927" y="42.53908" type="curve" smooth="yes"/>
			<point x="236.27927" y="16.44826"/>
			<point x="228.58982" y="-7.81248"/>
			<point x="215.749" y="-27.39353" type="curve"/>
			<point x="205.92088" y="-30.53904"/>
			<point x="195.6201" y="-32.20701"/>
			<point x="184.916" y="-32.20701" type="curve" smooth="yes"/>
			<point x="163.69237" y="-32.20701"/>
			<point x="143.7246" y="-25.52244"/>
			<point x="126.99315" y="-14.10838" type="curve"/>
			<point x="98.69432" y="7.65236"/>
			<point x="80.23631" y="43.56935"/>
			<point x="80.23631" y="84.23341" type="curve"/>
		</contour>
		<contour>
			<point x="18.99998" y="382.13868" type="line"/>
			<point x="18.99998" y="340.37598"/>
			<point x="38.50975" y="303.57032"/>
			<point x="68.0908" y="282.05177" type="curve" smooth="yes"/>
			<point x="68.13279" y="282.0215" type="line"/>
			<point x="68.17674" y="281.98927" type="line" smooth="yes"/>
			<point x="68.21873" y="281.959"/>
			<point x="68.17771" y="281.9883"/>
			<point x="68.2197" y="281.95705" type="curve" smooth="yes"/>
			<point x="68.26169" y="281.92775"/>
			<point x="68.22165" y="281.95607"/>
			<point x="68.26267" y="281.92677" type="curve" smooth="yes"/>
			<point x="73.2988" y="278.27833" type="line" smooth="yes"/>
			<point x="90.63571" y="265.71681"/>
			<point x="111.41696" y="258.40041"/>
			<point x="133.74997" y="258.40041" type="curve" smooth="yes"/>
			<point x="157.332" y="258.40041"/>
			<point x="179.16403" y="266.54201"/>
			<point x="197.18063" y="280.51271" type="curve" smooth="yes"/>
			<point x="255.53122" y="325.85646" type="line" smooth="yes"/>
			<point x="283.53415" y="347.62404"/>
			<point x="301.81638" y="383.40627"/>
			<point x="301.81638" y="423.834" type="curve" smooth="yes"/>
			<point x="301.81638" y="465.59865"/>
			<point x="282.30661" y="502.40431"/>
			<point x="252.72556" y="523.92286" type="curve" smooth="yes"/>
			<point x="252.68357" y="523.95313" type="line"/>
			<point x="252.63865" y="523.98536" type="line" smooth="yes"/>
			<point x="252.59763" y="524.01563"/>
			<point x="252.63767" y="523.98633"/>
			<point x="252.59568" y="524.0166" type="curve" smooth="yes"/>
			<point x="252.55466" y="524.04785"/>
			<point x="252.5947" y="524.01758"/>
			<point x="252.55271" y="524.04883" type="curve" smooth="yes"/>
			<point x="247.51755" y="527.69727" type="line" smooth="yes"/>
			<point x="230.18064" y="540.25684"/>
			<point x="209.39939" y="547.57324"/>
			<point x="187.06638" y="547.57324" type="curve" smooth="yes"/>
			<point x="163.4824" y="547.57324"/>
			<point x="141.65135" y="539.43164"/>
			<point x="123.63573" y="525.46094" type="curve" smooth="yes"/>
			<point x="65.28417" y="480.11719" type="line" smooth="yes"/>
			<point x="37.28222" y="458.35059"/>
			<point x="18.99999" y="422.56836"/>
			<point x="18.99999" y="382.13867" type="curve"/>
		</contour>
		<contour>
			<point x="82.38671" y="423.83398" type="line"/>
			<point x="82.38671" y="449.9248"/>
			<point x="90.07616" y="474.18554"/>
			<point x="102.91698" y="493.76757" type="curve"/>
			<point x="112.7451" y="496.9121"/>
			<point x="123.04588" y="498.58007"/>
			<point x="133.74998" y="498.58007" type="curve" smooth="yes"/>
			<point x="154.97361" y="498.58007"/>
			<point x="174.94138" y="491.8955"/>
			<point x="191.6738" y="480.48144" type="curve"/>
			<point x="219.97068" y="458.72167"/>
			<point x="238.42966" y="422.8037"/>
			<point x="238.42966" y="382.13866" type="curve" smooth="yes"/>
			<point x="238.42966" y="356.04882"/>
			<point x="230.74021" y="331.78905"/>
			<point x="217.89841" y="312.20702" type="curve"/>
			<point x="208.07126" y="309.06249"/>
			<point x="197.7695" y="307.39354"/>
			<point x="187.0654" y="307.39354" type="curve" smooth="yes"/>
			<point x="165.84274" y="307.39354"/>
			<point x="145.87399" y="314.07811"/>
			<point x="129.14352" y="325.49217" type="curve"/>
			<point x="100.84469" y="347.25389"/>
			<point x="82.38668" y="383.17088"/>
			<point x="82.38668" y="423.83397" type="curve"/>
		</contour>
		<contour>
			<point x="12.0527" y="207.05272" type="line"/>
			<point x="12.707" y="203.29686"/>
			<point x="16.39255" y="200.70311"/>
			<point x="20.14939" y="201.35545" type="curve" smooth="yes"/>
			<point x="309.94919" y="251.75584" type="line" smooth="yes"/>
			<point x="313.70603" y="252.40916"/>
			<point x="316.29978" y="256.09568"/>
			<point x="315.64646" y="259.85252" type="curve" smooth="yes"/>
			<point x="314.99314" y="263.60838"/>
			<point x="311.30759" y="266.20213"/>
			<point x="307.54978" y="265.54979" type="curve" smooth="yes"/>
			<point x="17.74998" y="215.1494" type="line" smooth="yes"/>
			<point x="13.99412" y="214.49608"/>
			<point x="11.40037" y="210.81053"/>
			<point x="12.05271" y="207.05272" type="curve"/>
		</contour>
	</outline>
</glyph>
<glyph name="quotesingle" format="2">
	<advance width="146"/>
	<unicode hex="0027"/>
	<outline>
		<contour>
			<point x="14" y="613" type="line"/>
			<point x="123" y="613" type="line"/>
			<point x="123" y="452.33301" type="line"/>
			<point x="14" y="412" type="line"/>
		</contour>
	</outline>
</glyph>
<glyph name="parenleft" format="2">
	<advance width="248"/>
	<unicode hex="0028"/>
	<outline>
		<contour>
			<point x="86.7168" y="57.7461" type="line"/>
			<point x="86.78907" y="57.64454" type="line" smooth="yes"/>
			<point x="109.20216" y="25.65528"/>
			<point x="136.21193" y="-3.07128"/>
			<point x="167.10158" y="-27.03905" type="curve"/>
			<point x="232.63381" y="18.84767" type="line"/>
			<point x="226.89846" y="27.03907" type="line"/>
			<point x="197.30178" y="50.00196"/>
			<point x="171.22854" y="77.4004"/>
			<point x="149.40823" y="107.74415" type="curve" smooth="yes"/>
			<point x="102.9385" y="175.87403"/>
			<point x="77.08889" y="258.30176"/>
			<point x="78.63381" y="340.84766" type="curve" smooth="yes"/>
			<point x="80.7217" y="452.33887"/>
			<point x="132.19924" y="562.00879"/>
			<point x="216.63381" y="634.84766" type="curve"/>
			<point x="210.89846" y="643.03906" type="line"/>
			<point x="145.36623" y="597.15332" type="line"/>
			<point x="60.93166" y="524.31445"/>
			<point x="9.45412" y="414.64355"/>
			<point x="7.36623" y="303.15234" type="curve" smooth="yes"/>
			<point x="5.79299" y="219.11132"/>
			<point x="32.60256" y="135.22362"/>
			<point x="80.67776" y="66.37303" type="curve" smooth="yes"/>
			<point x="80.74905" y="66.27049"/>
			<point x="80.67874" y="66.3701"/>
			<point x="80.75101" y="66.26756" type="curve" smooth="yes"/>
		</contour>
	</outline>
</glyph>
<glyph name="parenright" format="2">
	<advance width="248"/>
	<unicode hex="0029"/>
	<outline>
		<contour>
			<point x="153.21777" y="558.2539" type="line"/>
			<point x="153.1455" y="558.35546" type="line" smooth="yes"/>
			<point x="130.73241" y="590.34472"/>
			<point x="103.72264" y="619.07128"/>
			<point x="72.83299" y="643.03905" type="curve"/>
			<point x="7.30076" y="597.15233" type="line"/>
			<point x="13.03611" y="588.96093" type="line"/>
			<point x="42.63279" y="565.99804"/>
			<point x="68.70603" y="538.5996"/>
			<point x="90.52634" y="508.25585" type="curve" smooth="yes"/>
			<point x="136.99607" y="440.12597"/>
			<point x="162.84568" y="357.69824"/>
			<point x="161.30076" y="275.15234" type="curve" smooth="yes"/>
			<point x="159.21287" y="163.66113"/>
			<point x="107.73533" y="53.99121"/>
			<point x="23.30076" y="-18.84766" type="curve"/>
			<point x="29.03611" y="-27.03906" type="line"/>
			<point x="94.56834" y="18.84668" type="line"/>
			<point x="179.00291" y="91.68555"/>
			<point x="230.48045" y="201.35645"/>
			<point x="232.56834" y="312.84766" type="curve" smooth="yes"/>
			<point x="234.14158" y="396.88868"/>
			<point x="207.33201" y="480.77638"/>
			<point x="159.25681" y="549.62697" type="curve" smooth="yes"/>
			<point x="159.18552" y="549.72951"/>
			<point x="159.25583" y="549.6299"/>
			<point x="159.18356" y="549.73244" type="curve" smooth="yes"/>
		</contour>
	</outline>
</glyph>
<glyph name="asterisk" format="2">
	<advance width="428"/>
	<unicode hex="002A"/>
	<outline>
		<contour>
			<point x="70.60742" y="763.39258" type="line"/>
			<point x="62.90527" y="755.68946"/>
			<point x="62.90527" y="742.81056"/>
			<point x="70.60742" y="735.10744" type="curve" smooth="yes"/>
			<point x="164.71484" y="641" type="line"/>
			<point x="42" y="641" type="line" smooth="yes"/>
			<point x="31.10645" y="641"/>
			<point x="22" y="631.89357"/>
			<point x="22" y="621" type="curve" smooth="yes"/>
			<point x="22" y="610.10647"/>
			<point x="31.10645" y="601"/>
			<point x="42" y="601" type="curve" smooth="yes"/>
			<point x="164.71484" y="601" type="line"/>
			<point x="70.60742" y="506.8926" type="line" smooth="yes"/>
			<point x="62.90527" y="499.18948"/>
			<point x="62.90527" y="486.31058"/>
			<point x="70.60742" y="478.60746" type="curve" smooth="yes"/>
			<point x="78.31054" y="470.90531"/>
			<point x="91.18944" y="470.90531"/>
			<point x="98.89256" y="478.60746" type="curve" smooth="yes"/>
			<point x="192.99998" y="572.71488" type="line"/>
			<point x="192.99998" y="450.00004" type="line" smooth="yes"/>
			<point x="192.99998" y="439.10649"/>
			<point x="202.10643" y="430.00004"/>
			<point x="212.99998" y="430.00004" type="curve" smooth="yes"/>
			<point x="223.89353" y="430.00004"/>
			<point x="232.99998" y="439.10649"/>
			<point x="232.99998" y="450.00004" type="curve" smooth="yes"/>
			<point x="232.99998" y="572.71488" type="line"/>
			<point x="327.1074" y="478.60746" type="line" smooth="yes"/>
			<point x="334.81052" y="470.90531"/>
			<point x="347.68942" y="470.90531"/>
			<point x="355.39254" y="478.60746" type="curve" smooth="yes"/>
			<point x="363.09469" y="486.31058"/>
			<point x="363.09469" y="499.18948"/>
			<point x="355.39254" y="506.8926" type="curve" smooth="yes"/>
			<point x="261.28512" y="601" type="line"/>
			<point x="383.99996" y="601" type="line" smooth="yes"/>
			<point x="394.89351" y="601"/>
			<point x="403.99996" y="610.10647"/>
			<point x="403.99996" y="621" type="curve" smooth="yes"/>
			<point x="403.99996" y="631.89357"/>
			<point x="394.89351" y="641"/>
			<point x="383.99996" y="641" type="curve" smooth="yes"/>
			<point x="261.28512" y="641" type="line"/>
			<point x="355.39254" y="735.10744" type="line" smooth="yes"/>
			<point x="363.09469" y="742.81056"/>
			<point x="363.09469" y="755.68946"/>
			<point x="355.39254" y="763.39258" type="curve" smooth="yes"/>
			<point x="347.68942" y="771.09473"/>
			<point x="334.81052" y="771.09473"/>
			<point x="327.1074" y="763.39258" type="curve" smooth="yes"/>
			<point x="232.99998" y="669.28516" type="line"/>
			<point x="232.99998" y="792" type="line" smooth="yes"/>
			<point x="232.99998" y="802.89355"/>
			<point x="223.89353" y="812"/>
			<point x="212.99998" y="812" type="curve" smooth="yes"/>
			<point x="202.10643" y="812"/>
			<point x="192.99998" y="802.89355"/>
			<point x="192.99998" y="792" type="curve" smooth="yes"/>
			<point x="192.99998" y="669.28516" type="line"/>
			<point x="98.89256" y="763.39258" type="line" smooth="yes"/>
			<point x="91.18944" y="771.09473"/>
			<point x="78.31054" y="771.09473"/>
			<point x="70.60742" y="763.39258" type="curve"/>
		</contour>
	</outline>
</glyph>
<glyph name="plus" format="2">
	<advance width="492"/>
	<unicode hex="002B"/>
	<outline>
		<contour>
			<point x="19.36621" y="205.15332" type="line"/>
			<point x="25.10156" y="196.96094" type="line"/>
			<point x="212.36574" y="196.96094" type="line"/>
			<point x="212.36572" y="135.35808"/>
			<point x="212.36619" y="73.75521"/>
			<point x="212.36619" y="12.15235" type="curve"/>
			<point x="218.10154" y="3.96095" type="line"/>
			<point x="283.63377" y="49.84669" type="line"/>
			<point x="283.63377" y="196.96095" type="line"/>
			<point x="411.10154" y="196.96095" type="line"/>
			<point x="476.63377" y="242.84767" type="line"/>
			<point x="470.89842" y="251.03907" type="line"/>
			<point x="283.63377" y="251.03907" type="line"/>
			<point x="283.63377" y="435.84669" type="line"/>
			<point x="277.89744" y="444.03907" type="line"/>
			<point x="212.36521" y="398.15235" type="line"/>
			<point x="212.36521" y="349.11458"/>
			<point x="212.36558" y="300.07683"/>
			<point x="212.36558" y="251.03906" type="curve"/>
			<point x="84.89842" y="251.03906" type="line"/>
		</contour>
	</outline>
</glyph>
<glyph name="comma" format="2">
	<advance width="214"/>
	<unicode hex="002C"/>
	<outline>
		<contour>
			<point x="104.12402" y="143.78125" type="line"/>
			<point x="196.19531" y="79.20996" type="line"/>
			<point x="55.2334" y="-68.68066" type="line"/>
			<point x="48.16211" y="-61.60937" type="line"/>
			<point x="103" y="0.00001" type="line"/>
			<point x="19.27148" y="58.92872" type="line"/>
		</contour>
	</outline>
</glyph>
<glyph name="hyphen" format="2">
	<advance width="302"/>
	<unicode hex="002D"/>
	<outline>
		<contour>
			<point x="19.36621" y="205.15332" type="line"/>
			<point x="25.10156" y="196.96094" type="line"/>
			<point x="221.10156" y="196.96094" type="line"/>
			<point x="286.63379" y="242.84766" type="line"/>
			<point x="280.89844" y="251.03906" type="line"/>
			<point x="84.89844" y="251.03906" type="line"/>
		</contour>
	</outline>
</glyph>
<glyph name="period" format="2">
	<advance width="172"/>
	<unicode hex="002E"/>
	<outline>
		<contour>
			<point x="156.71094" y="70.71094" type="line"/>
			<point x="86" y="141.4209" type="line"/>
			<point x="15.29004" y="70.71094" type="line"/>
			<point x="86" y="0" type="line"/>
		</contour>
	</outline>
</glyph>
<glyph name="zero" format="2">
	<advance width="440"/>
	<unicode hex="0030"/>
	<outline>
		<contour>
			<point x="18" y="188.92676" type="line" smooth="yes"/>
			<point x="18" y="109.42188"/>
			<point x="45.8711" y="39.3545"/>
			<point x="88.12989" y="-1.61034" type="curve" smooth="yes"/>
			<point x="88.18946" y="-1.66796" type="line"/>
			<point x="88.25294" y="-1.72948" type="line" smooth="yes"/>
			<point x="88.31251" y="-1.7871"/>
			<point x="88.25489" y="-1.73144"/>
			<point x="88.31446" y="-1.78906" type="curve" smooth="yes"/>
			<point x="88.37403" y="-1.84668"/>
			<point x="88.31641" y="-1.79102"/>
			<point x="88.37598" y="-1.84864" type="curve" smooth="yes"/>
			<point x="95.56934" y="-8.79493" type="line" smooth="yes"/>
			<point x="120.33692" y="-32.70606"/>
			<point x="150.02442" y="-46.63379"/>
			<point x="181.92872" y="-46.63379" type="curve" smooth="yes"/>
			<point x="215.61817" y="-46.63379"/>
			<point x="246.80665" y="-31.13477"/>
			<point x="272.54395" y="-4.53907" type="curve" smooth="yes"/>
			<point x="355.90235" y="81.78222" type="line" smooth="yes"/>
			<point x="395.90625" y="123.21874"/>
			<point x="422.02344" y="191.33788"/>
			<point x="422.02344" y="268.30175" type="curve" smooth="yes"/>
			<point x="422.02344" y="347.80663"/>
			<point x="394.15234" y="417.87401"/>
			<point x="351.89355" y="458.83885" type="curve" smooth="yes"/>
			<point x="351.83398" y="458.89647" type="line"/>
			<point x="351.7705" y="458.95799" type="line" smooth="yes"/>
			<point x="351.71093" y="459.01659"/>
			<point x="351.76855" y="458.95995"/>
			<point x="351.70898" y="459.01757" type="curve" smooth="yes"/>
			<point x="351.64941" y="459.07617"/>
			<point x="351.70703" y="459.01953"/>
			<point x="351.64746" y="459.07715" type="curve" smooth="yes"/>
			<point x="344.4541" y="466.02442" type="line" smooth="yes"/>
			<point x="319.68652" y="489.93458"/>
			<point x="289.99902" y="503.86231"/>
			<point x="258.09472" y="503.86231" type="curve" smooth="yes"/>
			<point x="224.40429" y="503.86231"/>
			<point x="193.21679" y="488.36329"/>
			<point x="167.47949" y="461.76759" type="curve" smooth="yes"/>
			<point x="84.12109" y="375.44728" type="line" smooth="yes"/>
			<point x="44.11719" y="334.00978"/>
			<point x="18" y="265.89064"/>
			<point x="18" y="188.92677" type="curve" smooth="yes"/>
		</contour>
		<contour>
			<point x="108.55273" y="268.30177" type="line"/>
			<point x="108.55273" y="317.96974"/>
			<point x="119.53808" y="364.15431"/>
			<point x="137.88183" y="401.43165" type="curve"/>
			<point x="151.92187" y="407.41895"/>
			<point x="166.63769" y="410.59473"/>
			<point x="181.92871" y="410.59473" type="curve" smooth="yes"/>
			<point x="212.24805" y="410.59473"/>
			<point x="240.77344" y="397.86914"/>
			<point x="264.67676" y="376.14062" type="curve"/>
			<point x="305.10156" y="334.71484"/>
			<point x="331.4707" y="266.33886"/>
			<point x="331.4707" y="188.92675" type="curve" smooth="yes"/>
			<point x="331.4707" y="139.25878"/>
			<point x="320.48632" y="93.07518"/>
			<point x="302.14159" y="55.79686" type="curve"/>
			<point x="288.10155" y="49.80956"/>
			<point x="273.38573" y="46.63378"/>
			<point x="258.09374" y="46.63378" type="curve" smooth="yes"/>
			<point x="227.77538" y="46.63378"/>
			<point x="199.24901" y="59.35937"/>
			<point x="175.34764" y="81.08691" type="curve"/>
			<point x="134.92088" y="122.51464"/>
			<point x="108.55272" y="190.88964"/>
			<point x="108.55272" y="268.30175" type="curve"/>
		</contour>
	</outline>
</glyph>
<glyph name="one" format="2">
	<advance width="130"/>
	<unicode hex="0031"/>
	<outline>
		<contour>
			<point x="103.85254" y="505.71191" type="line"/>
			<point x="19" y="420.85937" type="line"/>
			<point x="19" y="-38.89063" type="line"/>
			<point x="26.07129" y="-45.96192" type="line"/>
			<point x="110.92383" y="38.89062" type="line"/>
			<point x="110.92383" y="498.64062" type="line"/>
		</contour>
	</outline>
</glyph>
<glyph name="two" format="2">
	<advance width="423"/>
	<unicode hex="0032"/>
	<outline>
		<contour>
			<point x="56.20898" y="185.03809" type="line"/>
			<point x="141.06152" y="269.89063" type="line"/>
			<point x="124.89746" y="290.07423"/>
			<point x="114.39941" y="314.74903"/>
			<point x="111.06152" y="340.39063" type="curve" smooth="yes"/>
			<point x="108.12402" y="362.9629"/>
			<point x="111.12597" y="386.69532"/>
			<point x="118.72851" y="407.54688" type="curve"/>
			<point x="137.22656" y="414.30567"/>
			<point x="156.71875" y="417.2959"/>
			<point x="176.20898" y="416.03809" type="curve" smooth="yes"/>
			<point x="207.76758" y="414.00098"/>
			<point x="238.67871" y="400.68555"/>
			<point x="261.78027" y="379.26953" type="curve"/>
			<point x="284.46484" y="354.79883"/>
			<point x="297.67285" y="321.85449"/>
			<point x="298.88965" y="288.48242" type="curve" smooth="yes"/>
			<point x="300.13379" y="254.30762"/>
			<point x="289.04785" y="220.33692"/>
			<point x="270.74902" y="191.44825" type="curve" smooth="yes"/>
			<point x="267.12012" y="185.71778"/>
			<point x="262.85742" y="179.72559"/>
			<point x="259.09277" y="174.80664" type="curve"/>
			<point x="118.99023" y="45.96191" type="line"/>
			<point x="34.13769" y="-38.89063" type="line"/>
			<point x="41.20898" y="-45.96192" type="line"/>
			<point x="320.208" y="-45.96192" type="line"/>
			<point x="405.06152" y="38.89062" type="line"/>
			<point x="397.99023" y="45.96191" type="line"/>
			<point x="141.16503" y="45.96191" type="line"/>
			<point x="209.20898" y="108.53808" type="line" smooth="yes"/>
			<point x="218.30273" y="116.90136"/>
			<point x="226.96582" y="124.93652"/>
			<point x="236.08887" y="134.02343" type="curve"/>
			<point x="236.08887" y="134.02343"/>
			<point x="236.42676" y="134.36132"/>
			<point x="236.69824" y="134.63183" type="curve" smooth="yes"/>
			<point x="321.55078" y="219.48535" type="line" smooth="yes"/>
			<point x="336.84277" y="234.7832"/>
			<point x="351.12109" y="250.99218"/>
			<point x="362.67285" y="269.22948" type="curve" smooth="yes"/>
			<point x="380.97168" y="298.11815"/>
			<point x="392.05762" y="332.08983"/>
			<point x="390.81348" y="366.26366" type="curve" smooth="yes"/>
			<point x="389.56738" y="400.43944"/>
			<point x="375.75781" y="434.14549"/>
			<point x="352.05664" y="458.79686" type="curve" smooth="yes"/>
			<point x="351.53223" y="459.34178"/>
			<point x="351.00391" y="459.8828"/>
			<point x="350.46973" y="460.41893" type="curve" smooth="yes"/>
			<point x="350.41113" y="460.47753"/>
			<point x="350.46777" y="460.42089"/>
			<point x="350.4082" y="460.48046" type="curve" smooth="yes"/>
			<point x="350.3418" y="460.54686" type="line" smooth="yes"/>
			<point x="350.2832" y="460.60643"/>
			<point x="350.33691" y="460.55272"/>
			<point x="350.27734" y="460.61132" type="curve" smooth="yes"/>
			<point x="350.21874" y="460.67089"/>
			<point x="350.27245" y="460.61718"/>
			<point x="350.21385" y="460.67578" type="curve" smooth="yes"/>
			<point x="343.14256" y="467.74707" type="line" smooth="yes"/>
			<point x="319.58201" y="491.29297"/>
			<point x="287.24119" y="505.81543"/>
			<point x="253.99021" y="507.96191" type="curve" smooth="yes"/>
			<point x="213.80076" y="510.55664"/>
			<point x="172.86228" y="494.87109"/>
			<point x="144.39744" y="466.41015" type="curve" smooth="yes"/>
			<point x="59.5449" y="381.55761" type="line" smooth="yes"/>
			<point x="58.45115" y="380.46484"/>
			<point x="57.37693" y="379.35254"/>
			<point x="56.32127" y="378.22266" type="curve" smooth="yes"/>
			<point x="27.77732" y="347.65821"/>
			<point x="13.74021" y="304.08009"/>
			<point x="19.13767" y="262.60939" type="curve" smooth="yes"/>
			<point x="22.47556" y="236.96681"/>
			<point x="32.97361" y="212.29298"/>
			<point x="49.13767" y="192.10938" type="curve"/>
		</contour>
	</outline>
</glyph>
<glyph name="three" format="2">
	<advance width="414"/>
	<unicode hex="0033"/>
	<outline>
		<contour>
			<point x="35.71094" y="6.51953" type="line"/>
			<point x="42.78321" y="-0.55371" type="line"/>
			<point x="42.84278" y="-0.61231" type="line" smooth="yes"/>
			<point x="59.57813" y="-17.33497"/>
			<point x="80.2461" y="-30.35743"/>
			<point x="102.86817" y="-38.18165" type="curve" smooth="yes"/>
			<point x="134.37207" y="-49.07716"/>
			<point x="169.49707" y="-49.83302"/>
			<point x="201.45996" y="-40.28517" type="curve" smooth="yes"/>
			<point x="226.50781" y="-32.80372"/>
			<point x="249.50683" y="-19.02247"/>
			<point x="267.7666" y="-0.7754" type="curve" smooth="yes"/>
			<point x="352.62012" y="84.07812" type="line" smooth="yes"/>
			<point x="357.66211" y="89.11621"/>
			<point x="362.3418" y="94.49511"/>
			<point x="366.6045" y="100.17577" type="curve" smooth="yes"/>
			<point x="386.30372" y="126.4287"/>
			<point x="396.95606" y="158.99706"/>
			<point x="396.36426" y="191.48241" type="curve" smooth="yes"/>
			<point x="395.68457" y="228.6328"/>
			<point x="380.10742" y="265.37108"/>
			<point x="353.52637" y="292.07811" type="curve" smooth="yes"/>
			<point x="346.19239" y="299.41209" type="line" smooth="yes"/>
			<point x="346.04005" y="299.56541"/>
			<point x="345.88673" y="299.71775"/>
			<point x="345.73243" y="299.87009" type="curve" smooth="yes"/>
			<point x="321.37208" y="323.99997"/>
			<point x="288.20313" y="339.57907"/>
			<point x="253.60059" y="343.06833" type="curve" smooth="yes"/>
			<point x="240.96387" y="344.34274"/>
			<point x="228.08399" y="343.99215"/>
			<point x="215.59571" y="342.13277" type="curve"/>
			<point x="302.27149" y="413.78804" type="line"/>
			<point x="387.12403" y="498.64058" type="line"/>
			<point x="380.05274" y="505.71187" type="line"/>
			<point x="123.97169" y="505.71187" type="line"/>
			<point x="39.11915" y="420.85933" type="line"/>
			<point x="46.19044" y="413.78804" type="line"/>
			<point x="268.85939" y="413.78804" type="line"/>
			<point x="154.33302" y="319.10835" type="line"/>
			<point x="69.4795" y="234.25581" type="line"/>
			<point x="76.55079" y="227.18452" type="line"/>
			<point x="105.44923" y="246.00386"/>
			<point x="141.21485" y="254.63374"/>
			<point x="175.81837" y="251.14448" type="curve" smooth="yes"/>
			<point x="208.91017" y="247.80757"/>
			<point x="240.96974" y="233.21382"/>
			<point x="264.834" y="210.94234" type="curve"/>
			<point x="289.5215" y="184.44918"/>
			<point x="303.7881" y="149.35738"/>
			<point x="304.44044" y="113.70015" type="curve" smooth="yes"/>
			<point x="304.79298" y="94.32222"/>
			<point x="300.94435" y="74.37984"/>
			<point x="293.97072" y="56.85543" type="curve"/>
			<point x="288.89455" y="54.77242"/>
			<point x="284.26955" y="53.14058"/>
			<point x="279.24221" y="51.63863" type="curve" smooth="yes"/>
			<point x="247.27834" y="42.09078"/>
			<point x="212.15432" y="42.84664"/>
			<point x="180.65042" y="53.74215" type="curve" smooth="yes"/>
			<point x="159.63772" y="61.00875"/>
			<point x="140.11917" y="72.92086"/>
			<point x="124.17972" y="87.87008" type="curve"/>
			<point x="118.91019" y="93.49508"/>
			<point x="114.22269" y="99.30563"/>
			<point x="109.92386" y="105.55465" type="curve"/>
			<point x="102.85257" y="112.62594" type="line"/>
			<point x="18.00003" y="27.7734" type="line"/>
			<point x="23.17386" y="20.25192"/>
			<point x="29.0557" y="13.19821"/>
			<point x="35.53031" y="6.70016" type="curve" smooth="yes"/>
			<point x="35.58988" y="6.64059" type="line"/>
			<point x="35.6514" y="6.57907" type="line"/>
		</contour>
	</outline>
</glyph>
<glyph name="four" format="2">
	<advance width="438"/>
	<unicode hex="0034"/>
	<outline>
		<contour>
			<point x="249.85254" y="505.71191" type="line"/>
			<point x="165" y="420.85937" type="line"/>
			<point x="167.78711" y="369.0332"/>
			<point x="154.31055" y="316.30859"/>
			<point x="127.33106" y="272.25488" type="curve"/>
			<point x="119.36915" y="267.35254"/>
			<point x="111.25294" y="262.94238"/>
			<point x="102.85353" y="258.96191" type="curve"/>
			<point x="18.00001" y="174.10937" type="line"/>
			<point x="25.0713" y="167.03808" type="line"/>
			<point x="267" y="167.03808" type="line"/>
			<point x="267" y="-38.89063" type="line"/>
			<point x="274.07032" y="-45.96192" type="line"/>
			<point x="358.92384" y="38.89062" type="line"/>
			<point x="358.92384" y="190.39089" type="line"/>
			<point x="420.42384" y="251.89159" type="line"/>
			<point x="413.35353" y="258.9619" type="line"/>
			<point x="358.92384" y="258.9619" type="line"/>
			<point x="358.92384" y="424.39061" type="line"/>
			<point x="351.85255" y="431.4619" type="line"/>
			<point x="267" y="346.60936" type="line"/>
			<point x="267" y="258.9619" type="line"/>
			<point x="138.12306" y="258.9619" type="line"/>
			<point x="181.8213" y="302.66014" type="line" smooth="yes"/>
			<point x="195.49806" y="316.32518"/>
			<point x="207.65333" y="331.50878"/>
			<point x="217.92384" y="347.89062" type="curve" smooth="yes"/>
			<point x="245.93361" y="392.56445"/>
			<point x="259.7549" y="445.98925"/>
			<point x="256.92385" y="498.64062" type="curve"/>
		</contour>
	</outline>
</glyph>
<glyph name="five" format="2">
	<advance width="404"/>
	<unicode hex="0035"/>
	<outline>
		<contour>
			<point x="332.04785" y="315.43652" type="line"/>
			<point x="331.92187" y="315.56152" type="line"/>
			<point x="331.85547" y="315.62792" type="line"/>
			<point x="331.79687" y="315.68652" type="line" smooth="yes"/>
			<point x="305.52929" y="341.83593"/>
			<point x="270.37109" y="359.04296"/>
			<point x="233.53027" y="363.48436" type="curve" smooth="yes"/>
			<point x="193.03125" y="368.36815"/>
			<point x="150.75293" y="357.63768"/>
			<point x="117.40137" y="334.70995" type="curve"/>
			<point x="123.98242" y="413.78807" type="line"/>
			<point x="257.27051" y="413.78807" type="line"/>
			<point x="342.12305" y="498.64061" type="line"/>
			<point x="335.05176" y="505.7119" type="line"/>
			<point x="123.97266" y="505.7119" type="line"/>
			<point x="39.12012" y="420.85838" type="line"/>
			<point x="24.38965" y="243.85936" type="line"/>
			<point x="31.46094" y="236.78807" type="line"/>
			<point x="66.19434" y="264.03514"/>
			<point x="111.9209" y="276.84569"/>
			<point x="155.74902" y="271.56053" type="curve" smooth="yes"/>
			<point x="191.03711" y="267.30565"/>
			<point x="224.86133" y="251.28807"/>
			<point x="250.68164" y="226.98827" type="curve"/>
			<point x="254.20898" y="223.23632"/>
			<point x="257.6875" y="219.16503"/>
			<point x="260.87988" y="215.01855" type="curve" smooth="yes"/>
			<point x="289.54004" y="177.78906"/>
			<point x="301.08008" y="127.66699"/>
			<point x="290.63965" y="81.85937" type="curve" smooth="yes"/>
			<point x="288.80371" y="73.80566"/>
			<point x="286.21387" y="65.63574"/>
			<point x="283.18946" y="58.19336" type="curve"/>
			<point x="274.91114" y="54.87402"/>
			<point x="265.75684" y="52.08886"/>
			<point x="256.72852" y="50.27636" type="curve" smooth="yes"/>
			<point x="227.99414" y="44.50878"/>
			<point x="197.58691" y="47.33886"/>
			<point x="170.42285" y="58.33984" type="curve" smooth="yes"/>
			<point x="153.28125" y="65.28222"/>
			<point x="137.43164" y="75.49413"/>
			<point x="123.95703" y="88.11229" type="curve"/>
			<point x="118.90234" y="93.51561"/>
			<point x="114.14746" y="99.40526"/>
			<point x="109.92383" y="105.5537" type="curve"/>
			<point x="102.85254" y="112.62499" type="line"/>
			<point x="18" y="27.77147" type="line"/>
			<point x="23.16797" y="20.24999"/>
			<point x="29.03516" y="13.21483"/>
			<point x="35.48633" y="6.76171" type="curve" smooth="yes"/>
			<point x="42.55762" y="-0.30958" type="line" smooth="yes"/>
			<point x="42.61622" y="-0.36818"/>
			<point x="42.5586" y="-0.31056"/>
			<point x="42.6172" y="-0.37013" type="curve" smooth="yes"/>
			<point x="42.67677" y="-0.42873"/>
			<point x="42.61817" y="-0.37111"/>
			<point x="42.67774" y="-0.42971" type="curve" smooth="yes"/>
			<point x="42.73926" y="-0.49123" type="line"/>
			<point x="42.79786" y="-0.54983" type="line" smooth="yes"/>
			<point x="57.01368" y="-14.70803"/>
			<point x="74.042" y="-26.0508"/>
			<point x="92.64161" y="-33.584" type="curve" smooth="yes"/>
			<point x="119.8047" y="-44.58498"/>
			<point x="150.2129" y="-47.41506"/>
			<point x="178.9463" y="-41.64748" type="curve" smooth="yes"/>
			<point x="207.6797" y="-35.8799"/>
			<point x="234.62501" y="-21.54201"/>
			<point x="255.52149" y="-0.99611" type="curve" smooth="yes"/>
			<point x="255.85157" y="-0.67189"/>
			<point x="256.17969" y="-0.34669"/>
			<point x="256.50586" y="-0.01954" type="curve" smooth="yes"/>
			<point x="341.35938" y="84.833" type="line" smooth="yes"/>
			<point x="361.73731" y="105.24511"/>
			<point x="376.15333" y="131.51757"/>
			<point x="382.56349" y="159.64062" type="curve" smooth="yes"/>
			<point x="393.00392" y="205.44922"/>
			<point x="381.46388" y="255.57032"/>
			<point x="352.80372" y="292.79981" type="curve" smooth="yes"/>
			<point x="348.60157" y="298.25879"/>
			<point x="344.04493" y="303.43457"/>
			<point x="339.18165" y="308.30273" type="curve" smooth="yes"/>
		</contour>
	</outline>
</glyph>
<glyph name="six" format="2">
	<advance width="415"/>
	<unicode hex="0036"/>
	<outline>
		<contour>
			<point x="114.24707" y="254.95215" type="line"/>
			<point x="114.89453" y="257.4336"/>
			<point x="115.49219" y="259.44727"/>
			<point x="116.29688" y="261.93848" type="curve"/>
			<point x="138.86719" y="269.1543"/>
			<point x="163.81836" y="270.64844"/>
			<point x="187.24512" y="265.66309" type="curve" smooth="yes"/>
			<point x="214.0293" y="259.96289"/>
			<point x="238.85157" y="246.28027"/>
			<point x="258.81251" y="227.51855" type="curve"/>
			<point x="263.21974" y="222.82715"/>
			<point x="267.49122" y="217.69727"/>
			<point x="271.33985" y="212.4375" type="curve" smooth="yes"/>
			<point x="293.33595" y="182.36816"/>
			<point x="305" y="144.9873"/>
			<point x="304.67481" y="107.73437" type="curve" smooth="yes"/>
			<point x="304.49903" y="87.65234"/>
			<point x="300.76856" y="67.41601"/>
			<point x="293.62598" y="48.78808" type="curve"/>
			<point x="290.81836" y="47.8037"/>
			<point x="287.5752" y="46.78417"/>
			<point x="284.52735" y="45.9619" type="curve" smooth="yes"/>
			<point x="260.75489" y="39.55077"/>
			<point x="235.17677" y="40.11815"/>
			<point x="211.65236" y="47.38182" type="curve" smooth="yes"/>
			<point x="191.23439" y="53.68748"/>
			<point x="172.54689" y="64.874"/>
			<point x="156.87794" y="79.51462" type="curve"/>
			<point x="123.42189" y="115.29978"/>
			<point x="108.72267" y="166.41306"/>
			<point x="110.09865" y="215.5156" type="curve" smooth="yes"/>
			<point x="110.28713" y="222.26267"/>
			<point x="110.74807" y="228.98728"/>
			<point x="111.46584" y="235.67966" type="curve" smooth="yes"/>
			<point x="112.19045" y="242.43356"/>
			<point x="113.01369" y="248.27438"/>
			<point x="114.24709" y="254.95211" type="curve"/>
		</contour>
		<contour>
			<point x="68.44826" y="-1.87992" type="line"/>
			<point x="68.44826" y="-1.87992"/>
			<point x="75.46291" y="-8.89359"/>
			<point x="75.52151" y="-8.95316" type="curve" smooth="yes"/>
			<point x="75.58108" y="-9.01176"/>
			<point x="75.52346" y="-8.95512"/>
			<point x="75.58303" y="-9.01372" type="curve" smooth="yes"/>
			<point x="75.64651" y="-9.0772" type="line"/>
			<point x="75.70511" y="-9.1358" type="line" smooth="yes"/>
			<point x="91.95121" y="-25.31842"/>
			<point x="111.96781" y="-37.77838"/>
			<point x="133.87015" y="-44.54205" type="curve" smooth="yes"/>
			<point x="157.39554" y="-51.80572"/>
			<point x="182.97366" y="-52.3731"/>
			<point x="206.74612" y="-45.96197" type="curve" smooth="yes"/>
			<point x="229.56546" y="-39.80767"/>
			<point x="250.43265" y="-27.2354"/>
			<point x="267.1641" y="-10.51079" type="curve" smooth="yes"/>
			<point x="352.01664" y="74.34175" type="line" smooth="yes"/>
			<point x="352.14359" y="74.4687"/>
			<point x="352.30082" y="74.6269"/>
			<point x="352.30082" y="74.6269" type="curve"/>
			<point x="358.45414" y="80.82417"/>
			<point x="363.80766" y="87.28218"/>
			<point x="368.62016" y="94.26656" type="curve" smooth="yes"/>
			<point x="386.9395" y="120.85054"/>
			<point x="396.31645" y="153.23042"/>
			<point x="396.59868" y="185.51558" type="curve" smooth="yes"/>
			<point x="396.92388" y="222.76948"/>
			<point x="385.25982" y="260.15034"/>
			<point x="363.26372" y="290.2187" type="curve" smooth="yes"/>
			<point x="358.43657" y="296.81733"/>
			<point x="353.09184" y="303.04975"/>
			<point x="347.30473" y="308.84174" type="curve" smooth="yes"/>
			<point x="340.04887" y="316.0976" type="line"/>
			<point x="339.98442" y="316.16205" type="line"/>
			<point x="339.92582" y="316.22065" type="line" smooth="yes"/>
			<point x="319.39066" y="336.66205"/>
			<point x="293.32816" y="351.56439"/>
			<point x="265.02738" y="357.58685" type="curve" smooth="yes"/>
			<point x="225.26566" y="366.04876"/>
			<point x="181.73343" y="356.07708"/>
			<point x="150.38187" y="330.19818" type="curve" smooth="yes"/>
			<point x="147.29984" y="327.65423"/>
			<point x="144.34574" y="324.96283"/>
			<point x="141.52543" y="322.13861" type="curve" smooth="yes"/>
			<point x="130.34086" y="310.95404" type="line"/>
			<point x="139.87309" y="335.12103"/>
			<point x="152.34379" y="358.24701"/>
			<point x="166.87406" y="379.64154" type="curve" smooth="yes"/>
			<point x="169.40433" y="383.36713"/>
			<point x="171.81253" y="386.7851"/>
			<point x="174.60843" y="390.60834" type="curve"/>
			<point x="185.5137" y="398.64057"/>
			<point x="197.61722" y="406.66108"/>
			<point x="209.74612" y="413.78803" type="curve"/>
			<point x="294.59866" y="498.64057" type="line"/>
			<point x="287.52737" y="505.71186" type="line"/>
			<point x="258.00686" y="488.36518"/>
			<point x="230.66213" y="467.26166"/>
			<point x="206.45705" y="443.04584" type="curve" smooth="yes"/>
			<point x="121.60451" y="358.1933" type="line" smooth="yes"/>
			<point x="104.33986" y="340.92084"/>
			<point x="88.67189" y="322.06537"/>
			<point x="74.95021" y="301.86029" type="curve" smooth="yes"/>
			<point x="55.03322" y="272.53314"/>
			<point x="39.0547" y="240.12982"/>
			<point x="29.16505" y="206.13763" type="curve" smooth="yes"/>
			<point x="26.34962" y="196.4599"/>
			<point x="24.10939" y="187.10834"/>
			<point x="22.33107" y="177.20697" type="curve"/>
			<point x="20.54884" y="170.6308"/>
			<point x="19.48536" y="164.70404"/>
			<point x="18.74806" y="157.93549" type="curve" smooth="yes"/>
			<point x="18.01759" y="151.23432"/>
			<point x="17.81447" y="144.50678"/>
			<point x="18.17287" y="137.76362" type="curve" smooth="yes"/>
			<point x="18.17482" y="137.73335" type="line"/>
			<point x="16.79592" y="88.51069"/>
			<point x="31.4092" y="37.52241"/>
			<point x="65.08498" y="1.5937" type="curve" smooth="yes"/>
			<point x="66.16799" y="0.43843"/>
			<point x="67.26955" y="-0.70024"/>
			<point x="68.38967" y="-1.82036" type="curve" smooth="yes"/>
		</contour>
	</outline>
</glyph>
<glyph name="seven" format="2">
	<advance width="435"/>
	<unicode hex="0037"/>
	<outline>
		<contour>
			<point x="18" y="420.85938" type="line"/>
			<point x="25.07129" y="413.78809" type="line"/>
			<point x="321.19727" y="413.78809" type="line"/>
			<point x="272.82813" y="333.89161"/>
			<point x="230.66602" y="250.54493"/>
			<point x="195" y="164.35938" type="curve" smooth="yes"/>
			<point x="167.56445" y="98.06153"/>
			<point x="144.01074" y="30.15528"/>
			<point x="124.5" y="-38.89062" type="curve"/>
			<point x="131.57129" y="-45.96191" type="line"/>
			<point x="216.42383" y="38.89063" type="line"/>
			<point x="235.93457" y="107.93751"/>
			<point x="259.48828" y="175.84278"/>
			<point x="286.92383" y="242.14063" type="curve" smooth="yes"/>
			<point x="323.64258" y="330.8711"/>
			<point x="367.32031" y="416.72071"/>
			<point x="417.42383" y="498.64063" type="curve"/>
			<point x="410.35254" y="505.71192" type="line"/>
			<point x="102.85254" y="505.71192" type="line"/>
		</contour>
	</outline>
</glyph>
<glyph name="eight" format="2">
	<advance width="452"/>
	<unicode hex="0038"/>
	<outline>
		<contour>
			<point x="196.69434" y="413.78809" type="line"/>
			<point x="229.19629" y="412.48145"/>
			<point x="262.15137" y="404.08887"/>
			<point x="288.53516" y="385.06348" type="curve" smooth="yes"/>
			<point x="292.22754" y="382.40039"/>
			<point x="295.7666" y="379.53027"/>
			<point x="299.13476" y="376.44922" type="curve"/>
			<point x="304.70898" y="370.3457"/>
			<point x="309.72753" y="363.41797"/>
			<point x="313.68651" y="356.05469" type="curve" smooth="yes"/>
			<point x="321.38768" y="341.73047"/>
			<point x="325.33592" y="325.35742"/>
			<point x="324.62401" y="309.10937" type="curve" smooth="yes"/>
			<point x="324.48143" y="305.85156"/>
			<point x="324.18748" y="302.88281"/>
			<point x="323.65721" y="299.47168" type="curve"/>
			<point x="307.26057" y="294.83463"/>
			<point x="289.53268" y="292.69031"/>
			<point x="272.07583" y="292.60472" type="curve" smooth="yes"/>
			<point x="269.3731" y="292.68628"/>
			<point x="266.67231" y="292.7216"/>
			<point x="263.97654" y="292.71191" type="curve" smooth="yes"/>
			<point x="232.89549" y="293.68554"/>
			<point x="201.39744" y="300.92284"/>
			<point x="175.28709" y="317.81151" type="curve" smooth="yes"/>
			<point x="169.72654" y="321.40819"/>
			<point x="164.56052" y="325.35936"/>
			<point x="159.59958" y="329.88866" type="curve"/>
			<point x="155.90231" y="333.94335"/>
			<point x="152.35836" y="338.48241"/>
			<point x="149.3193" y="343.17577" type="curve" smooth="yes"/>
			<point x="140.86715" y="356.22557"/>
			<point x="135.59957" y="371.37889"/>
			<point x="134.54781" y="386.89061" type="curve" smooth="yes"/>
			<point x="134.09078" y="393.63182"/>
			<point x="134.41402" y="400.18944"/>
			<point x="135.5234" y="407.0244" type="curve"/>
			<point x="154.96969" y="412.58397"/>
			<point x="176.18649" y="414.61229"/>
			<point x="196.6943" y="413.78807" type="curve"/>
		</contour>
		<contour>
			<point x="78.21285" y="241.41014" type="line"/>
			<point x="78.27242" y="241.35057" type="line"/>
			<point x="78.33199" y="241.291" type="line"/>
			<point x="78.39156" y="241.2324" type="line" smooth="yes"/>
			<point x="84.18941" y="235.46385"/>
			<point x="90.63668" y="230.33006"/>
			<point x="97.50582" y="225.88768" type="curve" smooth="yes"/>
			<point x="101.42612" y="223.35185"/>
			<point x="105.46793" y="221.03363"/>
			<point x="109.61159" y="218.92151" type="curve"/>
			<point x="52.06636" y="161.37694" type="line" smooth="yes"/>
			<point x="51.90132" y="161.2119"/>
			<point x="51.69527" y="161.00487"/>
			<point x="51.69527" y="161.00389" type="curve"/>
			<point x="40.53023" y="149.72362"/>
			<point x="31.69527" y="136.81542"/>
			<point x="25.83687" y="122.43163" type="curve" smooth="yes"/>
			<point x="18.04292" y="103.29198"/>
			<point x="15.91011" y="81.84081"/>
			<point x="20.12398" y="61.60936" type="curve" smooth="yes"/>
			<point x="23.59175" y="44.96092"/>
			<point x="31.25679" y="29.26463"/>
			<point x="41.88179" y="15.98826" type="curve" smooth="yes"/>
			<point x="44.62105" y="12.56541"/>
			<point x="47.55269" y="9.30271"/>
			<point x="50.64839" y="6.20408" type="curve" smooth="yes"/>
			<point x="50.70699" y="6.14548" type="line"/>
			<point x="50.70699" y="6.14548"/>
			<point x="57.71969" y="-0.86819"/>
			<point x="57.77829" y="-0.92679" type="curve" smooth="yes"/>
			<point x="57.83786" y="-0.98539"/>
			<point x="57.77926" y="-0.92777"/>
			<point x="57.83786" y="-0.98637" type="curve" smooth="yes"/>
			<point x="57.89841" y="-1.04594" type="line"/>
			<point x="57.95798" y="-1.10551" type="line" smooth="yes"/>
			<point x="66.81247" y="-9.92191"/>
			<point x="77.00387" y="-17.40726"/>
			<point x="87.93063" y="-23.49222" type="curve" smooth="yes"/>
			<point x="117.6445" y="-40.03617"/>
			<point x="152.18747" y="-46.59672"/>
			<point x="186.19528" y="-46.71195" type="curve" smooth="yes"/>
			<point x="220.45798" y="-46.82816"/>
			<point x="255.30661" y="-40.41605"/>
			<point x="285.32126" y="-23.89066" type="curve" smooth="yes"/>
			<point x="296.54685" y="-17.71"/>
			<point x="307.00876" y="-10.05863"/>
			<point x="316.06442" y="-1.0098" type="curve" smooth="yes"/>
			<point x="400.91696" y="83.84274" type="line" smooth="yes"/>
			<point x="401.11423" y="84.04001"/>
			<point x="401.35935" y="84.28611"/>
			<point x="401.35935" y="84.28709" type="curve"/>
			<point x="404.48142" y="87.4492"/>
			<point x="407.01365" y="90.291"/>
			<point x="409.56736" y="93.46385" type="curve" smooth="yes"/>
			<point x="420.30955" y="106.80858"/>
			<point x="428.0576" y="122.61913"/>
			<point x="431.54783" y="139.39061" type="curve" smooth="yes"/>
			<point x="435.78416" y="159.74803"/>
			<point x="433.59959" y="181.3369"/>
			<point x="425.69725" y="200.5703" type="curve" smooth="yes"/>
			<point x="419.75389" y="215.03514"/>
			<point x="410.69334" y="228.10545"/>
			<point x="399.62303" y="239.17772" type="curve" smooth="yes"/>
			<point x="392.43163" y="246.36912" type="line"/>
			<point x="392.37011" y="246.43064" type="line"/>
			<point x="392.31151" y="246.48924" type="line" smooth="yes"/>
			<point x="388.73241" y="250.05076"/>
			<point x="384.9453" y="253.4033"/>
			<point x="380.98729" y="256.5283" type="curve" smooth="yes"/>
			<point x="369.20671" y="265.82933"/>
			<point x="356.10509" y="273.14933"/>
			<point x="342.21533" y="278.6997" type="curve"/>
			<point x="388.36913" y="324.8535" type="line" smooth="yes"/>
			<point x="393.20409" y="329.6953"/>
			<point x="397.57323" y="334.98925"/>
			<point x="401.34276" y="340.70409" type="curve" smooth="yes"/>
			<point x="410.37596" y="354.40233"/>
			<point x="415.82908" y="370.49901"/>
			<point x="416.54783" y="386.89061" type="curve" smooth="yes"/>
			<point x="417.25974" y="403.13963"/>
			<point x="413.3115" y="419.5117"/>
			<point x="405.61033" y="433.8369" type="curve" smooth="yes"/>
			<point x="400.86131" y="442.66893"/>
			<point x="394.73338" y="450.70995"/>
			<point x="387.64061" y="457.80761" type="curve" smooth="yes"/>
			<point x="380.45018" y="464.99706" type="line"/>
			<point x="380.38963" y="465.05761" type="line"/>
			<point x="380.33006" y="465.11621" type="line" smooth="yes"/>
			<point x="375.98631" y="469.4375"/>
			<point x="371.28319" y="473.40625"/>
			<point x="366.31639" y="476.9873" type="curve" smooth="yes"/>
			<point x="339.9326" y="496.01269"/>
			<point x="306.9785" y="504.40527"/>
			<point x="274.47655" y="505.71191" type="curve" smooth="yes"/>
			<point x="239.70995" y="507.10937"/>
			<point x="203.73729" y="500.54589"/>
			<point x="174.58202" y="481.55566" type="curve" smooth="yes"/>
			<point x="167.88866" y="477.19628"/>
			<point x="161.61229" y="472.15624"/>
			<point x="155.95995" y="466.50878" type="curve" smooth="yes"/>
			<point x="71.10741" y="381.65624" type="line" smooth="yes"/>
			<point x="70.95214" y="381.50194"/>
			<point x="70.75976" y="381.3076"/>
			<point x="70.75976" y="381.3076" type="curve"/>
			<point x="64.08007" y="374.55272"/>
			<point x="58.55468" y="367.32127"/>
			<point x="54.07812" y="359.28709" type="curve" smooth="yes"/>
			<point x="45.61035" y="344.08885"/>
			<point x="41.44726" y="326.46678"/>
			<point x="42.62402" y="309.10838" type="curve" smooth="yes"/>
			<point x="43.67578" y="293.59666"/>
			<point x="48.94336" y="278.44334"/>
			<point x="57.39551" y="265.39354" type="curve" smooth="yes"/>
			<point x="61.33985" y="259.30272"/>
			<point x="65.95411" y="253.67284"/>
			<point x="71.08204" y="248.541" type="curve" smooth="yes"/>
		</contour>
		<contour>
			<point x="194.41979" y="200.67706" type="line" smooth="yes"/>
			<point x="233.37053" y="199.48109"/>
			<point x="272.71393" y="188.67869"/>
			<point x="303.20604" y="164.60449" type="curve" smooth="yes"/>
			<point x="305.93553" y="162.44922"/>
			<point x="308.60252" y="160.16895"/>
			<point x="311.14647" y="157.8125" type="curve"/>
			<point x="320.59764" y="147.5918"/>
			<point x="328.46483" y="135.70801"/>
			<point x="333.77343" y="122.78906" type="curve" smooth="yes"/>
			<point x="341.67577" y="103.55566"/>
			<point x="343.86034" y="81.96679"/>
			<point x="339.62401" y="61.60937" type="curve" smooth="yes"/>
			<point x="339.30077" y="60.05761"/>
			<point x="338.99022" y="58.71484"/>
			<point x="338.56346" y="57.04492" type="curve"/>
			<point x="315.07225" y="48.68359"/>
			<point x="289.23924" y="45.12597"/>
			<point x="263.97654" y="45.21191" type="curve" smooth="yes"/>
			<point x="229.96873" y="45.32714"/>
			<point x="195.42674" y="51.88769"/>
			<point x="165.71287" y="68.43164" type="curve" smooth="yes"/>
			<point x="156.15721" y="73.75293"/>
			<point x="147.26268" y="80.06543"/>
			<point x="139.17186" y="87.52832" type="curve"/>
			<point x="137.45213" y="89.39355"/>
			<point x="135.50389" y="91.64843"/>
			<point x="133.80565" y="93.7705" type="curve" smooth="yes"/>
			<point x="123.18065" y="107.04687"/>
			<point x="115.51561" y="122.74316"/>
			<point x="112.04784" y="139.3916" type="curve" smooth="yes"/>
			<point x="108.68358" y="155.54394"/>
			<point x="109.35448" y="172.41796"/>
			<point x="113.7412" y="188.3789" type="curve"/>
			<point x="136.38768" y="196.74706"/>
			<point x="161.65721" y="200.70018"/>
			<point x="186.1953" y="200.78807" type="curve" smooth="yes"/>
			<point x="188.93152" y="200.70236"/>
			<point x="191.67427" y="200.66456"/>
			<point x="194.41977" y="200.67706" type="curve" smooth="yes"/>
		</contour>
	</outline>
</glyph>
<glyph name="nine" format="2">
	<advance width="415"/>
	<unicode hex="0039"/>
	<outline>
		<contour>
			<point x="300.35938" y="204.80469" type="line"/>
			<point x="299.71192" y="202.32227"/>
			<point x="299.11231" y="200.30274"/>
			<point x="298.30762" y="197.81055" type="curve"/>
			<point x="275.73926" y="190.59571"/>
			<point x="250.78711" y="189.10059"/>
			<point x="227.35938" y="194.08692" type="curve" smooth="yes"/>
			<point x="200.57715" y="199.78712"/>
			<point x="175.75195" y="213.47169"/>
			<point x="155.79394" y="232.23048" type="curve"/>
			<point x="151.38574" y="236.92384"/>
			<point x="147.11523" y="242.05274"/>
			<point x="143.2666" y="247.31348" type="curve" smooth="yes"/>
			<point x="121.2705" y="277.38184"/>
			<point x="109.60448" y="314.7627"/>
			<point x="109.93065" y="352.01563" type="curve" smooth="yes"/>
			<point x="110.10643" y="372.09766"/>
			<point x="113.83592" y="392.33301"/>
			<point x="120.98045" y="410.96191" type="curve"/>
			<point x="123.78709" y="411.94629"/>
			<point x="127.03025" y="412.96582"/>
			<point x="130.0781" y="413.78809" type="curve" smooth="yes"/>
			<point x="153.85056" y="420.19922"/>
			<point x="179.42868" y="419.63184"/>
			<point x="202.95407" y="412.36817" type="curve" smooth="yes"/>
			<point x="223.36716" y="406.06446"/>
			<point x="242.06443" y="394.8711"/>
			<point x="257.72166" y="380.23829" type="curve"/>
			<point x="291.18943" y="344.44337"/>
			<point x="305.88279" y="293.34181"/>
			<point x="304.50681" y="244.23439" type="curve" smooth="yes"/>
			<point x="304.31736" y="237.48732"/>
			<point x="303.8574" y="230.76271"/>
			<point x="303.13963" y="224.07033" type="curve" smooth="yes"/>
			<point x="302.41502" y="217.31643"/>
			<point x="301.59275" y="211.48245"/>
			<point x="300.35935" y="204.80472" type="curve"/>
		</contour>
		<contour>
			<point x="339.08298" y="468.70218" type="line"/>
			<point x="339.02146" y="468.7637" type="line"/>
			<point x="338.95798" y="468.8262" type="line"/>
			<point x="338.89938" y="468.88577" type="line" smooth="yes"/>
			<point x="322.65426" y="485.06839"/>
			<point x="302.63766" y="497.52933"/>
			<point x="280.73629" y="504.29203" type="curve" smooth="yes"/>
			<point x="257.20992" y="511.5557"/>
			<point x="231.6318" y="512.12308"/>
			<point x="207.85934" y="505.71195" type="curve" smooth="yes"/>
			<point x="185.04" y="499.55863"/>
			<point x="164.17281" y="486.98636"/>
			<point x="147.44234" y="470.26077" type="curve" smooth="yes"/>
			<point x="62.58882" y="385.40823" type="line" smooth="yes"/>
			<point x="62.46284" y="385.28225"/>
			<point x="62.30561" y="385.12405"/>
			<point x="62.30561" y="385.12405" type="curve"/>
			<point x="56.15229" y="378.92581"/>
			<point x="50.79877" y="372.4678"/>
			<point x="45.98627" y="365.48342" type="curve" smooth="yes"/>
			<point x="27.66596" y="338.89846"/>
			<point x="18.28901" y="306.51956"/>
			<point x="18.00678" y="274.2344" type="curve" smooth="yes"/>
			<point x="17.68061" y="236.98147"/>
			<point x="29.34663" y="199.59963"/>
			<point x="51.34273" y="169.53127" type="curve" smooth="yes"/>
			<point x="56.16988" y="162.93264"/>
			<point x="61.51363" y="156.70022"/>
			<point x="67.30074" y="150.90823" type="curve" smooth="yes"/>
			<point x="74.43355" y="143.77542" type="line"/>
			<point x="74.5566" y="143.65237" type="line"/>
			<point x="74.62105" y="143.58792" type="line"/>
			<point x="74.67965" y="143.52932" type="line" smooth="yes"/>
			<point x="95.21481" y="123.08792"/>
			<point x="121.27829" y="108.18655"/>
			<point x="149.57809" y="102.16311" type="curve" smooth="yes"/>
			<point x="189.34079" y="93.70022"/>
			<point x="232.87204" y="103.67288"/>
			<point x="264.22458" y="129.55178" type="curve" smooth="yes"/>
			<point x="267.30563" y="132.09573"/>
			<point x="270.26071" y="134.78713"/>
			<point x="273.08102" y="137.61135" type="curve" smooth="yes"/>
			<point x="284.26462" y="148.79495" type="line"/>
			<point x="274.73239" y="124.62796"/>
			<point x="262.26169" y="101.50296"/>
			<point x="247.73142" y="80.10843" type="curve" smooth="yes"/>
			<point x="245.20115" y="76.38284"/>
			<point x="242.79295" y="72.96389"/>
			<point x="239.99705" y="69.1426" type="curve"/>
			<point x="229.09178" y="61.1094"/>
			<point x="216.98826" y="53.08889"/>
			<point x="204.85936" y="45.96194" type="curve"/>
			<point x="120.00682" y="-38.8906" type="line"/>
			<point x="127.07811" y="-45.96189" type="line"/>
			<point x="156.59862" y="-28.61423"/>
			<point x="183.94335" y="-7.51071"/>
			<point x="208.14843" y="16.70413" type="curve" smooth="yes"/>
			<point x="293.00097" y="101.55667" type="line" smooth="yes"/>
			<point x="310.26659" y="118.82913"/>
			<point x="325.93358" y="137.68558"/>
			<point x="339.65526" y="157.88968" type="curve" smooth="yes"/>
			<point x="359.57225" y="187.21683"/>
			<point x="375.55077" y="219.62015"/>
			<point x="385.44042" y="253.61234" type="curve" smooth="yes"/>
			<point x="388.25585" y="263.29007"/>
			<point x="390.49706" y="272.64749"/>
			<point x="392.27538" y="282.54788" type="curve"/>
			<point x="394.05663" y="289.12503"/>
			<point x="395.11913" y="295.04593"/>
			<point x="395.85741" y="301.81448" type="curve" smooth="yes"/>
			<point x="396.5869" y="308.51468"/>
			<point x="396.791" y="315.2432"/>
			<point x="396.4326" y="321.98636" type="curve" smooth="yes"/>
			<point x="396.43065" y="322.01566" type="line"/>
			<point x="397.80955" y="371.23929"/>
			<point x="383.19627" y="422.22757"/>
			<point x="349.51951" y="458.1553" type="curve" smooth="yes"/>
			<point x="348.4365" y="459.31057"/>
			<point x="347.33494" y="460.44924"/>
			<point x="346.21482" y="461.57034" type="curve" smooth="yes"/>
		</contour>
	</outline>
</glyph>
<glyph name="colon" format="2">
	<advance width="230"/>
	<unicode hex="003A"/>
	<outline>
		<contour>
			<point x="33.3086" y="83.75098" type="line"/>
			<point x="119.24805" y="0" type="line"/>
			<point x="203" y="85.94043" type="line"/>
			<point x="117.05957" y="169.69141" type="line"/>
		</contour>
		<contour>
			<point x="33.30859" y="413.75098" type="line"/>
			<point x="119.24804" y="330" type="line"/>
			<point x="202.99999" y="415.94043" type="line"/>
			<point x="117.05956" y="499.69141" type="line"/>
		</contour>
	</outline>
</glyph>
<glyph name="semicolon" format="2">
	<advance width="188"/>
	<unicode hex="003B"/>
	<outline>
		<contour>
			<point x="166.71094" y="415.29004" type="line"/>
			<point x="96" y="486" type="line"/>
			<point x="25.29004" y="415.29004" type="line"/>
			<point x="96" y="344.5791" type="line"/>
		</contour>
		<contour>
			<point x="166.71094" y="91.29004" type="line"/>
			<point x="96" y="162" type="line"/>
			<point x="25.29004" y="91.29004" type="line"/>
			<point x="81.81641" y="35.38672" type="line"/>
			<point x="46.31641" y="-1.61328" type="line"/>
			<point x="58.31641" y="-14.11328" type="line"/>
		</contour>
	</outline>
</glyph>
<glyph name="less" format="2">
	<advance width="434"/>
	<unicode hex="003C"/>
	<outline>
		<contour>
			<point x="405.76562" y="22.60449" type="line"/>
			<point x="398.69433" y="29.67578" type="line"/>
			<point x="89.50976" y="234.46777" type="line"/>
			<point x="349.19628" y="406.47558" type="line"/>
			<point x="405.76562" y="463.04394" type="line"/>
			<point x="398.69433" y="470.11523" type="line"/>
			<point x="66.21874" y="249.8955" type="line"/>
			<point x="9.65038" y="193.32714" type="line"/>
			<point x="16.72167" y="186.25585" type="line"/>
			<point x="349.19726" y="-33.96388" type="line"/>
		</contour>
	</outline>
</glyph>
<glyph name="equal" format="2">
	<advance width="396"/>
	<unicode hex="003D"/>
	<outline>
		<contour>
			<point x="19.36621" y="275.15332" type="line"/>
			<point x="25.10156" y="266.96094" type="line"/>
			<point x="311.10156" y="266.96094" type="line"/>
			<point x="376.63379" y="312.84766" type="line"/>
			<point x="370.89844" y="321.03906" type="line"/>
			<point x="84.89844" y="321.03906" type="line"/>
		</contour>
		<contour>
			<point x="19.36621" y="175.15332" type="line"/>
			<point x="25.10156" y="166.96094" type="line"/>
			<point x="311.10156" y="166.96094" type="line"/>
			<point x="376.63379" y="212.84766" type="line"/>
			<point x="370.89844" y="221.03906" type="line"/>
			<point x="84.89844" y="221.03906" type="line"/>
		</contour>
	</outline>
</glyph>
<glyph name="greater" format="2">
	<advance width="420"/>
	<unicode hex="003E"/>
	<outline>
		<contour>
			<point x="9.64941" y="-26.89355" type="line"/>
			<point x="16.7207" y="-33.96484" type="line"/>
			<point x="349.19726" y="186.25586" type="line"/>
			<point x="405.76562" y="242.82422" type="line"/>
			<point x="398.69433" y="249.89551" type="line"/>
			<point x="66.21874" y="470.11524" type="line"/>
			<point x="9.65038" y="413.5459" type="line"/>
			<point x="16.72167" y="406.47559" type="line"/>
			<point x="325.90624" y="201.68262" type="line"/>
			<point x="66.21776" y="29.67481" type="line"/>
		</contour>
	</outline>
</glyph>
<glyph name="question" format="2">
	<advance width="180"/>
	<unicode hex="003F"/>
	<outline>
		<contour>
			<point x="78.89844" y="252.03906" type="line"/>
			<point x="13.36621" y="206.15332" type="line"/>
			<point x="14.43457" y="204.01367"/>
			<point x="15.66211" y="201.9541"/>
			<point x="17.03125" y="199.99414" type="curve" smooth="yes"/>
			<point x="22.76758" y="191.80274" type="line"/>
			<point x="22.76758" y="191.80274"/>
			<point x="22.79102" y="191.76856"/>
			<point x="22.84278" y="191.69532" type="curve" smooth="yes"/>
			<point x="22.91407" y="191.59278" type="line" smooth="yes"/>
			<point x="26.80567" y="186.08106"/>
			<point x="31.82032" y="181.36133"/>
			<point x="37.57911" y="177.84571" type="curve" smooth="yes"/>
			<point x="45.45216" y="173.03809"/>
			<point x="54.69044" y="170.4961"/>
			<point x="63.91505" y="170.60059" type="curve" smooth="yes"/>
			<point x="73.13868" y="170.70411"/>
			<point x="82.31837" y="173.45216"/>
			<point x="90.08107" y="178.43556" type="curve" smooth="yes"/>
			<point x="90.66115" y="178.80666"/>
			<point x="91.23244" y="179.19143"/>
			<point x="91.79494" y="179.58694" type="curve" smooth="yes"/>
			<point x="157.32717" y="225.47366" type="line" smooth="yes"/>
			<point x="164.30666" y="230.38479"/>
			<point x="169.99221" y="237.12698"/>
			<point x="173.63381" y="244.84671" type="curve" smooth="yes"/>
			<point x="178.70998" y="255.60648"/>
			<point x="179.74025" y="268.05277"/>
			<point x="177.47853" y="279.73148" type="curve" smooth="yes"/>
			<point x="175.42091" y="290.35941"/>
			<point x="170.73536" y="300.3682"/>
			<point x="164.51954" y="309.24808" type="curve" smooth="yes"/>
			<point x="158.78419" y="317.43948" type="line"/>
			<point x="158.70802" y="317.54788" type="line"/>
			<point x="158.63673" y="317.65042" type="line" smooth="yes"/>
			<point x="158.06935" y="318.45608"/>
			<point x="157.48927" y="319.25198"/>
			<point x="156.89747" y="320.03909" type="curve" smooth="yes"/>
			<point x="147.18165" y="332.95901"/>
			<point x="134.46681" y="343.23831"/>
			<point x="122.54005" y="354.15237" type="curve" smooth="yes"/>
			<point x="115.93751" y="360.19436"/>
			<point x="109.20411" y="366.89163"/>
			<point x="103.85255" y="373.73831" type="curve"/>
			<point x="101.78126" y="377.09866"/>
			<point x="100.11036" y="380.29983"/>
			<point x="98.6338" y="383.84768" type="curve" smooth="yes"/>
			<point x="94.34571" y="394.15139"/>
			<point x="92.92774" y="405.82424"/>
			<point x="94.46876" y="416.71096" type="curve"/>
			<point x="104.81349" y="414.55373"/>
			<point x="114.70314" y="410.40139"/>
			<point x="124.46193" y="406.40334" type="curve" smooth="yes"/>
			<point x="132.05568" y="403.29104"/>
			<point x="139.71584" y="400.25198"/>
			<point x="147.69045" y="398.31643" type="curve" smooth="yes"/>
			<point x="155.66604" y="396.38088"/>
			<point x="164.0137" y="395.57033"/>
			<point x="172.10159" y="396.96095" type="curve" smooth="yes"/>
			<point x="179.19827" y="398.18068"/>
			<point x="185.94632" y="401.10353"/>
			<point x="191.8428" y="405.25099" type="curve" smooth="yes"/>
			<point x="257.37503" y="451.13673" type="line" smooth="yes"/>
			<point x="259.93363" y="452.93653"/>
			<point x="262.33304" y="454.9668"/>
			<point x="264.52933" y="457.18848" type="curve" smooth="yes"/>
			<point x="271.79007" y="464.53028"/>
			<point x="276.88382" y="473.89551"/>
			<point x="279.63382" y="483.84668" type="curve" smooth="yes"/>
			<point x="284.30862" y="500.76465"/>
			<point x="282.10745" y="519.47656"/>
			<point x="273.63382" y="534.84766" type="curve"/>
			<point x="267.89847" y="543.03906" type="line"/>
			<point x="202.36624" y="497.15234" type="line"/>
			<point x="209.89456" y="483.49707"/>
			<point x="212.47659" y="467.32422"/>
			<point x="209.67776" y="451.89356" type="curve"/>
			<point x="209.28421" y="451.97852"/>
			<point x="208.16605" y="452.2295"/>
			<point x="207.48734" y="452.39454" type="curve" smooth="yes"/>
			<point x="199.51175" y="454.33009"/>
			<point x="191.85257" y="457.36818"/>
			<point x="184.25882" y="460.48048" type="curve" smooth="yes"/>
			<point x="169.07034" y="466.70411"/>
			<point x="153.25589" y="473.39259"/>
			<point x="136.89847" y="472.03907" type="curve" smooth="yes"/>
			<point x="128.06644" y="471.30762"/>
			<point x="119.46195" y="468.17969"/>
			<point x="112.14652" y="463.17774" type="curve" smooth="yes"/>
			<point x="111.78812" y="462.93067" type="line"/>
			<point x="46.25589" y="417.04395" type="line" smooth="yes"/>
			<point x="39.10355" y="412.06543"/>
			<point x="33.21488" y="405.30664"/>
			<point x="29.15336" y="397.59473" type="curve" smooth="yes"/>
			<point x="20.89262" y="381.91309"/>
			<point x="20.55571" y="362.51563"/>
			<point x="27.36626" y="346.15235" type="curve" smooth="yes"/>
			<point x="29.43657" y="341.17774"/>
			<point x="32.09575" y="336.52247"/>
			<point x="35.16215" y="332.12208" type="curve" smooth="yes"/>
			<point x="35.23344" y="332.01954" type="line" smooth="yes"/>
			<point x="35.29301" y="331.93458"/>
			<point x="35.30571" y="331.91603"/>
			<point x="35.30571" y="331.91603" type="curve"/>
			<point x="41.04204" y="323.72463" type="line" smooth="yes"/>
			<point x="47.15142" y="315.00881"/>
			<point x="54.85552" y="307.29397"/>
			<point x="62.74419" y="300.07522" type="curve" smooth="yes"/>
			<point x="74.22857" y="289.56545"/>
			<point x="86.3399" y="279.751"/>
			<point x="95.97467" y="267.43069" type="curve"/>
			<point x="100.64362" y="259.93069"/>
			<point x="104.47858" y="250.98245"/>
			<point x="106.211" y="242.03616" type="curve" smooth="yes"/>
			<point x="107.15436" y="237.16604"/>
			<point x="107.52155" y="232.50295"/>
			<point x="107.2735" y="227.30568" type="curve"/>
			<point x="104.13483" y="228.36525"/>
			<point x="100.47565" y="230.03029"/>
			<point x="97.37604" y="231.92287" type="curve" smooth="yes"/>
			<point x="92.97077" y="234.61232"/>
			<point x="89.09675" y="237.91212"/>
			<point x="85.67976" y="241.86915" type="curve"/>
			<point x="85.38288" y="242.40333"/>
			<point x="84.95808" y="243.19923"/>
			<point x="84.63386" y="243.84767" type="curve"/>
		</contour>
		<contour>
			<point x="159.51863" y="30.4463" type="line"/>
			<point x="88.80769" y="101.15626" type="line"/>
			<point x="18.09773" y="30.4463" type="line"/>
			<point x="88.80769" y="-40.26464" type="line"/>
		</contour>
	</outline>
</glyph>
<glyph name="at" format="2">
	<advance width="574"/>
	<unicode hex="0040"/>
	<outline>
		<contour>
			<point x="266.1836" y="80.21191" type="line"/>
			<point x="265.14063" y="79.36816"/>
			<point x="264.32227" y="78.79492"/>
			<point x="263.50196" y="78.22168" type="curve"/>
			<point x="219.73829" y="42.77148" type="line"/>
			<point x="199.05469" y="54.4248"/>
			<point x="180.65625" y="70.61523"/>
			<point x="166.53711" y="89.54883" type="curve"/>
			<point x="150.66601" y="113.73828"/>
			<point x="141.08789" y="142.12012"/>
			<point x="139.73633" y="171.01856" type="curve" smooth="yes"/>
			<point x="138.6836" y="193.51758"/>
			<point x="142.66407" y="216.30567"/>
			<point x="151.83985" y="236.87501" type="curve" smooth="yes"/>
			<point x="153.46095" y="240.51075"/>
			<point x="155.35939" y="244.26563"/>
			<point x="157.21486" y="247.59864" type="curve"/>
			<point x="178.9883" y="251.99219"/>
			<point x="201.43166" y="252.26953"/>
			<point x="223.67776" y="252.26953" type="curve" smooth="yes"/>
			<point x="266.18166" y="252.26953" type="line"/>
		</contour>
		<contour>
			<point x="407.06056" y="66.77148" type="line"/>
			<point x="391.334" y="46.333"/>
			<point x="370.21681" y="39.95019"/>
			<point x="370.21681" y="39.95019" type="curve"/>
			<point x="370.21681" y="321.09863" type="line"/>
			<point x="364.48048" y="329.29003" type="line"/>
			<point x="316.24025" y="329.29003" type="line" smooth="yes"/>
			<point x="293.71681" y="329.29003"/>
			<point x="271.02931" y="329.01073"/>
			<point x="248.97267" y="324.45507" type="curve" smooth="yes"/>
			<point x="228.74025" y="320.27734"/>
			<point x="209.26369" y="312.57129"/>
			<point x="192.03908" y="300.63281" type="curve"/>
			<point x="192.03908" y="300.63281"/>
			<point x="191.79885" y="300.46582"/>
			<point x="191.60745" y="300.33203" type="curve" smooth="yes"/>
			<point x="93.31057" y="231.50293" type="line" smooth="yes"/>
			<point x="91.97268" y="230.56641"/>
			<point x="90.65432" y="229.6045"/>
			<point x="89.35159" y="228.61817" type="curve" smooth="yes"/>
			<point x="71.39847" y="215.01563"/>
			<point x="56.98245" y="196.80665"/>
			<point x="47.80667" y="176.23731" type="curve" smooth="yes"/>
			<point x="38.63089" y="155.66797"/>
			<point x="34.65042" y="132.87988"/>
			<point x="35.70315" y="110.38086" type="curve" smooth="yes"/>
			<point x="37.08401" y="80.86816"/>
			<point x="47.04299" y="51.89355"/>
			<point x="63.52541" y="27.37207" type="curve" smooth="yes"/>
			<point x="64.05861" y="26.58008"/>
			<point x="64.59767" y="25.79199"/>
			<point x="65.14455" y="25.00879" type="curve" smooth="yes"/>
			<point x="65.19143" y="24.94043"/>
			<point x="65.14455" y="25.00781"/>
			<point x="65.19338" y="24.93945" type="curve" smooth="yes"/>
			<point x="71.07815" y="16.53222" type="line" smooth="yes"/>
			<point x="87.41604" y="-6.78614"/>
			<point x="109.71096" y="-25.89259"/>
			<point x="135.2383" y="-38.51075" type="curve"/>
			<point x="233.53713" y="30.31933" type="line"/>
			<point x="266.18361" y="56.76269" type="line"/>
			<point x="266.18361" y="-30.31836" type="line"/>
			<point x="271.91799" y="-38.50976" type="line"/>
			<point x="300.92971" y="-31.62499"/>
			<point x="328.52932" y="-19.04784"/>
			<point x="352.94924" y="-1.94725" type="curve" smooth="yes"/>
			<point x="451.24807" y="66.88185" type="line" smooth="yes"/>
			<point x="474.62697" y="83.25295"/>
			<point x="495.09377" y="103.77053"/>
			<point x="511.09572" y="127.4092" type="curve" smooth="yes"/>
			<point x="543.81056" y="175.7383"/>
			<point x="557.61525" y="237.02248"/>
			<point x="546.51564" y="294.31838" type="curve" smooth="yes"/>
			<point x="541.209" y="321.71975"/>
			<point x="529.92189" y="347.90041"/>
			<point x="513.93361" y="370.74611" type="curve" smooth="yes"/>
			<point x="508.14845" y="379.00783" type="line"/>
			<point x="508.05079" y="379.14845" type="line"/>
			<point x="507.99806" y="379.22072" type="line"/>
			<point x="507.95118" y="379.28908" type="line" smooth="yes"/>
			<point x="492.11329" y="401.81935"/>
			<point x="471.69532" y="421.0879"/>
			<point x="447.92774" y="435.0547" type="curve" smooth="yes"/>
			<point x="423.95118" y="449.14552"/>
			<point x="397.0879" y="457.98048"/>
			<point x="369.6504" y="462.51954" type="curve" smooth="yes"/>
			<point x="342.21485" y="467.05763"/>
			<point x="314.27149" y="467.31056"/>
			<point x="286.46094" y="467.31056" type="curve" smooth="yes"/>
			<point x="127.30078" y="467.31056" type="line"/>
			<point x="29.00195" y="398.48146" type="line"/>
			<point x="34.73828" y="390.29006" type="line"/>
			<point x="193.89844" y="390.29006" type="line" smooth="yes"/>
			<point x="221.70899" y="390.28908"/>
			<point x="249.65235" y="390.03713"/>
			<point x="277.0879" y="385.49807" type="curve" smooth="yes"/>
			<point x="304.5254" y="380.95998"/>
			<point x="331.38868" y="372.12502"/>
			<point x="355.36524" y="358.0342" type="curve" smooth="yes"/>
			<point x="377.80469" y="344.8467"/>
			<point x="397.24219" y="326.95217"/>
			<point x="412.68555" y="306.02053" type="curve" smooth="yes"/>
			<point x="427.13672" y="284.25295"/>
			<point x="437.49219" y="259.44045"/>
			<point x="442.48242" y="233.68068" type="curve" smooth="yes"/>
			<point x="453.58203" y="176.38478"/>
			<point x="442.6543" y="113.02248"/>
			<point x="407.06055" y="66.7715" type="curve"/>
		</contour>
	</outline>
</glyph>
<glyph name="A" format="2">
	<advance width="664"/>
	<unicode hex="0041"/>
	<outline>
		<contour>
			<point x="200.01367" y="568.52539" type="line" smooth="yes"/>
			<point x="120.60521" y="501.89389"/>
			<point x="102.41016" y="461.01855"/>
			<point x="95.64649" y="446.52539" type="curve" smooth="yes"/>
			<point x="58.18596" y="366.25514"/>
			<point x="86.88184" y="303.94336"/>
			<point x="47.64649" y="224.52539" type="curve" smooth="yes"/>
			<point x="38.91211" y="206.8457"/>
			<point x="23.42969" y="188.14453"/>
			<point x="6.91114" y="171.23242" type="curve"/>
			<point x="-77.35351" y="100.52539" type="line"/>
			<point x="-70.92578" y="92.86523" type="line"/>
			<point x="33.35059" y="70.53222"/>
			<point x="116.50684" y="44.83886"/>
			<point x="192.07422" y="8.86523" type="curve"/>
			<point x="284" y="85.99902" type="line"/>
			<point x="277.57129" y="93.66015" type="line"/>
			<point x="205.75" y="127.85058"/>
			<point x="127.0293" y="152.76464"/>
			<point x="29.85547" y="174.32812" type="curve"/>
			<point x="66.60937" y="205.16894" type="line" smooth="yes"/>
			<point x="95.71777" y="229.57812"/>
			<point x="130.74902" y="263.12988"/>
			<point x="146" y="294" type="curve" smooth="yes"/>
			<point x="185.23535" y="373.41699"/>
			<point x="156.54004" y="435.72949"/>
			<point x="194" y="516" type="curve" smooth="yes"/>
			<point x="194.17676" y="516.3789"/>
			<point x="194.35742" y="516.75683"/>
			<point x="194.54297" y="517.13476" type="curve"/>
			<point x="196.36136" y="518.66058"/>
			<point x="198.18509" y="520.19136"/>
			<point x="200.01367" y="521.72659" type="curve"/>
			<point x="200.01367" y="279.36425" type="line"/>
			<point x="185.13965" y="266.8828"/>
			<point x="165.66895" y="250.50096"/>
			<point x="149.01368" y="236.52537" type="curve"/>
			<point x="155.44239" y="228.86521" type="line"/>
			<point x="206.44141" y="264.86521" type="line"/>
			<point x="298.36719" y="341.99998" type="line"/>
			<point x="298.36719" y="638" type="line"/>
			<point x="291.93946" y="645.66014" type="line"/>
		</contour>
		<contour>
			<point x="562.90137" y="5.5078" type="line"/>
			<point x="563.17188" y="5.18651" type="line"/>
			<point x="563.44141" y="4.86522" type="line"/>
			<point x="655.36719" y="81.99999" type="line"/>
			<point x="654.2959" y="83.27636" type="line" smooth="yes"/>
			<point x="638.6084" y="102.06933"/>
			<point x="624.88379" y="122.42382"/>
			<point x="613.36719" y="143.99999" type="curve" smooth="yes"/>
			<point x="599.22071" y="170.50389"/>
			<point x="588.44044" y="198.80174"/>
			<point x="581.36622" y="227.99901" type="curve" smooth="yes"/>
			<point x="563.89845" y="300.10448"/>
			<point x="560.35548" y="374.84569"/>
			<point x="547.42188" y="447.90038" type="curve" smooth="yes"/>
			<point x="534.48926" y="520.95507"/>
			<point x="523.91602" y="596.34472"/>
			<point x="489.36719" y="662" type="curve" smooth="yes"/>
			<point x="481.76074" y="676.45409"/>
			<point x="472.60547" y="690.09081"/>
			<point x="462.12793" y="702.62108" type="curve" smooth="yes"/>
			<point x="462.02051" y="702.74998" type="line"/>
			<point x="455.43067" y="710.6035" type="line" smooth="yes"/>
			<point x="447.91602" y="719.55858"/>
			<point x="439.72364" y="727.94628"/>
			<point x="430.93946" y="735.66015" type="curve" smooth="yes"/>
			<point x="379.28419" y="781.01953"/>
			<point x="306.66505" y="801.44336"/>
			<point x="238.93946" y="789.66016" type="curve"/>
			<point x="48.93946" y="639.66016" type="line"/>
			<point x="-42.98632" y="562.52539" type="line"/>
			<point x="-36.55859" y="554.86523" type="line"/>
			<point x="153.44141" y="704.86523" type="line"/>
			<point x="221.16797" y="716.64843"/>
			<point x="293.78613" y="696.2246"/>
			<point x="345.4414" y="650.86522" type="curve" smooth="yes"/>
			<point x="352.97949" y="644.24608"/>
			<point x="360.10351" y="637.10057"/>
			<point x="366.70019" y="629.57811" type="curve" smooth="yes"/>
			<point x="375.96289" y="618.041"/>
			<point x="384.12402" y="605.61912"/>
			<point x="391.01367" y="592.52537" type="curve" smooth="yes"/>
			<point x="425.56347" y="526.8701"/>
			<point x="436.13671" y="451.48143"/>
			<point x="449.06933" y="378.42674" type="curve" smooth="yes"/>
			<point x="462.00195" y="305.37108"/>
			<point x="465.54492" y="230.63085"/>
			<point x="483.01367" y="158.52538" type="curve" smooth="yes"/>
			<point x="490.08691" y="129.32714"/>
			<point x="500.86816" y="101.02929"/>
			<point x="515.01367" y="74.52539" type="curve" smooth="yes"/>
			<point x="526.64453" y="52.73535"/>
			<point x="540.5459" y="32.15723"/>
			<point x="556.41895" y="13.2334" type="curve" smooth="yes"/>
		</contour>
	</outline>
</glyph>
<glyph name="glyph85" format="2">
	<advance width="803"/>
	<unicode hex="0042"/>
	<outline>
		<contour>
			<point x="23.03711" y="614.10938" type="line"/>
			<point x="30.10742" y="607.03809" type="line"/>
			<point x="126.10742" y="552.03809" type="line"/>
			<point x="214.66015" y="635.92969" type="line"/>
			<point x="216.51357" y="600.76923"/>
			<point x="219.87" y="565.67629"/>
			<point x="224.15163" y="530.70441" type="curve"/>
			<point x="137.03612" y="444.1084" type="line"/>
			<point x="144.10741" y="437.03809" type="line"/>
			<point x="242.03612" y="360.10938" type="line"/>
			<point x="241.70604" y="332.79493"/>
			<point x="238.00194" y="305.52247"/>
			<point x="231.03612" y="279.10938" type="curve" smooth="yes"/>
			<point x="221.07331" y="241.33156"/>
			<point x="204.13633" y="205.29096"/>
			<point x="181.93264" y="173.38292" type="curve"/>
			<point x="166.70889" y="167.85727"/>
			<point x="152.28094" y="160.18332"/>
			<point x="139.28906" y="150.44922" type="curve"/>
			<point x="139.28906" y="150.44922"/>
			<point x="139.1416" y="150.33789"/>
			<point x="139.02344" y="150.24902" type="curve" smooth="yes"/>
			<point x="43.18653" y="78.03125" type="line" smooth="yes"/>
			<point x="38.98341" y="74.86328"/>
			<point x="34.93751" y="71.47949"/>
			<point x="31.0713" y="67.88379" type="curve"/>
			<point x="37.08888" y="59.89746" type="line"/>
			<point x="62.4756" y="79.02832" type="line"/>
			<point x="82.04797" y="90.85702"/>
			<point x="103.88144" y="98.50816"/>
			<point x="126.34288" y="101.80264" type="curve"/>
			<point x="128.10744" y="100.03808" type="line"/>
			<point x="129.06237" y="100.8272"/>
			<point x="130.01063" y="101.61979"/>
			<point x="130.95306" y="102.41659" type="curve"/>
			<point x="143.26661" y="103.89085"/>
			<point x="155.73431" y="104.0612"/>
			<point x="168.08987" y="102.89843" type="curve" smooth="yes"/>
			<point x="220.75784" y="97.94042"/>
			<point x="268.45511" y="70.87402"/>
			<point x="313.6221" y="43.33496" type="curve" smooth="yes"/>
			<point x="358.79105" y="15.79687"/>
			<point x="405.02933" y="-9.99415"/>
			<point x="453.08988" y="-32.10157" type="curve" smooth="yes"/>
			<point x="503.08988" y="-55.10157" type="line"/>
			<point x="598.92582" y="17.1162" type="line"/>
			<point x="690.92582" y="101.11522" type="line" smooth="yes"/>
			<point x="714.88773" y="122.99412"/>
			<point x="738.74222" y="145.27439"/>
			<point x="758.29788" y="171.16697" type="curve" smooth="yes"/>
			<point x="777.85354" y="197.05955"/>
			<point x="793.01077" y="226.47068"/>
			<point x="800.98636" y="257.92283" type="curve" smooth="yes"/>
			<point x="808.96195" y="289.37498"/>
			<point x="809.72855" y="322.61326"/>
			<point x="803.33793" y="354.42478" type="curve" smooth="yes"/>
			<point x="796.94828" y="386.2363"/>
			<point x="783.54789" y="416.54392"/>
			<point x="764.92582" y="443.11521" type="curve" smooth="yes"/>
			<point x="763.29398" y="445.44333"/>
			<point x="761.62308" y="447.74313"/>
			<point x="759.91312" y="450.01266" type="curve" smooth="yes"/>
			<point x="753.89457" y="457.99899" type="line" smooth="yes"/>
			<point x="753.84477" y="458.06539"/>
			<point x="753.89165" y="458.00289"/>
			<point x="753.84185" y="458.06929" type="curve" smooth="yes"/>
			<point x="753.79205" y="458.13569"/>
			<point x="753.83893" y="458.07221"/>
			<point x="753.78913" y="458.13861" type="curve" smooth="yes"/>
			<point x="753.73835" y="458.20599"/>
			<point x="753.7862" y="458.14251"/>
			<point x="753.7364" y="458.20891" type="curve" smooth="yes"/>
			<point x="753.67976" y="458.28313" type="line"/>
			<point x="753.62996" y="458.34953" type="line" smooth="yes"/>
			<point x="724.12821" y="497.68521"/>
			<point x="682.98469" y="530.36151"/>
			<point x="624.21812" y="548.90199" type="curve"/>
			<point x="709.96005" y="634.89055" type="line"/>
			<point x="702.88876" y="641.96184" type="line"/>
			<point x="702.22372" y="642.44231"/>
			<point x="701.56063" y="642.92571"/>
			<point x="700.8995" y="643.41204" type="curve" smooth="yes"/>
			<point x="688.41415" y="652.57903"/>
			<point x="676.60458" y="662.58489"/>
			<point x="665.4747" y="673.39349" type="curve" smooth="yes"/>
			<point x="636.28036" y="703.45209"/>
			<point x="612.38192" y="739.18451"/>
			<point x="595.96004" y="777.89056" type="curve" smooth="yes"/>
			<point x="578.9532" y="817.97845"/>
			<point x="569.73152" y="861.3515"/>
			<point x="568.96004" y="904.89056" type="curve"/>
			<point x="561.88875" y="911.96185" type="line"/>
			<point x="477.03621" y="827.10931" type="line"/>
			<point x="477.80769" y="783.57025"/>
			<point x="487.02839" y="740.19623"/>
			<point x="504.0362" y="700.10932" type="curve" smooth="yes"/>
			<point x="521.1114" y="659.86127"/>
			<point x="546.10359" y="623.02143"/>
			<point x="577.00691" y="592.10444" type="curve" smooth="yes"/>
			<point x="584.13777" y="584.9726" type="line"/>
			<point x="584.378" y="584.73334" type="line"/>
			<point x="584.43952" y="584.67182" type="line"/>
			<point x="584.49812" y="584.61322" type="line" smooth="yes"/>
			<point x="594.71589" y="574.42572"/>
			<point x="605.58308" y="564.8847"/>
			<point x="617.01081" y="556.08001" type="curve"/>
			<point x="487.6612" y="426.35931" type="line"/>
			<point x="494.73151" y="419.28802" type="line"/>
			<point x="513.24911" y="437.8054" type="line"/>
			<point x="546.15339" y="465.14544" type="line"/>
			<point x="590.91706" y="448.61419"/>
			<point x="631.46979" y="419.39446"/>
			<point x="661.01081" y="381.7802" type="curve" smooth="yes"/>
			<point x="661.64558" y="380.90032"/>
			<point x="662.40046" y="379.84075"/>
			<point x="663.07136" y="378.88372" type="curve" smooth="yes"/>
			<point x="681.69343" y="352.31243"/>
			<point x="695.09382" y="322.00481"/>
			<point x="701.48347" y="290.19329" type="curve" smooth="yes"/>
			<point x="707.87409" y="258.38177"/>
			<point x="707.10749" y="225.14349"/>
			<point x="699.1319" y="193.69134" type="curve" smooth="yes"/>
			<point x="691.15631" y="162.23919"/>
			<point x="675.99908" y="132.82806"/>
			<point x="656.44342" y="106.93548" type="curve" smooth="yes"/>
			<point x="636.88776" y="81.0429"/>
			<point x="613.03327" y="58.76263"/>
			<point x="589.07136" y="36.88373" type="curve" smooth="yes"/>
			<point x="581.77546" y="30.2226" type="line"/>
			<point x="542.90827" y="48.10248" type="line" smooth="yes"/>
			<point x="494.84772" y="70.2099"/>
			<point x="448.60846" y="96.00092"/>
			<point x="403.44049" y="123.53901" type="curve" smooth="yes"/>
			<point x="368.89869" y="144.59971"/>
			<point x="332.87707" y="165.38398"/>
			<point x="294.28405" y="176.21476" type="curve"/>
			<point x="365.96001" y="247.89155" type="line" smooth="yes"/>
			<point x="395.63579" y="277.67671"/>
			<point x="417.04106" y="315.39644"/>
			<point x="428.54399" y="355.83882" type="curve" smooth="yes"/>
			<point x="440.04594" y="396.2812"/>
			<point x="441.19438" y="438.84468"/>
			<point x="441.16801" y="480.89156" type="curve" smooth="yes"/>
			<point x="440.96293" y="805.89351" type="line"/>
			<point x="454.96" y="819.89156" type="line"/>
			<point x="447.88969" y="826.96187" type="line"/>
			<point x="433.88871" y="816.96187" type="line"/>
			<point x="349.03617" y="732.10933" type="line"/>
			<point x="349.24418" y="403.10933" type="line" smooth="yes"/>
			<point x="349.27055" y="361.06245"/>
			<point x="348.12211" y="318.49995"/>
			<point x="336.62016" y="278.05757" type="curve" smooth="yes"/>
			<point x="326.25366" y="241.60979"/>
			<point x="307.84474" y="207.37485"/>
			<point x="282.58783" y="179.16468" type="curve"/>
			<point x="274.47971" y="180.9753"/>
			<point x="266.25643" y="182.31662"/>
			<point x="257.90825" y="183.10249" type="curve" smooth="yes"/>
			<point x="242.40628" y="184.56163"/>
			<point x="226.70056" y="183.90904"/>
			<point x="211.3587" y="181.22287" type="curve"/>
			<point x="235.89262" y="205.75679" type="line" smooth="yes"/>
			<point x="277.47172" y="247.34175"/>
			<point x="307.96" y="300.0107"/>
			<point x="322.96098" y="356.89058" type="curve" smooth="yes"/>
			<point x="329.92582" y="383.30464"/>
			<point x="333.62992" y="410.57612"/>
			<point x="333.96" y="437.89057" type="curve" smooth="yes"/>
			<point x="334.54691" y="486.31147"/>
			<point x="325.91996" y="534.31245"/>
			<point x="319.44828" y="582.30171" type="curve" smooth="yes"/>
			<point x="313.09672" y="629.39839"/>
			<point x="308.16899" y="676.71479"/>
			<point x="306.07622" y="724.19135" type="curve" smooth="yes"/>
			<point x="306.03618" y="725.09076"/>
			<point x="305.99809" y="725.99115"/>
			<point x="305.96" y="726.89056" type="curve"/>
			<point x="298.88969" y="733.96185" type="line"/>
			<point x="203.88969" y="643.96185" type="line"/>
			<point x="107.88969" y="698.96185" type="line"/>
		</contour>
	</outline>
</glyph>
<glyph name="C" format="2">
	<advance width="624"/>
	<unicode hex="0043"/>
	<outline>
		<contour>
			<point x="577.55469" y="549.43555" type="line"/>
			<point x="571.97852" y="557.73731" type="line"/>
			<point x="520.60547" y="592.16407"/>
			<point x="462.72852" y="619.26075"/>
			<point x="401.25879" y="626.03223" type="curve" smooth="yes"/>
			<point x="379.12402" y="628.47071"/>
			<point x="356.46972" y="627.76466"/>
			<point x="334.96093" y="621.99708" type="curve" smooth="yes"/>
			<point x="320.96581" y="618.24415"/>
			<point x="307.0205" y="612.9502"/>
			<point x="295.51562" y="604.17383" type="curve" smooth="yes"/>
			<point x="198.85253" y="530.43653" type="line" smooth="yes"/>
			<point x="198.27665" y="529.99718"/>
			<point x="197.74911" y="529.5591"/>
			<point x="197.26141" y="529.12142" type="curve" smooth="yes"/>
			<point x="119.32324" y="464.70313" type="line" smooth="yes"/>
			<point x="88.61816" y="439.32423"/>
			<point x="60.90527" y="398.70997"/>
			<point x="43.51757" y="362.84767" type="curve" smooth="yes"/>
			<point x="18.97167" y="312.22462"/>
			<point x="7.33007" y="255.0215"/>
			<point x="12.73339" y="199.0215" type="curve" smooth="yes"/>
			<point x="18.00097" y="144.44142"/>
			<point x="40.79785" y="91.12306"/>
			<point x="78.62305" y="51.67189" type="curve" smooth="yes"/>
			<point x="78.68067" y="51.61232"/>
			<point x="78.62501" y="51.66994"/>
			<point x="78.68263" y="51.60939" type="curve" smooth="yes"/>
			<point x="85.80665" y="44.20509" type="line"/>
			<point x="85.86525" y="44.14454" type="line" smooth="yes"/>
			<point x="90.54103" y="39.28712"/>
			<point x="95.44728" y="34.64161"/>
			<point x="100.57618" y="30.23048" type="curve" smooth="yes"/>
			<point x="147.27052" y="-9.92577"/>
			<point x="209.88185" y="-28.88475"/>
			<point x="271.46779" y="-29.06639" type="curve" smooth="yes"/>
			<point x="364.25099" y="-29.33983"/>
			<point x="455.49025" y="8.19142"/>
			<point x="526.38185" y="68.0508" type="curve"/>
			<point x="612.8506" y="151.25685" type="line"/>
			<point x="605.917" y="158.46193" type="line"/>
			<point x="535.02442" y="98.60255"/>
			<point x="443.78516" y="61.07228"/>
			<point x="351.00196" y="61.34474" type="curve" smooth="yes"/>
			<point x="289.417" y="61.52638"/>
			<point x="226.8047" y="80.48536"/>
			<point x="180.11036" y="120.64161" type="curve" smooth="yes"/>
			<point x="176.24513" y="123.96583"/>
			<point x="172.42873" y="127.50196"/>
			<point x="168.86818" y="131.03419" type="curve" smooth="yes"/>
			<point x="132.90627" y="170.15919"/>
			<point x="111.25588" y="221.96681"/>
			<point x="106.13576" y="275.0215" type="curve" smooth="yes"/>
			<point x="100.73244" y="331.0215"/>
			<point x="112.37306" y="388.2256"/>
			<point x="136.91994" y="438.84767" type="curve" smooth="yes"/>
			<point x="138.149" y="441.38249"/>
			<point x="139.41318" y="443.90405"/>
			<point x="140.71089" y="446.41061" type="curve"/>
			<point x="138.50561" y="433.50187"/>
			<point x="137.65328" y="420.33563"/>
			<point x="137.70411" y="407.22853" type="curve" smooth="yes"/>
			<point x="138.01856" y="327.02736"/>
			<point x="161.60547" y="248.88381"/>
			<point x="178.16016" y="170.40822" type="curve"/>
			<point x="183.73731" y="162.10842" type="line"/>
			<point x="283.3418" y="229.0342" type="line"/>
			<point x="266.78614" y="307.50979"/>
			<point x="243.2002" y="385.65334"/>
			<point x="242.88575" y="465.85549" type="curve" smooth="yes"/>
			<point x="242.80372" y="486.75686"/>
			<point x="245.01856" y="507.81057"/>
			<point x="251.35645" y="527.72952" type="curve" smooth="yes"/>
			<point x="253.87305" y="535.63675"/>
			<point x="257.06348" y="543.33792"/>
			<point x="260.92969" y="550.69437" type="curve"/>
			<point x="275.98829" y="552.63773"/>
			<point x="291.87696" y="552.49613"/>
			<point x="307.23243" y="550.80473" type="curve" smooth="yes"/>
			<point x="368.70216" y="544.03422"/>
			<point x="426.57911" y="516.93656"/>
			<point x="477.95216" y="482.5098" type="curve"/>
		</contour>
	</outline>
</glyph>
<glyph name="D" format="2">
	<advance width="650"/>
	<unicode hex="0044"/>
	<outline>
		<contour>
			<point x="618.26758" y="167" type="line"/>
			<point x="627.16016" y="258" type="line" smooth="yes"/>
			<point x="631.98536" y="307.38184"/>
			<point x="636.68751" y="357.52442"/>
			<point x="627.78419" y="406.3379" type="curve" smooth="yes"/>
			<point x="619.78126" y="450.21974"/>
			<point x="599.54884" y="492.29298"/>
			<point x="568.16114" y="523.79396" type="curve" smooth="yes"/>
			<point x="568.10254" y="523.85256"/>
			<point x="568.15918" y="523.79592"/>
			<point x="568.10058" y="523.85452" type="curve" smooth="yes"/>
			<point x="568.0371" y="523.91897" type="line" smooth="yes"/>
			<point x="567.97753" y="523.97757"/>
			<point x="568.03319" y="523.92288"/>
			<point x="567.97459" y="523.98148" type="curve" smooth="yes"/>
			<point x="567.91599" y="524.04008"/>
			<point x="567.97068" y="523.98442"/>
			<point x="567.91208" y="524.04399" type="curve" smooth="yes"/>
			<point x="560.84079" y="531.11528" type="line" smooth="yes"/>
			<point x="557.39059" y="534.5645"/>
			<point x="553.80661" y="537.88774"/>
			<point x="550.08981" y="541.07036" type="curve" smooth="yes"/>
			<point x="511.05465" y="574.49907"/>
			<point x="460.26461" y="591.21391"/>
			<point x="409.52633" y="599.38579" type="curve" smooth="yes"/>
			<point x="358.78805" y="607.55767"/>
			<point x="307.31051" y="609.88872"/>
			<point x="256.08883" y="614.07036" type="curve" smooth="yes"/>
			<point x="60.08981" y="630.07036" type="line" smooth="yes"/>
			<point x="32.08981" y="632.35552"/>
			<point x="4.0068" y="635.09575"/>
			<point x="-23.24125" y="641.93266" type="curve" smooth="yes"/>
			<point x="-50.48832" y="648.7686"/>
			<point x="-76.79008" y="659.49223"/>
			<point x="-100.80375" y="674.07035" type="curve"/>
			<point x="-185.65629" y="589.21781" type="line"/>
			<point x="-178.585" y="582.14652" type="line"/>
			<point x="-154.5723" y="567.5684"/>
			<point x="-128.27054" y="556.84477"/>
			<point x="-101.02249" y="550.00883" type="curve" smooth="yes"/>
			<point x="-73.77542" y="543.17192"/>
			<point x="-45.69144" y="540.43169"/>
			<point x="-17.69242" y="538.14653" type="curve" smooth="yes"/>
			<point x="178.3066" y="522.14653" type="line" smooth="yes"/>
			<point x="194.51783" y="520.8231"/>
			<point x="210.75459" y="519.68502"/>
			<point x="226.98532" y="518.4885" type="curve"/>
			<point x="226.64308" y="518.25231"/>
			<point x="226.30064" y="518.01462"/>
			<point x="225.95797" y="517.77542" type="curve" smooth="yes"/>
			<point x="127.65914" y="448.94632" type="line" smooth="yes"/>
			<point x="77.43648" y="413.75198"/>
			<point x="42.54097" y="356.80569"/>
			<point x="35.28804" y="295.78909" type="curve" smooth="yes"/>
			<point x="30.17281" y="252.75589"/>
			<point x="38.29879" y="208.24027"/>
			<point x="58.28902" y="169.79007" type="curve"/>
			<point x="64.02437" y="161.59769" type="line"/>
			<point x="66.35672" y="163.23082" type="line"/>
			<point x="-1.6563" y="95.2178" type="line"/>
			<point x="5.41499" y="88.14651" type="line"/>
			<point x="61.29292" y="46.99612"/>
			<point x="124.63081" y="16.00784"/>
			<point x="191.41499" y="-2.85349" type="curve" smooth="yes"/>
			<point x="257.19331" y="-21.43064"/>
			<point x="326.27632" y="-28.23728"/>
			<point x="394.41499" y="-22.85349" type="curve"/>
		</contour>
		<contour>
			<point x="86.72461" y="177.49261" type="line"/>
			<point x="162.32222" y="230.42678" type="line"/>
			<point x="142.33296" y="268.87795"/>
			<point x="134.20698" y="313.39357"/>
			<point x="139.32221" y="356.42677" type="curve" smooth="yes"/>
			<point x="141.31537" y="373.19044"/>
			<point x="145.53021" y="390.01856"/>
			<point x="151.33294" y="405.50586" type="curve"/>
			<point x="151.99017" y="385.92871"/>
			<point x="153.64837" y="366.25195"/>
			<point x="156.28802" y="346.78906" type="curve" smooth="yes"/>
			<point x="160.93743" y="312.52929"/>
			<point x="168.64446" y="278.68456"/>
			<point x="179.28801" y="245.78905" type="curve"/>
			<point x="185.02434" y="237.59765" type="line"/>
			<point x="283.32219" y="306.42675" type="line"/>
			<point x="272.67766" y="339.32226"/>
			<point x="264.97161" y="373.16699"/>
			<point x="260.3222" y="407.42676" type="curve" smooth="yes"/>
			<point x="255.43446" y="443.45485"/>
			<point x="253.93127" y="479.94087"/>
			<point x="255.83541" y="516.24827" type="curve"/>
			<point x="281.23943" y="514.13057"/>
			<point x="306.58277" y="511.51445"/>
			<point x="331.74407" y="507.46191" type="curve" smooth="yes"/>
			<point x="382.48235" y="499.29003"/>
			<point x="433.27239" y="482.57421"/>
			<point x="472.30755" y="449.14648" type="curve" smooth="yes"/>
			<point x="474.75189" y="447.05371"/>
			<point x="477.21478" y="444.82812"/>
			<point x="479.48724" y="442.67187" type="curve"/>
			<point x="509.03802" y="411.55077"/>
			<point x="528.13568" y="370.91015"/>
			<point x="535.86029" y="328.55566" type="curve" smooth="yes"/>
			<point x="544.76361" y="279.74316"/>
			<point x="540.06244" y="229.60058"/>
			<point x="535.23627" y="180.21777" type="curve" smooth="yes"/>
			<point x="528.53412" y="111.62695" type="line"/>
			<point x="472.19623" y="69.07031" type="line"/>
			<point x="404.05756" y="63.68652"/>
			<point x="334.97455" y="70.49316"/>
			<point x="269.19721" y="89.07031" type="curve" smooth="yes"/>
			<point x="203.81479" y="107.53575"/>
			<point x="141.73457" y="137.6244"/>
			<point x="86.72459" y="177.49258" type="curve"/>
		</contour>
	</outline>
</glyph>
<glyph name="E" format="2">
	<advance width="642"/>
	<unicode hex="0045"/>
	<outline>
		<contour>
			<point x="19.78809" y="62.10938" type="line"/>
			<point x="26.85938" y="55.03809" type="line"/>
			<point x="68.79102" y="53.37598"/>
			<point x="110.43457" y="46.30274"/>
			<point x="150.85937" y="35.03809" type="curve" smooth="yes"/>
			<point x="204.78906" y="20.00977"/>
			<point x="256.42383" y="-2.25683"/>
			<point x="309.85938" y="-18.96191" type="curve" smooth="yes"/>
			<point x="368.68067" y="-37.35156"/>
			<point x="430.25782" y="-47.85449"/>
			<point x="491.85938" y="-45.96191" type="curve"/>
			<point x="576.71192" y="38.89063" type="line"/>
			<point x="569.64063" y="45.96192" type="line"/>
			<point x="508.03907" y="44.06934"/>
			<point x="446.4629" y="54.57227"/>
			<point x="387.64063" y="72.96192" type="curve" smooth="yes"/>
			<point x="334.20508" y="89.667"/>
			<point x="282.57129" y="111.9336"/>
			<point x="228.64063" y="126.96192" type="curve" smooth="yes"/>
			<point x="188.2168" y="138.22657"/>
			<point x="146.57227" y="145.29981"/>
			<point x="104.64063" y="146.96192" type="curve"/>
		</contour>
		<contour>
			<point x="560.16602" y="663.07325" type="line"/>
			<point x="560.10742" y="663.13282" type="line" smooth="yes"/>
			<point x="546.80566" y="676.42677"/>
			<point x="532.23632" y="688.45314"/>
			<point x="516.64062" y="698.96193" type="curve" smooth="yes"/>
			<point x="482.14257" y="722.20705"/>
			<point x="442.65234" y="738.00295"/>
			<point x="401.64062" y="744.96193" type="curve"/>
			<point x="305.64062" y="666.96193" type="line"/>
			<point x="220.78808" y="582.10939" type="line"/>
			<point x="212.10253" y="527.10451"/>
			<point x="215.44042" y="470.62697"/>
			<point x="226.78808" y="416.10939" type="curve" smooth="yes"/>
			<point x="236.57519" y="369.08693"/>
			<point x="251.37988" y="323.209"/>
			<point x="260.78808" y="276.10939" type="curve" smooth="yes"/>
			<point x="266.97363" y="245.13673"/>
			<point x="270.83301" y="213.67872"/>
			<point x="271.78809" y="182.10938" type="curve"/>
			<point x="278.85938" y="175.03809" type="line"/>
			<point x="363.71192" y="259.89063" type="line"/>
			<point x="362.75684" y="291.46094"/>
			<point x="358.89746" y="322.91797"/>
			<point x="352.71191" y="353.89063" type="curve" smooth="yes"/>
			<point x="343.30371" y="400.99122"/>
			<point x="328.49902" y="446.86817"/>
			<point x="318.71191" y="493.89063" type="curve" smooth="yes"/>
			<point x="308.59277" y="542.50684"/>
			<point x="304.86718" y="592.96289"/>
			<point x="310.31445" y="642.0332" type="curve"/>
			<point x="323.85937" y="653.03808" type="line"/>
			<point x="364.87109" y="646.0791"/>
			<point x="404.36035" y="630.2832"/>
			<point x="438.8584" y="607.03808" type="curve" smooth="yes"/>
			<point x="453.08008" y="597.45507"/>
			<point x="466.54785" y="586.51562"/>
			<point x="478.81543" y="574.6582" type="curve" smooth="yes"/>
			<point x="493.17969" y="559.79687"/>
			<point x="505.87696" y="543.58105"/>
			<point x="516.78809" y="526.10937" type="curve"/>
			<point x="523.85938" y="519.03808" type="line"/>
			<point x="608.71192" y="603.89062" type="line"/>
			<point x="597.01563" y="622.62011"/>
			<point x="583.17969" y="640.00488"/>
			<point x="567.59375" y="655.6455" type="curve" smooth="yes"/>
			<point x="567.53515" y="655.7041" type="line"/>
			<point x="567.47558" y="655.76465" type="line"/>
		</contour>
		<contour>
			<point x="426.28808" y="379.60938" type="line"/>
			<point x="433.35937" y="372.53809" type="line"/>
			<point x="520.35937" y="311.53809" type="line"/>
			<point x="605.21191" y="396.39063" type="line"/>
			<point x="598.14062" y="403.46192" type="line"/>
			<point x="511.14062" y="464.46192" type="line"/>
		</contour>
		<contour>
			<point x="198.99609" y="566.96192" type="line"/>
			<point x="114.14355" y="482.10938" type="line"/>
			<point x="107.7145" y="465.34527"/>
			<point x="103.9616" y="447.70551"/>
			<point x="102.52682" y="429.82326" type="curve"/>
			<point x="46.25" y="371.5" type="line"/>
			<point x="107.4146" y="362.11336" type="line"/>
			<point x="113.4051" y="333.32054"/>
			<point x="122.7668" y="305.20441"/>
			<point x="127.14359" y="276.10939" type="curve" smooth="yes"/>
			<point x="132.95999" y="237.4463"/>
			<point x="128.33694" y="196.71681"/>
			<point x="110.14358" y="162.10939" type="curve"/>
			<point x="117.21487" y="155.0381" type="line"/>
			<point x="202.06741" y="239.89064" type="line"/>
			<point x="220.26077" y="274.49806"/>
			<point x="224.88382" y="315.22853"/>
			<point x="219.06742" y="353.89064" type="curve" smooth="yes"/>
			<point x="214.085" y="387.01174"/>
			<point x="202.64262" y="418.86428"/>
			<point x="197.06742" y="451.89065" type="curve" smooth="yes"/>
			<point x="190.97953" y="487.95608"/>
			<point x="192.97074" y="525.74124"/>
			<point x="206.06742" y="559.89065" type="curve"/>
		</contour>
	</outline>
</glyph>
<glyph name="F" format="2">
	<advance width="558"/>
	<unicode hex="0046"/>
	<outline>
		<contour>
			<point x="31.6875" y="271.10059" type="line"/>
			<point x="37.42383" y="262.90919" type="line"/>
			<point x="37.47168" y="262.84083" type="line" smooth="yes"/>
			<point x="41.64258" y="256.88673"/>
			<point x="46.16016" y="251.15333"/>
			<point x="50.71876" y="245.49024" type="curve" smooth="yes"/>
			<point x="79.17871" y="210.13006" type="line"/>
			<point x="19.98244" y="168.68067" type="line"/>
			<point x="25.71877" y="160.48927" type="line"/>
			<point x="55.71877" y="131.49025" type="line" smooth="yes"/>
			<point x="64.52248" y="122.97951"/>
			<point x="73.24514" y="114.2217"/>
			<point x="80.62795" y="104.51369" type="curve"/>
			<point x="88.52541" y="92.16408"/>
			<point x="94.2383" y="78.1592"/>
			<point x="96.98342" y="63.68166" type="curve" smooth="yes"/>
			<point x="101.43557" y="40.19436"/>
			<point x="98.12991" y="15.37307"/>
			<point x="88.03714" y="-6.29783" type="curve" smooth="yes"/>
			<point x="77.94437" y="-27.96775"/>
			<point x="61.15238" y="-45.68552"/>
			<point x="43.98343" y="-62.31833" type="curve" smooth="yes"/>
			<point x="40.74217" y="-65.45821" type="line"/>
			<point x="-1.74277" y="-53.18476"/>
			<point x="-43.62977" y="-38.84006"/>
			<point x="-84.71871" y="-22.49022" type="curve"/>
			<point x="-183.01754" y="-91.31932" type="line"/>
			<point x="-177.28121" y="-99.51072" type="line"/>
			<point x="-129.26461" y="-118.61717"/>
			<point x="-80.15816" y="-134.98533"/>
			<point x="-30.28121" y="-148.51072" type="curve" smooth="yes"/>
			<point x="3.00297" y="-157.53513"/>
			<point x="37.9141" y="-165.33103"/>
			<point x="71.71879" y="-158.51072" type="curve" smooth="yes"/>
			<point x="89.70414" y="-154.88182"/>
			<point x="106.62992" y="-147.14744"/>
			<point x="121.68558" y="-136.60838" type="curve" smooth="yes"/>
			<point x="219.98343" y="-67.77928" type="line" smooth="yes"/>
			<point x="220.12796" y="-67.67772"/>
			<point x="220.30765" y="-67.55174"/>
			<point x="220.30765" y="-67.55174" type="curve"/>
			<point x="230.35453" y="-60.4658"/>
			<point x="239.29593" y="-52.39256"/>
			<point x="247.30277" y="-43.41111" type="curve" smooth="yes"/>
			<point x="267.63285" y="-20.60545"/>
			<point x="281.61039" y="7.36916"/>
			<point x="290.63871" y="36.55666" type="curve" smooth="yes"/>
			<point x="308.68829" y="94.91416"/>
			<point x="308.01762" y="218.31936"/>
			<point x="308.01762" y="218.31936" type="curve"/>
			<point x="308.01762" y="265.04267"/>
			<point x="308.01727" y="311.76597"/>
			<point x="308.01727" y="358.48928" type="curve"/>
			<point x="418.71879" y="358.48928" type="line"/>
			<point x="517.01664" y="427.31936" type="line"/>
			<point x="511.28129" y="435.51076" type="line"/>
			<point x="443.52654" y="435.51076"/>
			<point x="375.77179" y="435.51012"/>
			<point x="308.01706" y="435.51012" type="curve"/>
			<point x="308.01706" y="490.54029"/>
			<point x="308.01663" y="545.57044"/>
			<point x="308.01663" y="600.60061" type="curve"/>
			<point x="316.06448" y="602.34377"/>
			<point x="324.0635" y="603.07912"/>
			<point x="332.1719" y="602.68947" type="curve" smooth="yes"/>
			<point x="347.00198" y="601.9756"/>
			<point x="361.52249" y="597.44728"/>
			<point x="374.60061" y="590.41896" type="curve" smooth="yes"/>
			<point x="387.67873" y="583.38869"/>
			<point x="399.28615" y="573.96291"/>
			<point x="410.71877" y="564.48928" type="curve" smooth="yes"/>
			<point x="445.71877" y="535.48928" type="line"/>
			<point x="544.01662" y="604.31838" type="line"/>
			<point x="538.28127" y="612.50978" type="line"/>
			<point x="503.28127" y="641.51076" type="line" smooth="yes"/>
			<point x="491.84865" y="650.98342"/>
			<point x="480.24123" y="660.41018"/>
			<point x="467.16311" y="667.43948" type="curve" smooth="yes"/>
			<point x="454.08499" y="674.4678"/>
			<point x="439.56448" y="678.99612"/>
			<point x="424.7344" y="679.70999" type="curve" smooth="yes"/>
			<point x="409.90432" y="680.42386"/>
			<point x="395.00491" y="677.29886"/>
			<point x="381.36331" y="671.43851" type="curve" smooth="yes"/>
			<point x="369.2803" y="666.24808"/>
			<point x="358.23538" y="658.99124"/>
			<point x="347.44632" y="651.44241" type="curve" smooth="yes"/>
			<point x="109.98245" y="486.68069" type="line"/>
			<point x="79.98343" y="457.68167" type="line" smooth="yes"/>
			<point x="62.0098" y="440.30667"/>
			<point x="43.91507" y="422.66995"/>
			<point x="30.50491" y="401.57132" type="curve" smooth="yes"/>
			<point x="17.09671" y="380.47464"/>
			<point x="8.79593" y="355.6514"/>
			<point x="9.98245" y="330.6807" type="curve" smooth="yes"/>
			<point x="10.66507" y="316.32523"/>
			<point x="14.46195" y="302.15824"/>
			<point x="20.79007" y="289.25297" type="curve" smooth="yes"/>
			<point x="23.8555" y="283.00102"/>
			<point x="27.51468" y="277.085"/>
			<point x="31.49613" y="271.37406" type="curve" smooth="yes"/>
			<point x="31.54398" y="271.3057"/>
			<point x="31.4971" y="271.37406"/>
			<point x="31.54398" y="271.3057" type="curve" smooth="yes"/>
			<point x="31.59183" y="271.23734" type="line" smooth="yes"/>
			<point x="31.63968" y="271.16898"/>
			<point x="31.5928" y="271.23734"/>
			<point x="31.63968" y="271.16898" type="curve" smooth="yes"/>
			<point x="31.68753" y="271.10062"/>
			<point x="31.64065" y="271.16898"/>
			<point x="31.68753" y="271.10062" type="curve"/>
		</contour>
		<contour>
			<point x="181.90628" y="169.26371" type="line"/>
			<point x="181.90628" y="169.26371"/>
			<point x="176.2178" y="177.38773"/>
			<point x="176.16995" y="177.45609" type="curve" smooth="yes"/>
			<point x="176.1221" y="177.52445" type="line"/>
			<point x="176.07327" y="177.59379" type="line"/>
			<point x="176.02542" y="177.66215" type="line" smooth="yes"/>
			<point x="168.06546" y="188.97367"/>
			<point x="158.24124" y="198.88285"/>
			<point x="148.28128" y="208.51078" type="curve" smooth="yes"/>
			<point x="123.57243" y="232.39519" type="line"/>
			<point x="182.01663" y="273.31839" type="line"/>
			<point x="176.28128" y="281.50979" type="line"/>
			<point x="143.28128" y="322.51077" type="line" smooth="yes"/>
			<point x="139.81351" y="326.81937"/>
			<point x="136.20609" y="331.3848"/>
			<point x="133.02249" y="335.70609" type="curve"/>
			<point x="129.96292" y="340.34379"/>
			<point x="127.24124" y="344.96195"/>
			<point x="124.82327" y="349.89066" type="curve" smooth="yes"/>
			<point x="123.44555" y="352.70075"/>
			<point x="122.1878" y="355.57065"/>
			<point x="121.05606" y="358.48929" type="curve"/>
			<point x="203.98292" y="358.48929" type="line"/>
			<point x="203.9829" y="291.55342"/>
			<point x="203.9834" y="224.61754"/>
			<point x="203.9834" y="157.68167" type="curve" smooth="yes"/>
			<point x="204.00166" y="96.57815"/>
			<point x="204.67233" y="34.33552"/>
			<point x="186.60449" y="-24.08103" type="curve" smooth="yes"/>
			<point x="180.27441" y="-44.54587"/>
			<point x="171.63379" y="-64.19724"/>
			<point x="159.8457" y="-82.30076" type="curve"/>
			<point x="127.77148" y="-87.5742"/>
			<point x="94.10742" y="-80.11912"/>
			<point x="62.28125" y="-71.48924" type="curve" smooth="yes"/>
			<point x="61.87593" y="-71.37933"/>
			<point x="61.47066" y="-71.26924"/>
			<point x="61.06543" y="-71.15896" type="curve"/>
			<point x="116.0166" y="-32.68162" type="line"/>
			<point x="148.01758" y="-1.68064" type="line" smooth="yes"/>
			<point x="165.18653" y="14.95217"/>
			<point x="181.97852" y="32.66994"/>
			<point x="192.07032" y="54.33986" type="curve" smooth="yes"/>
			<point x="202.16309" y="76.01076"/>
			<point x="205.46973" y="100.83205"/>
			<point x="201.01758" y="124.31935" type="curve" smooth="yes"/>
			<point x="198.19141" y="139.22365"/>
			<point x="192.292" y="153.51174"/>
			<point x="183.98048" y="166.20314" type="curve" smooth="yes"/>
			<point x="183.32032" y="167.21193"/>
			<point x="182.64454" y="168.209"/>
			<point x="181.95411" y="169.19533" type="curve" smooth="yes"/>
		</contour>
		<contour>
			<point x="203.98246" y="537.61902" type="line"/>
			<point x="203.98246" y="503.5826"/>
			<point x="203.98272" y="469.5462"/>
			<point x="203.98272" y="435.5098" type="curve"/>
			<point x="201.28126" y="435.50978" type="line"/>
			<point x="115.9705" y="375.77496" type="line"/>
			<point x="114.92565" y="380.89669"/>
			<point x="114.26497" y="386.09505"/>
			<point x="114.0166" y="391.31838" type="curve" smooth="yes"/>
			<point x="112.83008" y="416.28908"/>
			<point x="121.12988" y="441.11232"/>
			<point x="134.53906" y="462.209" type="curve" smooth="yes"/>
			<point x="147.94922" y="483.30763"/>
			<point x="166.04395" y="500.94435"/>
			<point x="184.01661" y="518.31935" type="curve" smooth="yes"/>
		</contour>
	</outline>
</glyph>
<glyph name="G" format="2">
	<advance width="701"/>
	<unicode hex="0047"/>
	<outline>
		<contour>
			<point x="14" y="286" type="curve" smooth="yes"/>
			<point x="14" y="122"/>
			<point x="159" y="-10"/>
			<point x="326" y="-10" type="curve" smooth="yes"/>
			<point x="410" y="-10"/>
			<point x="485" y="28"/>
			<point x="558" y="101" type="curve" smooth="yes"/>
			<point x="583" y="126" type="line" smooth="yes"/>
			<point x="641" y="184"/>
			<point x="672" y="250"/>
			<point x="672" y="314" type="curve"/>
			<point x="672" y="405"/>
			<point x="585" y="494"/>
			<point x="485" y="494" type="curve"/>
			<point x="386" y="395" type="line"/>
			<point x="393" y="388" type="line"/>
			<point x="407" y="402" type="line"/>
			<point x="508" y="397" name="_p_cornerRadius:12"/>
			<point x="580" y="326"/>
			<point x="580" y="231" type="curve" smooth="yes"/>
			<point x="580" y="196"/>
			<point x="571" y="159"/>
			<point x="557" y="126" type="curve"/>
			<point x="517" y="106"/>
			<point x="462" y="95"/>
			<point x="407" y="95" type="curve" smooth="yes"/>
			<point x="221" y="95"/>
			<point x="117" y="184"/>
			<point x="117" y="373" type="curve" smooth="yes"/>
			<point x="117" y="464"/>
			<point x="152" y="534"/>
			<point x="239" y="625" type="curve" smooth="yes"/>
			<point x="262" y="649" type="line"/>
			<point x="255" y="656" type="line"/>
			<point x="147" y="548" type="line" smooth="yes"/>
			<point x="57" y="458"/>
			<point x="14" y="379"/>
		</contour>
		<contour>
			<point x="196" y="191" type="curve"/>
			<point x="203" y="184" type="line"/>
			<point x="243" y="220" type="line"/>
			<point x="328" y="305" type="line"/>
			<point x="309" y="394"/>
			<point x="300" y="490"/>
			<point x="300" y="604" type="curve" smooth="yes"/>
			<point x="300" y="617"/>
			<point x="302" y="632"/>
			<point x="305" y="647" type="curve"/>
			<point x="336" y="661"/>
			<point x="373" y="668"/>
			<point x="417" y="668" type="curve" smooth="yes"/>
			<point x="518" y="668"/>
			<point x="615" y="579"/>
			<point x="755" y="540" type="curve"/>
			<point x="850" y="625" type="line"/>
			<point x="843" y="632" type="line"/>
			<point x="693" y="668"/>
			<point x="611" y="759"/>
			<point x="477" y="759" type="curve" smooth="yes"/>
			<point x="412" y="759"/>
			<point x="359" y="737"/>
			<point x="313" y="690" type="curve" smooth="yes"/>
			<point x="264" y="640" type="line" smooth="yes"/>
			<point x="224" y="599"/>
			<point x="209" y="568"/>
			<point x="209" y="526" type="curve" smooth="yes"/>
			<point x="209" y="405"/>
			<point x="217" y="309"/>
			<point x="235" y="230" type="curve"/>
			<point x="223" y="218"/>
			<point x="209" y="204"/>
		</contour>
	</outline>
</glyph>
<glyph name="O" format="2">
	<advance width="717"/>
	<unicode hex="004F"/>
	<outline>
		<contour>
			<point x="389.43457" y="30.68848" type="line"/>
			<point x="311.37033" y="39.25132"/>
			<point x="236.79101" y="78.22462"/>
			<point x="187.46191" y="139.33009" type="curve" smooth="yes"/>
			<point x="179.02051" y="149.78614"/>
			<point x="171.25977" y="160.93458"/>
			<point x="164.38087" y="172.39356" type="curve" smooth="yes"/>
			<point x="135.43653" y="224.52344"/>
			<point x="122.13282" y="285.54395"/>
			<point x="128.36622" y="344.88965" type="curve" smooth="yes"/>
			<point x="135.3086" y="410.97949"/>
			<point x="149.87043" y="480.73555"/>
			<point x="215.34278" y="519.44336" type="curve" smooth="yes"/>
			<point x="246.16662" y="537.66667"/>
			<point x="287.34376" y="534.51172"/>
			<point x="323.79786" y="531.29981" type="curve" smooth="yes"/>
			<point x="390.47462" y="525.42383"/>
			<point x="454.59864" y="495.38379"/>
			<point x="502.53809" y="448.66992" type="curve" smooth="yes"/>
			<point x="520.74805" y="430.92578"/>
			<point x="536.65235" y="410.66113"/>
			<point x="549.69141" y="388.92187" type="curve" smooth="yes"/>
			<point x="572.97266" y="347.00292"/>
			<point x="586.26174" y="299.67577"/>
			<point x="587.09278" y="251.78222" type="curve" smooth="yes"/>
			<point x="588.42286" y="175.12792"/>
			<point x="565.20762" y="103.14548"/>
			<point x="520.50001" y="64.49998" type="curve" smooth="yes"/>
			<point x="490.99995" y="38.99998"/>
			<point x="442.35464" y="24.88368"/>
			<point x="389.43458" y="30.68846" type="curve"/>
		</contour>
		<contour>
			<point x="651.16798" y="453.24217" type="line"/>
			<point x="651.12599" y="453.31444" type="line" smooth="yes"/>
			<point x="637.57326" y="476.77928"/>
			<point x="620.86525" y="498.42186"/>
			<point x="601.46095" y="517.33006" type="curve" smooth="yes"/>
			<point x="553.5215" y="564.04393"/>
			<point x="489.39845" y="594.08397"/>
			<point x="422.72169" y="599.95995" type="curve" smooth="yes"/>
			<point x="366.12208" y="604.94725"/>
			<point x="308.13478" y="592.24998"/>
			<point x="258.72951" y="563.84373" type="curve" smooth="yes"/>
			<point x="258.39357" y="563.64939" type="line"/>
			<point x="154.46974" y="503.64939" type="line" smooth="yes"/>
			<point x="145.86818" y="498.68162"/>
			<point x="137.53908" y="493.23826"/>
			<point x="129.5381" y="487.33006" type="curve" smooth="yes"/>
			<point x="68.01955" y="441.9033"/>
			<point x="27.43264" y="369.60447"/>
			<point x="19.44338" y="293.54978" type="curve" smooth="yes"/>
			<point x="13.05178" y="232.69431"/>
			<point x="27.16994" y="170.1699"/>
			<point x="57.67775" y="117.12595" type="curve" smooth="yes"/>
			<point x="57.71877" y="117.05466"/>
			<point x="57.67873" y="117.124"/>
			<point x="57.71975" y="117.05173" type="curve" smooth="yes"/>
			<point x="62.94045" y="108.00974" type="line" smooth="yes"/>
			<point x="70.49611" y="94.92673"/>
			<point x="79.04884" y="82.42478"/>
			<point x="88.53907" y="70.6699" type="curve" smooth="yes"/>
			<point x="137.86817" y="9.56443"/>
			<point x="212.28809" y="-31.00295"/>
			<point x="290.51172" y="-37.9717" type="curve" smooth="yes"/>
			<point x="347.64453" y="-43.06154"/>
			<point x="406.21973" y="-29.78322"/>
			<point x="455.81446" y="-1.15432" type="curve" smooth="yes"/>
			<point x="559.73731" y="58.84568" type="line" smooth="yes"/>
			<point x="578.04297" y="69.41306"/>
			<point x="595.12598" y="82.07126"/>
			<point x="610.46094" y="96.66989" type="curve" smooth="yes"/>
			<point x="665.98926" y="149.52927"/>
			<point x="697.34571" y="226.46775"/>
			<point x="696.01563" y="303.12205" type="curve" smooth="yes"/>
			<point x="695.15821" y="352.51365"/>
			<point x="681.02051" y="401.38084"/>
			<point x="656.38379" y="444.20701" type="curve" smooth="yes"/>
		</contour>
		<contour>
			<point x="271.82324" y="292.26365" type="line"/>
			<point x="278.25097" y="284.60252" type="line"/>
			<point x="335.25097" y="217.60252" type="line"/>
			<point x="427.17577" y="294.73729" type="line"/>
			<point x="420.74804" y="302.39745" type="line"/>
			<point x="363.74804" y="369.39745" type="line"/>
		</contour>
	</outline>
</glyph>
<glyph name="P" format="2">
	<advance width="710"/>
	<unicode hex="0050"/>
	<outline>
		<contour>
			<point x="154.07129" y="-137.96191" type="line"/>
			<point x="160.41358" y="442.271" type="line"/>
			<point x="198.97462" y="480.83204" type="line"/>
			<point x="238.81544" y="513.57911"/>
			<point x="297.19239" y="548.74024"/>
			<point x="366.21778" y="550.07618" type="curve" smooth="yes"/>
			<point x="423.41895" y="551.18263"/>
			<point x="487.92969" y="524.21193"/>
			<point x="535.91407" y="478.0215" type="curve" smooth="yes"/>
			<point x="575.6211" y="436.75392"/>
			<point x="606.14367" y="381.66835"/>
			<point x="602.14747" y="318.14748" type="curve" smooth="yes"/>
			<point x="598.00953" y="252.37368"/>
			<point x="572.11398" y="169.47349"/>
			<point x="514" y="112.00003" type="curve"/>
			<point x="463.29981" y="124.4805"/>
			<point x="433.167" y="126.42581"/>
			<point x="384" y="144.00003" type="curve" smooth="yes"/>
			<point x="335.54298" y="161.32034"/>
			<point x="311.41017" y="178.76956"/>
			<point x="265" y="201.00003" type="curve"/>
			<point x="180.14747" y="116.14651" type="line"/>
			<point x="187.21778" y="109.0762" type="line"/>
			<point x="233.62794" y="86.84573"/>
			<point x="257.76173" y="69.39651"/>
			<point x="306.21876" y="52.0762" type="curve" smooth="yes"/>
			<point x="355.38575" y="34.50198"/>
			<point x="385.51856" y="32.55667"/>
			<point x="436.21876" y="20.0762" type="curve"/>
			<point x="460.40528" y="34.36526"/>
			<point x="546.24854" y="113.15408"/>
			<point x="587.21778" y="156.53714" type="curve" smooth="yes"/>
			<point x="668.86988" y="243.00003"/>
			<point x="693.64063" y="316.99417"/>
			<point x="694.07129" y="395.92874" type="curve" smooth="yes"/>
			<point x="694.42774" y="461.22562"/>
			<point x="666.04688" y="517.51078"/>
			<point x="624.67481" y="559.03226" type="curve" smooth="yes"/>
			<point x="617.26758" y="566.44046" type="line"/>
			<point x="617.20898" y="566.49906" type="line" smooth="yes"/>
			<point x="568.76758" y="614.90824"/>
			<point x="502.65723" y="643.1348"/>
			<point x="444" y="642" type="curve" smooth="yes"/>
			<point x="355.08398" y="640.27933"/>
			<point x="283.47949" y="582.14554"/>
			<point x="247.75" y="546.42484" type="curve" smooth="yes"/>
			<point x="162.89746" y="461.5723" type="line" smooth="yes"/>
			<point x="162.11407" y="460.78905"/>
			<point x="161.34793" y="460.01659"/>
			<point x="160.59923" y="459.25574" type="curve"/>
			<point x="162.07129" y="593.92874" type="line"/>
			<point x="155" y="601" type="line"/>
			<point x="155" y="601"/>
			<point x="105" y="567.98148"/>
			<point x="45.33398" y="574.00101" type="curve" smooth="yes"/>
			<point x="-7.29297" y="579.31058"/>
			<point x="-47.40332" y="618.42093"/>
			<point x="-49.88086" y="620.88187" type="curve" smooth="yes"/>
			<point x="-49.99902" y="621" type="line"/>
			<point x="-134.85254" y="536.14749" type="line"/>
			<point x="-134.85254" y="536.14749"/>
			<point x="-134.83496" y="536.12991"/>
			<point x="-134.7998" y="536.09475" type="curve" smooth="yes"/>
			<point x="-127.7207" y="529.01663" type="line"/>
			<point x="-127.70019" y="528.99612" type="line" smooth="yes"/>
			<point x="-125.66796" y="526.96975"/>
			<point x="-85.38671" y="487.41799"/>
			<point x="-32.44726" y="482.07717" type="curve" smooth="yes"/>
			<point x="13.77637" y="477.41408"/>
			<point x="54.3291" y="496.26174"/>
			<point x="70.0166" y="504.84572" type="curve"/>
			<point x="68.6436" y="392.68921" type="line"/>
			<point x="9.10937" y="361.0381" type="line"/>
			<point x="68.03172" y="342.70671" type="line"/>
			<point x="67.78367" y="322.44471" type="line"/>
			<point x="14.10937" y="288.03811" type="line"/>
			<point x="63.58059" y="267.66761" type="line"/>
			<point x="19.10937" y="230.03811" type="line"/>
			<point x="66.24317" y="196.606" type="line"/>
			<point x="62.14745" y="-137.96189" type="line"/>
		</contour>
		<contour>
			<point x="349.65722" y="417.83206" type="line"/>
			<point x="264.80468" y="332.97952" type="line"/>
			<point x="349.65722" y="248.12698" type="line"/>
			<point x="434.51074" y="332.97952" type="line"/>
		</contour>
	</outline>
</glyph>
<glyph name="Q" format="2">
	<advance width="915"/>
	<unicode hex="0051"/>
	<outline>
		<contour>
			<point x="153.02344" y="461.16016" type="line"/>
			<point x="157.89582" y="466.29049"/>
			<point x="164.59551" y="472.43011"/>
			<point x="172.75263" y="479.23487" type="curve"/>
			<point x="167.91782" y="429.94039"/>
			<point x="170.04471" y="379.96567"/>
			<point x="179.07227" y="331.2627" type="curve" smooth="yes"/>
			<point x="191.06739" y="266.55274"/>
			<point x="215.28712" y="204.13086"/>
			<point x="250.07228" y="148.2627" type="curve"/>
			<point x="256.50001" y="140.60254" type="line"/>
			<point x="348.42579" y="217.73731" type="line"/>
			<point x="313.63966" y="273.6045"/>
			<point x="289.42091" y="336.02735"/>
			<point x="277.42579" y="400.73731" type="curve" smooth="yes"/>
			<point x="268.33106" y="449.80371"/>
			<point x="266.23633" y="500.06641"/>
			<point x="271.21289" y="549.79102" type="curve"/>
			<point x="380.40625" y="561.44922"/>
			<point x="494.4248" y="516.74219"/>
			<point x="566.6748" y="433.8877" type="curve" smooth="yes"/>
			<point x="624.87011" y="361.00391"/>
			<point x="635.11913" y="240.12891"/>
			<point x="619.92089" y="135.84961" type="curve"/>
			<point x="429.99804" y="-4.60254" type="line"/>
			<point x="351.46484" y="-7.07129"/>
			<point x="272.34277" y="19.30176"/>
			<point x="210.99804" y="68.39746" type="curve" smooth="yes"/>
			<point x="195.24414" y="81.00586"/>
			<point x="180.63574" y="95.11719"/>
			<point x="167.46386" y="110.35157" type="curve" smooth="yes"/>
			<point x="140.72851" y="143.2002"/>
			<point x="120.08007" y="181.24415"/>
			<point x="107.42577" y="221.73731" type="curve"/>
			<point x="100.99804" y="229.39747" type="line"/>
			<point x="9.07324" y="152.26368" type="line"/>
			<point x="22.22558" y="110.17481"/>
			<point x="43.93847" y="70.8252"/>
			<point x="72.27538" y="37.04883" type="curve" smooth="yes"/>
			<point x="78.70311" y="29.3877" type="line" smooth="yes"/>
			<point x="78.75682" y="29.32422"/>
			<point x="78.70409" y="29.38672"/>
			<point x="78.7578" y="29.32324" type="curve" smooth="yes"/>
			<point x="78.81151" y="29.25879"/>
			<point x="78.75878" y="29.32227"/>
			<point x="78.81249" y="29.25782" type="curve" smooth="yes"/>
			<point x="78.86522" y="29.19434"/>
			<point x="78.81346" y="29.25684"/>
			<point x="78.86717" y="29.19336" type="curve" smooth="yes"/>
			<point x="78.9199" y="29.12891"/>
			<point x="78.86814" y="29.19141"/>
			<point x="78.92087" y="29.12793" type="curve" smooth="yes"/>
			<point x="78.97458" y="29.06445"/>
			<point x="78.92282" y="29.12695"/>
			<point x="78.97555" y="29.0625" type="curve" smooth="yes"/>
			<point x="79.03219" y="28.99707" type="line"/>
			<point x="79.08492" y="28.93262" type="line" smooth="yes"/>
			<point x="93.03707" y="12.36231"/>
			<point x="108.58492" y="-2.86035"/>
			<point x="125.49996" y="-16.39746" type="curve" smooth="yes"/>
			<point x="186.84566" y="-65.49316"/>
			<point x="265.96773" y="-91.86621"/>
			<point x="344.50093" y="-89.39746" type="curve"/>
			<point x="512.78677" y="35.05386" type="line"/>
			<point x="565.78614" y="37.94694"/>
			<point x="619.24079" y="32.37722"/>
			<point x="670.50091" y="18.60253" type="curve" smooth="yes"/>
			<point x="724.19036" y="4.1748"/>
			<point x="775.4511" y="-19.24903"/>
			<point x="821.5009" y="-50.39747" type="curve"/>
			<point x="913.4257" y="26.7373" type="line"/>
			<point x="906.99797" y="34.39746" type="line"/>
			<point x="860.94914" y="65.5459"/>
			<point x="809.68742" y="88.96973"/>
			<point x="755.99797" y="103.39746" type="curve" smooth="yes"/>
			<point x="714.3102" y="114.59986"/>
			<point x="671.17156" y="120.37557"/>
			<point x="628.00644" y="120.5859" type="curve"/>
			<point x="716.67473" y="194.98731" type="line"/>
			<point x="734.37004" y="303.10645"/>
			<point x="724.94816" y="432.01661"/>
			<point x="662.11418" y="506.92091" type="curve" smooth="yes"/>
			<point x="655.68645" y="514.58107" type="line" smooth="yes"/>
			<point x="655.63274" y="514.64552"/>
			<point x="655.68254" y="514.58595"/>
			<point x="655.62981" y="514.64943" type="curve" smooth="yes"/>
			<point x="655.5761" y="514.71291"/>
			<point x="655.6259" y="514.65431"/>
			<point x="655.57219" y="514.71779" type="curve" smooth="yes"/>
			<point x="655.51067" y="514.79006" type="line"/>
			<point x="655.45794" y="514.85354" type="line" smooth="yes"/>
			<point x="655.30462" y="515.03518"/>
			<point x="655.1513" y="515.21682"/>
			<point x="654.99798" y="515.39748" type="curve" smooth="yes"/>
			<point x="582.53411" y="600.79592"/>
			<point x="466.29778" y="646.90334"/>
			<point x="354.99798" y="634.39748" type="curve"/>
			<point x="265.99798" y="568.39748" type="line"/>
			<point x="215.58894" y="526.09934" type="line"/>
			<point x="203.04965" y="519.04056"/>
			<point x="190.52365" y="511.71561"/>
			<point x="179.08586" y="503.09668" type="curve" smooth="yes"/>
			<point x="83.24895" y="430.87891" type="line" smooth="yes"/>
			<point x="76.0754" y="425.47329"/>
			<point x="69.32024" y="419.57129"/>
			<point x="63.25384" y="412.91211" type="curve" smooth="yes"/>
			<point x="46.59687" y="394.62752"/>
			<point x="36.09759" y="370.60645"/>
			<point x="35.3222" y="345.88477" type="curve" smooth="yes"/>
			<point x="34.84928" y="330.80663"/>
			<point x="37.72942" y="315.75586"/>
			<point x="42.48821" y="301.44141" type="curve" smooth="yes"/>
			<point x="47.247" y="287.12696"/>
			<point x="53.79304" y="273.48254"/>
			<point x="60.32122" y="259.8838" type="curve" smooth="yes"/>
			<point x="72.3222" y="234.88478" type="line"/>
			<point x="78.34075" y="226.89845" type="line"/>
			<point x="174.17669" y="299.11622" type="line"/>
			<point x="162.17571" y="324.11524" type="line" smooth="yes"/>
			<point x="155.64753" y="337.71398"/>
			<point x="149.10149" y="351.3584"/>
			<point x="144.3427" y="365.67285" type="curve" smooth="yes"/>
			<point x="139.58391" y="379.9873"/>
			<point x="136.70305" y="395.03808"/>
			<point x="137.17668" y="410.1162" type="curve" smooth="yes"/>
			<point x="137.74359" y="428.164"/>
			<point x="138.66923" y="446.0461"/>
			<point x="153.02336" y="461.16014" type="curve"/>
		</contour>
	</outline>
</glyph>
<glyph name="R" format="2">
	<advance width="858"/>
	<unicode hex="0052"/>
	<outline>
		<contour>
			<point x="171.80273" y="669.5586" type="line"/>
			<point x="63.04589" y="618.84473" type="line"/>
			<point x="113.04687" y="502.84473" type="line"/>
			<point x="117.27246" y="493.78125" type="line"/>
			<point x="226.0293" y="544.49609" type="line"/>
			<point x="176.0293" y="660.49609" type="line"/>
		</contour>
		<contour>
			<point x="365.5" y="275.70312" type="line"/>
			<point x="365.55273" y="595.63281" type="line"/>
			<point x="380.64746" y="607.70898" type="line"/>
			<point x="387.20606" y="602.82226"/>
			<point x="393.52735" y="597.46679"/>
			<point x="399.39356" y="591.87695" type="curve" smooth="yes"/>
			<point x="429.30274" y="560.48242"/>
			<point x="449.44239" y="519.73926"/>
			<point x="455.57618" y="476.7793" type="curve" smooth="yes"/>
			<point x="461.22462" y="437.21387"/>
			<point x="455.209" y="396.05469"/>
			<point x="438.4717" y="359.76172" type="curve" smooth="yes"/>
			<point x="434.51662" y="351.18457"/>
			<point x="429.40432" y="342.59277"/>
			<point x="424.21584" y="334.41894" type="curve"/>
		</contour>
		<contour>
			<point x="273.57619" y="523.00495" type="line"/>
			<point x="273.57619" y="202.86327" type="line"/>
			<point x="252.05568" y="181.34276"/>
			<point x="225.90041" y="155.1035"/>
			<point x="202.57619" y="131.77928" type="curve"/>
			<point x="209.64748" y="124.70799" type="line"/>
			<point x="280.6465" y="175.70799" type="line"/>
			<point x="367.64748" y="263.70799" type="line"/>
			<point x="446.52638" y="234.66697"/>
			<point x="512.87599" y="179.80759"/>
			<point x="572.64747" y="120.70798" type="curve" smooth="yes"/>
			<point x="750.64747" y="-55.29202" type="line"/>
			<point x="835.50001" y="29.5615" type="line"/>
			<point x="650.42872" y="212.63181" type="line" smooth="yes"/>
			<point x="594.56349" y="267.86911"/>
			<point x="532.95314" y="319.40231"/>
			<point x="460.73634" y="349.61325" type="curve"/>
			<point x="469.80665" y="358.68454"/>
			<point x="479.0547" y="368.02927"/>
			<point x="488.2129" y="377.1865" type="curve" smooth="yes"/>
			<point x="505.6631" y="394.63084"/>
			<point x="520.06154" y="415.13474"/>
			<point x="530.39552" y="437.54392" type="curve" smooth="yes"/>
			<point x="547.13282" y="473.83689"/>
			<point x="553.14844" y="514.99509"/>
			<point x="547.5" y="554.56052" type="curve" smooth="yes"/>
			<point x="541.14648" y="599.06345"/>
			<point x="519.76171" y="641.1865"/>
			<point x="488.05859" y="673.00486" type="curve" smooth="yes"/>
			<point x="487.99902" y="673.06346" type="line"/>
			<point x="487.93359" y="673.12889" type="line"/>
			<point x="480.73437" y="680.32811" type="line"/>
			<point x="480.67577" y="680.38768" type="line" smooth="yes"/>
			<point x="473.73534" y="687.32323"/>
			<point x="466.3037" y="693.76561"/>
			<point x="458.42968" y="699.6328" type="curve"/>
			<point x="205.07616" y="518" type="line"/>
			<point x="178.44139" y="495.8037"/>
			<point x="158.10057" y="466.34765"/>
			<point x="145.8408" y="433.91601" type="curve" smooth="yes"/>
			<point x="133.58103" y="401.48535"/>
			<point x="129.81931" y="366.5625"/>
			<point x="127.07712" y="332" type="curve" smooth="yes"/>
			<point x="122.07712" y="269" type="line" smooth="yes"/>
			<point x="119.16013" y="232.25195"/>
			<point x="114.79001" y="194.85937"/>
			<point x="99.08689" y="161.50683" type="curve" smooth="yes"/>
			<point x="85.59568" y="132.85156"/>
			<point x="63.94627" y="107.84375"/>
			<point x="37.82713" y="90.93945" type="curve"/>
			<point x="24.07615" y="83" type="line"/>
			<point x="29.07615" y="74.33984" type="line"/>
			<point x="211.07713" y="-44.66016" type="line"/>
			<point x="314.99998" y="15.33984" type="line"/>
			<point x="309.99998" y="24" type="line"/>
			<point x="137.56638" y="136.74512" type="line"/>
			<point x="139.90134" y="138.09278" type="line" smooth="yes"/>
			<point x="169.53122" y="155.18458"/>
			<point x="193.4238" y="181.86524"/>
			<point x="208.01071" y="212.84669" type="curve" smooth="yes"/>
			<point x="223.71383" y="246.19923"/>
			<point x="228.08297" y="283.59181"/>
			<point x="230.99996" y="320.33986" type="curve" smooth="yes"/>
			<point x="235.99996" y="383.33986" type="line" smooth="yes"/>
			<point x="238.74215" y="417.90236"/>
			<point x="242.50387" y="452.82424"/>
			<point x="254.76364" y="485.25588" type="curve" smooth="yes"/>
			<point x="259.74188" y="498.42516"/>
			<point x="266.05256" y="511.10381"/>
			<point x="273.57613" y="523.00498" type="curve"/>
		</contour>
	</outline>
</glyph>
<glyph name="S" format="2">
	<advance width="697"/>
	<unicode hex="0053"/>
	<outline>
		<contour>
			<point x="627.03809" y="370.43262" type="line"/>
			<point x="626.97949" y="370.49219" type="line" smooth="yes"/>
			<point x="611.46387" y="385.99414"/>
			<point x="592.62696" y="398.17383"/>
			<point x="572.08497" y="405.86523" type="curve" smooth="yes"/>
			<point x="554.88477" y="412.30566"/>
			<point x="536.51661" y="415.58984"/>
			<point x="518.15235" y="415.58984" type="curve" smooth="yes"/>
			<point x="510.70606" y="415.59082"/>
			<point x="503.25879" y="415.05078"/>
			<point x="495.89063" y="413.96191" type="curve"/>
			<point x="376.17774" y="311.4873" type="line"/>
			<point x="357.96192" y="429.89062" type="line"/>
			<point x="350.89063" y="436.96191" type="line"/>
			<point x="266.03809" y="352.10839" type="line"/>
			<point x="235.48731" y="318.4746" type="line"/>
			<point x="209.61915" y="325.17772"/>
			<point x="185.32227" y="338.70604"/>
			<point x="165.77149" y="357.07323" type="curve"/>
			<point x="161.11719" y="362.02928"/>
			<point x="156.55664" y="367.5576"/>
			<point x="152.52344" y="373.20213" type="curve" smooth="yes"/>
			<point x="132.6836" y="400.96678"/>
			<point x="122.22266" y="435.11619"/>
			<point x="122.22266" y="469.24314" type="curve" smooth="yes"/>
			<point x="122.22266" y="474.46775"/>
			<point x="122.46778" y="479.69041"/>
			<point x="122.96192" y="484.89061" type="curve" smooth="yes"/>
			<point x="125.21582" y="508.60838"/>
			<point x="132.50586" y="531.44627"/>
			<point x="143.7959" y="552.58006" type="curve"/>
			<point x="171.52735" y="568.15135"/>
			<point x="203.21192" y="578.73631"/>
			<point x="235.10938" y="584.03807" type="curve" smooth="yes"/>
			<point x="253.43848" y="587.08397"/>
			<point x="271.97461" y="588.53612"/>
			<point x="290.52637" y="588.53612" type="curve" smooth="yes"/>
			<point x="334.58594" y="588.53514"/>
			<point x="378.73731" y="580.34862"/>
			<point x="420.42871" y="565.88964" type="curve" smooth="yes"/>
			<point x="479.67481" y="545.34276"/>
			<point x="534.36329" y="511.9287"/>
			<point x="580.10939" y="469.03808" type="curve"/>
			<point x="664.96193" y="553.89062" type="line"/>
			<point x="657.89162" y="560.96191" type="line" smooth="yes"/>
			<point x="612.14455" y="603.85253"/>
			<point x="557.45705" y="637.26659"/>
			<point x="498.21095" y="657.81347" type="curve" smooth="yes"/>
			<point x="456.51857" y="672.27245"/>
			<point x="412.3672" y="680.45897"/>
			<point x="368.30763" y="680.45995" type="curve" smooth="yes"/>
			<point x="349.75587" y="680.45995"/>
			<point x="331.21974" y="679.0078"/>
			<point x="312.89064" y="675.9619" type="curve" smooth="yes"/>
			<point x="265.19533" y="668.03514"/>
			<point x="218.80373" y="648.78416"/>
			<point x="182.41115" y="616.95213" type="curve" smooth="yes"/>
			<point x="178.92775" y="613.90525"/>
			<point x="175.54298" y="610.73728"/>
			<point x="172.26661" y="607.45701" type="curve" smooth="yes"/>
			<point x="87.41407" y="522.60447" type="line" smooth="yes"/>
			<point x="56.46583" y="491.61912"/>
			<point x="35.17384" y="450.63377"/>
			<point x="31.0381" y="407.10838" type="curve" smooth="yes"/>
			<point x="30.54396" y="401.90916"/>
			<point x="30.29884" y="396.68553"/>
			<point x="30.29884" y="391.4619" type="curve" smooth="yes"/>
			<point x="30.29884" y="357.33397"/>
			<point x="40.75978" y="323.18456"/>
			<point x="60.59962" y="295.42089" type="curve" smooth="yes"/>
			<point x="65.60939" y="288.40917"/>
			<point x="71.20607" y="281.82616"/>
			<point x="77.29494" y="275.73339" type="curve" smooth="yes"/>
			<point x="84.48928" y="268.53905" type="line"/>
			<point x="84.55373" y="268.47557" type="line"/>
			<point x="84.61233" y="268.41697" type="line" smooth="yes"/>
			<point x="106.28909" y="246.82224"/>
			<point x="134.1719" y="231.43259"/>
			<point x="164.1094" y="225.03806" type="curve"/>
			<point x="248.96194" y="309.8906" type="line"/>
			<point x="269.11917" y="332.082" type="line"/>
			<point x="286.03812" y="222.10934" type="line"/>
			<point x="293.10941" y="215.03805" type="line"/>
			<point x="418.10941" y="322.03805" type="line"/>
			<point x="425.47757" y="323.12594"/>
			<point x="432.92386" y="323.66696"/>
			<point x="440.37113" y="323.66598" type="curve" smooth="yes"/>
			<point x="458.73539" y="323.66598"/>
			<point x="477.10258" y="320.3818"/>
			<point x="494.30375" y="313.94137" type="curve" smooth="yes"/>
			<point x="513.28227" y="306.83492"/>
			<point x="530.93168" y="295.78804"/>
			<point x="545.6475" y="282.00191" type="curve"/>
			<point x="547.12504" y="280.42574"/>
			<point x="548.61527" y="278.76558"/>
			<point x="550.03812" y="277.10835" type="curve" smooth="yes"/>
			<point x="574.31937" y="248.83394"/>
			<point x="587.75101" y="211.61031"/>
			<point x="587.75003" y="174.34371" type="curve"/>
			<point x="587.75003" y="148.60445"/>
			<point x="581.48343" y="123.68257"/>
			<point x="570.92483" y="101.98726" type="curve"/>
			<point x="544.32229" y="88.14937"/>
			<point x="515.26956" y="79.57417"/>
			<point x="485.75589" y="75.69233" type="curve" smooth="yes"/>
			<point x="471.12015" y="73.76655"/>
			<point x="456.41214" y="72.89448"/>
			<point x="441.69046" y="72.89448" type="curve" smooth="yes"/>
			<point x="401.12503" y="72.89448"/>
			<point x="360.45706" y="79.51558"/>
			<point x="320.89066" y="88.96187" type="curve" smooth="yes"/>
			<point x="236.48734" y="109.11324"/>
			<point x="155.14847" y="140.63082"/>
			<point x="75.89066" y="175.96187" type="curve"/>
			<point x="-8.96188" y="91.10933" type="line"/>
			<point x="-1.89059" y="84.03804" type="line"/>
			<point x="77.36625" y="48.70699"/>
			<point x="158.70609" y="17.18941"/>
			<point x="243.10941" y="-2.96196" type="curve" smooth="yes"/>
			<point x="282.67484" y="-12.40825"/>
			<point x="323.34379" y="-19.02935"/>
			<point x="363.90824" y="-19.02935" type="curve" smooth="yes"/>
			<point x="378.62992" y="-19.02935"/>
			<point x="393.33793" y="-18.15728"/>
			<point x="407.97465" y="-16.2315" type="curve" smooth="yes"/>
			<point x="458.02934" y="-9.64752"/>
			<point x="507.36235" y="10.664"/>
			<point x="543.12114" y="46.25287" type="curve" smooth="yes"/>
			<point x="543.37016" y="46.50092" type="line"/>
			<point x="628.22368" y="131.35444" type="line" smooth="yes"/>
			<point x="631.59868" y="134.73042"/>
			<point x="634.84868" y="138.24214"/>
			<point x="637.96196" y="141.89058" type="curve" smooth="yes"/>
			<point x="663.90044" y="172.28609"/>
			<point x="679.67485" y="210.59664"/>
			<point x="679.67387" y="252.12594" type="curve" smooth="yes"/>
			<point x="679.67485" y="289.39156"/>
			<point x="666.24321" y="326.61617"/>
			<point x="641.96196" y="354.89058" type="curve" smooth="yes"/>
			<point x="639.50884" y="357.74703"/>
			<point x="636.94927" y="360.51168"/>
			<point x="634.29204" y="363.17867" type="curve" smooth="yes"/>
		</contour>
	</outline>
</glyph>
<glyph name="bracketleft" format="2">
	<advance width="232"/>
	<unicode hex="005B"/>
	<outline>
		<contour>
			<point x="208.63379" y="18.84668" type="line"/>
			<point x="202.89746" y="27.03906" type="line"/>
			<point x="96.63476" y="27.03906" type="line"/>
			<point x="96.63378" y="585.96094" type="line"/>
			<point x="143.10155" y="585.96094" type="line"/>
			<point x="208.63378" y="631.84668" type="line"/>
			<point x="202.89843" y="640.03906" type="line"/>
			<point x="90.89745" y="640.03906" type="line"/>
			<point x="25.3662" y="594.15234" type="line"/>
			<point x="25.3662" y="-18.84668" type="line"/>
			<point x="31.10253" y="-27.03808" type="line"/>
			<point x="143.10155" y="-27.03906" type="line"/>
		</contour>
	</outline>
</glyph>
<glyph name="backslash" format="2">
	<advance width="296"/>
	<unicode hex="005C"/>
	<outline>
		<contour>
			<point x="14.25195" y="644.82031" type="line"/>
			<point x="70.82031" y="588.25195" type="line"/>
			<point x="286.82031" y="-24.74805" type="line"/>
			<point x="279.74902" y="-31.81934" type="line"/>
			<point x="223.18066" y="24.74902" type="line"/>
			<point x="7.18066" y="637.74902" type="line"/>
		</contour>
	</outline>
</glyph>
<glyph name="bracketright" format="2">
	<advance width="212"/>
	<unicode hex="005D"/>
	<outline>
		<contour>
			<point x="13.86621" y="-18.84766" type="line"/>
			<point x="19.60156" y="-27.03906" type="line"/>
			<point x="131.60156" y="-27.03906" type="line"/>
			<point x="197.13379" y="18.84766" type="line"/>
			<point x="197.13379" y="631.84766" type="line"/>
			<point x="191.39844" y="640.03906" type="line"/>
			<point x="79.39844" y="640.03906" type="line"/>
			<point x="13.86621" y="594.15234" type="line"/>
			<point x="19.60156" y="585.96094" type="line"/>
			<point x="125.86621" y="585.96094" type="line"/>
			<point x="125.86621" y="27.03906" type="line"/>
			<point x="79.39844" y="27.03906" type="line"/>
		</contour>
	</outline>
</glyph>
<glyph name="asciicircum" format="2">
	<advance width="502"/>
	<unicode hex="005E"/>
	<outline>
		<contour>
			<point x="59.5" y="715.5" type="line"/>
			<point x="28.23145" y="692.22559" type="line"/>
			<point x="58.29688" y="695.75879"/>
			<point x="91.42969" y="685.08691"/>
			<point x="114.31836" y="663.45898" type="curve" smooth="yes"/>
			<point x="132.03223" y="646.72265"/>
			<point x="143.667" y="624.35839"/>
			<point x="151.46876" y="601.19433" type="curve" smooth="yes"/>
			<point x="159.27247" y="578.02538"/>
			<point x="163.53224" y="553.80956"/>
			<point x="168.62794" y="529.80663" type="curve" smooth="yes"/>
			<point x="170.90528" y="519.08104"/>
			<point x="173.39844" y="508.22459"/>
			<point x="178.22364" y="498.27928" type="curve" smooth="yes"/>
			<point x="183.05469" y="488.32518"/>
			<point x="190.42774" y="479.25584"/>
			<point x="200.50977" y="474.32908" type="curve" smooth="yes"/>
			<point x="207.93067" y="470.7031"/>
			<point x="216.38477" y="469.47165"/>
			<point x="225.2168" y="470.43942" type="curve" smooth="yes"/>
			<point x="233.64356" y="471.36325"/>
			<point x="240.97168" y="472.52536"/>
			<point x="261.3457" y="484.01657" type="curve" smooth="yes"/>
			<point x="318.55371" y="516.28122"/>
			<point x="343.64746" y="550"/>
			<point x="345.34473" y="551.9111" type="curve" smooth="yes"/>
			<point x="371.71485" y="581.60641"/>
			<point x="398.25489" y="612.44821"/>
			<point x="421.40333" y="645.34274" type="curve" smooth="yes"/>
			<point x="444.00392" y="677.45993"/>
			<point x="463.26954" y="711.31442"/>
			<point x="479.15626" y="746.61227" type="curve"/>
			<point x="446.50001" y="725" type="line"/>
			<point x="413.84376" y="703.38864" type="line"/>
			<point x="398.18849" y="668.60446"/>
			<point x="379.22462" y="635.39059"/>
			<point x="357.59669" y="604.65719" type="curve" smooth="yes"/>
			<point x="335.88673" y="573.80465"/>
			<point x="311.71681" y="545.60445"/>
			<point x="286.21974" y="516.8525" type="curve"/>
			<point x="279.80568" y="516.39352"/>
			<point x="272.00783" y="517.48629"/>
			<point x="265.49025" y="520.67086" type="curve" smooth="yes"/>
			<point x="255.88576" y="525.36422"/>
			<point x="248.59377" y="534.23336"/>
			<point x="243.85842" y="543.99215" type="curve" smooth="yes"/>
			<point x="239.11721" y="553.7607"/>
			<point x="236.64553" y="564.48531"/>
			<point x="234.37209" y="575.19332" type="curve" smooth="yes"/>
			<point x="229.2842" y="599.15816"/>
			<point x="225.01662" y="623.44429"/>
			<point x="217.16799" y="646.748" type="curve" smooth="yes"/>
			<point x="209.3174" y="670.05562"/>
			<point x="197.61232" y="692.59957"/>
			<point x="179.68166" y="709.54097" type="curve" smooth="yes"/>
			<point x="156.44826" y="731.49312"/>
			<point x="123.72365" y="742.64742"/>
			<point x="90.76857" y="738.77535" type="curve"/>
		</contour>
		<contour>
			<point x="257.50002" y="707.49996" type="curve" smooth="yes"/>
			<point x="257.50002" y="693.70016"/>
			<point x="268.70022" y="682.49996"/>
			<point x="282.50002" y="682.49996" type="curve" smooth="yes"/>
			<point x="296.29982" y="682.49996"/>
			<point x="307.50002" y="693.70016"/>
			<point x="307.50002" y="707.49996" type="curve" smooth="yes"/>
			<point x="307.50002" y="721.29976"/>
			<point x="296.29982" y="732.49996"/>
			<point x="282.50002" y="732.49996" type="curve" smooth="yes"/>
			<point x="268.70022" y="732.49996"/>
			<point x="257.50002" y="721.29976"/>
		</contour>
	</outline>
</glyph>
<glyph name="glyph237" format="2">
	<advance width="588"/>
	<unicode hex="005F"/>
	<outline>
		<contour>
			<point x="42" y="0" type="line"/>
			<point x="0.01367" y="-42.57324" type="line"/>
			<point x="502.01367" y="-42.57324" type="line"/>
			<point x="544" y="0" type="line"/>
			<point x="585.98633" y="42.57324" type="line"/>
			<point x="83.98633" y="42.57324" type="line"/>
		</contour>
	</outline>
</glyph>
<glyph name="grave" format="2">
	<advance width="264"/>
	<unicode hex="0060"/>
	<outline>
		<contour>
			<point x="116.89062" y="658.96191" type="line"/>
			<point x="32.03808" y="574.10937" type="line"/>
			<point x="150.03808" y="413.10839" type="line"/>
			<point x="157.10839" y="406.03808" type="line"/>
			<point x="241.96191" y="490.89062" type="line"/>
			<point x="123.96191" y="651.89062" type="line"/>
		</contour>
	</outline>
</glyph>
<glyph name="a" format="2">
	<advance width="354"/>
	<unicode hex="0061"/>
	<outline>
		<contour>
			<point x="213.83691" y="102.30176" type="line"/>
			<point x="200.13476" y="86.22852" type="line"/>
			<point x="103.33788" y="133.7129" type="line"/>
			<point x="211.36229" y="267.61817" type="line"/>
		</contour>
		<contour>
			<point x="211.39647" y="431.05079" type="line"/>
			<point x="167.80663" y="431.90626"/>
			<point x="128.03026" y="399.21974"/>
			<point x="107.07909" y="360.98536" type="curve" smooth="yes"/>
			<point x="87.41503" y="325.10255"/>
			<point x="85.06151" y="280.40235"/>
			<point x="100.85057" y="242.65333" type="curve"/>
			<point x="105.46385" y="244.58302" type="line"/>
			<point x="110.07518" y="246.51173" type="line"/>
			<point x="95.48924" y="281.38771"/>
			<point x="97.68064" y="323.02833"/>
			<point x="115.84861" y="356.1797" type="curve" smooth="yes"/>
			<point x="117.52244" y="359.23439"/>
			<point x="119.33104" y="362.21193"/>
			<point x="121.26366" y="365.10646" type="curve"/>
			<point x="141.73827" y="364.33498"/>
			<point x="210.26757" y="340.69631"/>
			<point x="210.39745" y="332.05178" type="curve" smooth="yes"/>
			<point x="211.08105" y="286.38772" type="line"/>
			<point x="145.8164" y="206.93069"/>
			<point x="81.86718" y="126.15823"/>
			<point x="16.99999" y="46.30276" type="curve"/>
			<point x="47.06542" y="21.07522"/>
			<point x="94.6123" y="5.5596"/>
			<point x="130.66015" y="-12.12497" type="curve"/>
			<point x="158.50292" y="20.47366"/>
			<point x="186.33202" y="53.08499"/>
			<point x="214.08397" y="85.77444" type="curve"/>
			<point x="215.39745" y="-1.94822" type="line"/>
			<point x="335.39745" y="-1.94822" type="line"/>
			<point x="335.39745" y="8.05178" type="line"/>
			<point x="330.39843" y="348.08694" type="line" smooth="yes"/>
			<point x="329.77831" y="390.26956"/>
			<point x="252.18651" y="430.25003"/>
			<point x="211.39647" y="431.05081" type="curve"/>
		</contour>
	</outline>
</glyph>
<glyph name="b" format="2">
	<advance width="433"/>
	<unicode hex="0062"/>
	<outline>
		<contour>
			<point x="179" y="-28" type="line"/>
			<point x="307" y="49" type="line" smooth="yes"/>
			<point x="371" y="87"/>
			<point x="415" y="132"/>
			<point x="415" y="208" type="curve" smooth="yes"/>
			<point x="415" y="246"/>
			<point x="405" y="276"/>
			<point x="382" y="312" type="curve" smooth="yes"/>
			<point x="353" y="357"/>
			<point x="313" y="393"/>
			<point x="265" y="414" type="curve"/>
			<point x="161" y="354" type="line"/>
			<point x="128" y="334" type="line"/>
			<point x="128" y="612" type="line"/>
			<point x="13" y="612" type="line"/>
			<point x="13" y="50" type="line"/>
			<point x="18" y="42" type="line"/>
		</contour>
		<contour>
			<point x="263" y="48" type="curve"/>
			<point x="128" y="108" type="line"/>
			<point x="128" y="322" type="line"/>
			<point x="168" y="345" type="line"/>
			<point x="214" y="324"/>
			<point x="255" y="289"/>
			<point x="282" y="245" type="curve" smooth="yes"/>
			<point x="294" y="224"/>
			<point x="306" y="193"/>
			<point x="306" y="163" type="curve" smooth="yes"/>
			<point x="306" y="122"/>
			<point x="290" y="78"/>
		</contour>
	</outline>
</glyph>
<glyph name="c" format="2">
	<advance width="381"/>
	<unicode hex="0063"/>
	<outline>
		<contour>
			<point x="94.09082" y="27.88379" type="line"/>
			<point x="94.27246" y="27.70703" type="line"/>
			<point x="94.33496" y="27.64746" type="line"/>
			<point x="94.39356" y="27.59082" type="line" smooth="yes"/>
			<point x="100.00684" y="22.16699"/>
			<point x="105.91016" y="17.02441"/>
			<point x="112.08496" y="12.19629" type="curve" smooth="yes"/>
			<point x="142.21777" y="-11.36328"/>
			<point x="178.77539" y="-27.16699"/>
			<point x="217.02539" y="-32.92383" type="curve"/>
			<point x="249.69531" y="-13.72363" type="line"/>
			<point x="363.4375" y="65.44043" type="line"/>
			<point x="348.58691" y="81.75977" type="line"/>
			<point x="294.02929" y="55.32325" type="line"/>
			<point x="255.77831" y="61.08009"/>
			<point x="219.22167" y="76.88282"/>
			<point x="189.08886" y="100.44337" type="curve" smooth="yes"/>
			<point x="184.08202" y="104.35841"/>
			<point x="179.29003" y="108.44825"/>
			<point x="174.62597" y="112.7793" type="curve" smooth="yes"/>
			<point x="147.66699" y="140.06641"/>
			<point x="127.60547" y="174.27344"/>
			<point x="116.88965" y="210.77539" type="curve" smooth="yes"/>
			<point x="106.21875" y="247.12402"/>
			<point x="104.5957" y="286.33398"/>
			<point x="115.1123" y="322.7246" type="curve" smooth="yes"/>
			<point x="117.04882" y="329.42675"/>
			<point x="119.26171" y="335.6162"/>
			<point x="122.17968" y="342.35741" type="curve"/>
			<point x="139.19726" y="348.58495"/>
			<point x="158.34179" y="351.68065"/>
			<point x="176.92089" y="350.69335" type="curve" smooth="yes"/>
			<point x="204.40429" y="349.23241"/>
			<point x="231.33886" y="339.1494"/>
			<point x="252.66406" y="322.27635" type="curve"/>
			<point x="336.66992" y="403.73533" type="line"/>
			<point x="329.66894" y="410.52342" type="line"/>
			<point x="308.34277" y="427.39647"/>
			<point x="281.40722" y="437.47948"/>
			<point x="253.9248" y="438.94042" type="curve" smooth="yes"/>
			<point x="226.4414" y="440.40038"/>
			<point x="198.61523" y="433.23925"/>
			<point x="175.22851" y="419.16308" type="curve" smooth="yes"/>
			<point x="165.96581" y="413.58788"/>
			<point x="157.45507" y="406.96386"/>
			<point x="149.77245" y="399.51757" type="curve" smooth="yes"/>
			<point x="65.76757" y="318.05859" type="line" smooth="yes"/>
			<point x="65.65331" y="317.94726"/>
			<point x="65.50976" y="317.80859"/>
			<point x="65.50976" y="317.80859" type="curve"/>
			<point x="45.74804" y="298.53125"/>
			<point x="31.63866" y="274.11426"/>
			<point x="24.10839" y="248.05469" type="curve" smooth="yes"/>
			<point x="13.59081" y="211.66407"/>
			<point x="15.21483" y="172.45411"/>
			<point x="25.88475" y="136.10548" type="curve" smooth="yes"/>
			<point x="37.05565" y="98.05275"/>
			<point x="58.21678" y="62.69142"/>
			<point x="87.03026" y="34.73048" type="curve" smooth="yes"/>
		</contour>
	</outline>
</glyph>
<glyph name="d" format="2">
	<advance width="434"/>
	<unicode hex="0064"/>
	<outline>
		<contour>
			<point x="293" y="620" type="line"/>
			<point x="293" y="440" type="line"/>
			<point x="273" y="443" type="line"/>
			<point x="273" y="443"/>
			<point x="113" y="363"/>
			<point x="55" y="294" type="curve" smooth="yes"/>
			<point x="33" y="269"/>
			<point x="20" y="234"/>
			<point x="17" y="199" type="curve" smooth="yes"/>
			<point x="13" y="155"/>
			<point x="27" y="102"/>
			<point x="58" y="62" type="curve" smooth="yes"/>
			<point x="84" y="29"/>
			<point x="119" y="1"/>
			<point x="158" y="-13" type="curve"/>
			<point x="276" y="67" type="line"/>
			<point x="270" y="75" type="line"/>
			<point x="251" y="64" type="line"/>
			<point x="213" y="78"/>
			<point x="178" y="103"/>
			<point x="154" y="136" type="curve" smooth="yes"/>
			<point x="129" y="171"/>
			<point x="118" y="217"/>
			<point x="122" y="260" type="curve" smooth="yes"/>
			<point x="125" y="294"/>
			<point x="134" y="337"/>
			<point x="174" y="364" type="curve" smooth="yes"/>
			<point x="186" y="372" type="line"/>
			<point x="293" y="326" type="line"/>
			<point x="292.75193" y="1.48927" type="line"/>
			<point x="408" y="1" type="line"/>
			<point x="408" y="620" type="line"/>
		</contour>
	</outline>
</glyph>
<glyph name="e" format="2">
	<advance width="353"/>
	<unicode hex="0065"/>
	<outline>
		<contour>
			<point x="122" y="209" type="curve"/>
			<point x="226" y="284" type="line"/>
			<point x="322" y="357" type="line"/>
			<point x="316" y="365" type="line"/>
			<point x="209" y="441" type="line"/>
			<point x="107" y="365" type="line" smooth="yes"/>
			<point x="43" y="317"/>
			<point x="16" y="267"/>
			<point x="16" y="191" type="curve" smooth="yes"/>
			<point x="16" y="172"/>
			<point x="17" y="158"/>
			<point x="20" y="145" type="curve" smooth="yes"/>
			<point x="44" y="49"/>
			<point x="105" y="0"/>
			<point x="209" y="-5" type="curve"/>
			<point x="339" y="91" type="line"/>
			<point x="333" y="99" type="line"/>
			<point x="299" y="75" type="line"/>
			<point x="256" y="77"/>
			<point x="221" y="86"/>
			<point x="188" y="105" type="curve" smooth="yes"/>
			<point x="165" y="119"/>
			<point x="148" y="140"/>
			<point x="132" y="179" type="curve" smooth="yes"/>
			<point x="129" y="187"/>
			<point x="127" y="194"/>
		</contour>
		<contour>
			<point x="119" y="222" type="line"/>
			<point x="117" y="235"/>
			<point x="117" y="239"/>
			<point x="117" y="254" type="curve" smooth="yes"/>
			<point x="117" y="286"/>
			<point x="124" y="320"/>
			<point x="137" y="349" type="curve"/>
			<point x="215" y="291" type="line"/>
		</contour>
	</outline>
</glyph>
<glyph name="f" format="2">
	<advance width="410"/>
	<unicode hex="0066"/>
	<outline>
		<contour>
			<point x="268.74414" y="661.5" type="line"/>
			<point x="188.74414" y="594" type="line"/>
			<point x="68.74414" y="514" type="line"/>
			<point x="68.74414" y="407.85292" type="line"/>
			<point x="17" y="356.10937" type="line"/>
			<point x="24.07129" y="349.0371" type="line"/>
			<point x="68.74414" y="349.0371" type="line"/>
			<point x="68.74414" y="-0.00001" type="line"/>
			<point x="188.74414" y="-0.00001" type="line"/>
			<point x="188.74414" y="349.0371" type="line"/>
			<point x="221.07129" y="349.0371" type="line"/>
			<point x="305.92383" y="433.89062" type="line"/>
			<point x="298.85254" y="440.96093" type="line"/>
			<point x="188.74414" y="440.96093" type="line"/>
			<point x="188.74414" y="563.99769" type="line"/>
			<point x="213.83624" y="581.28666" type="line"/>
			<point x="301.24414" y="537" type="line"/>
			<point x="391.74414" y="610" type="line"/>
		</contour>
	</outline>
</glyph>
<glyph name="g" format="2">
	<advance width="426"/>
	<unicode hex="0067"/>
	<outline>
		<contour>
			<point x="334.3506" y="356.97949" type="line"/>
			<point x="259" y="293.75293" type="line"/>
			<point x="265.67415" y="69.69233" type="line"/>
			<point x="265.45801" y="70.00097" type="line"/>
			<point x="221.45801" y="87.00097" type="line" smooth="yes"/>
			<point x="203.74219" y="93.8457"/>
			<point x="185.91797" y="101.51465"/>
			<point x="171.80957" y="114.22949" type="curve" smooth="yes"/>
			<point x="168.0918" y="117.58008"/>
			<point x="164.65137" y="121.27539"/>
			<point x="161.5586" y="125.19727" type="curve"/>
			<point x="155.95899" y="134.25489"/>
			<point x="152.01563" y="144.31641"/>
			<point x="150.19336" y="154.8086" type="curve"/>
			<point x="144.19434" y="275.80958" type="line" smooth="yes"/>
			<point x="142.94434" y="300.99708"/>
			<point x="142.93067" y="326.95411"/>
			<point x="152.27051" y="350.37989" type="curve" smooth="yes"/>
			<point x="152.5586" y="351.10255"/>
			<point x="153.17579" y="352.40724"/>
			<point x="153.33009" y="352.77052" type="curve"/>
			<point x="160.93361" y="354.03322"/>
			<point x="168.6133" y="354.90236"/>
			<point x="176.27248" y="355.49709" type="curve" smooth="yes"/>
			<point x="201.41603" y="357.44729"/>
			<point x="226.67677" y="356.98049"/>
			<point x="251.89552" y="356.97951" type="curve" smooth="yes"/>
		</contour>
		<contour>
			<point x="266.01702" y="58.18442" type="line"/>
			<point x="268.33639" y="-18.95991"/>
			<point x="275.00789" y="-96.86501"/>
			<point x="298.49317" y="-170.32906" type="curve"/>
			<point x="276.92481" y="-188.11226" type="line"/>
			<point x="230.69825" y="-175.5107"/>
			<point x="188.20411" y="-149.52242"/>
			<point x="155.92481" y="-114.11226" type="curve" smooth="yes"/>
			<point x="154.71973" y="-112.78999"/>
			<point x="153.49121" y="-111.41011"/>
			<point x="152.33984" y="-110.09175" type="curve" smooth="yes"/>
			<point x="137.13086" y="-91.2187"/>
			<point x="124.62598" y="-70.16792"/>
			<point x="115.35352" y="-47.77241" type="curve"/>
			<point x="141.35352" y="-25.77241" type="line"/>
			<point x="134.92579" y="-18.11225" type="line"/>
			<point x="43.00001" y="-95.24702" type="line"/>
			<point x="17.00001" y="-117.24702" type="line"/>
			<point x="26.8545" y="-141.0478"/>
			<point x="40.36134" y="-163.331"/>
			<point x="56.96388" y="-183.19135" type="curve" smooth="yes"/>
			<point x="57.01759" y="-183.2558"/>
			<point x="56.9922" y="-183.22553"/>
			<point x="57.09962" y="-183.35443" type="curve" smooth="yes"/>
			<point x="57.15333" y="-183.41791"/>
			<point x="57.1006" y="-183.35541"/>
			<point x="57.209" y="-183.48334" type="curve" smooth="yes"/>
			<point x="63.63673" y="-191.14447" type="line" smooth="yes"/>
			<point x="65.84669" y="-193.77728"/>
			<point x="68.11134" y="-196.36615"/>
			<point x="70.42774" y="-198.90717" type="curve" smooth="yes"/>
			<point x="102.70606" y="-234.31733"/>
			<point x="145.20118" y="-260.30561"/>
			<point x="191.42774" y="-272.90717" type="curve"/>
			<point x="287.71192" y="-193.51557" type="line"/>
			<point x="305.42872" y="-178.90717" type="line"/>
			<point x="397.35352" y="-101.7724" type="line"/>
			<point x="373.50977" y="-27.7685"/>
			<point x="366.66797" y="50.51177"/>
			<point x="364.35352" y="128.22759" type="curve" smooth="yes"/>
			<point x="357.53963" y="356.97954" type="line"/>
			<point x="454.89551" y="356.97954" type="line"/>
			<point x="553.19336" y="425.80864" type="line"/>
			<point x="547.45801" y="434.00004" type="line"/>
			<point x="344.45801" y="434.00004" type="line" smooth="yes"/>
			<point x="319.23926" y="434.00102"/>
			<point x="293.97852" y="434.46782"/>
			<point x="268.83497" y="432.51762" type="curve" smooth="yes"/>
			<point x="243.69142" y="430.56742"/>
			<point x="218.32619" y="425.64457"/>
			<point x="196.16701" y="413.60453" type="curve" smooth="yes"/>
			<point x="192.47365" y="411.59867"/>
			<point x="188.8926" y="409.38285"/>
			<point x="185.44533" y="406.97465" type="curve" smooth="yes"/>
			<point x="87.1465" y="338.14555" type="line" smooth="yes"/>
			<point x="69.9092" y="326.10649"/>
			<point x="56.02053" y="309.26372"/>
			<point x="48.23635" y="289.74224" type="curve" smooth="yes"/>
			<point x="38.89651" y="266.31646"/>
			<point x="38.91116" y="240.35943"/>
			<point x="40.16018" y="215.17193" type="curve" smooth="yes"/>
			<point x="46.1592" y="94.17095" type="line"/>
			<point x="48.2549" y="82.10845"/>
			<point x="53.15334" y="70.61333"/>
			<point x="60.19729" y="60.49223" type="curve" smooth="yes"/>
			<point x="60.29592" y="60.35063" type="line"/>
			<point x="66.03225" y="52.15923" type="line" smooth="yes"/>
			<point x="69.85452" y="46.69927"/>
			<point x="74.29788" y="41.669"/>
			<point x="79.2471" y="37.20806" type="curve" smooth="yes"/>
			<point x="93.3555" y="24.49322"/>
			<point x="111.17972" y="16.82525"/>
			<point x="128.89554" y="9.98052" type="curve" smooth="yes"/>
			<point x="172.89554" y="-7.01948" type="line"/>
		</contour>
	</outline>
</glyph>
<glyph name="h" format="2">
	<advance width="420"/>
	<unicode hex="0068"/>
	<outline>
		<contour>
			<point x="139" y="0" type="line"/>
			<point x="139" y="10" type="line"/>
			<point x="139" y="331.5001" type="line"/>
			<point x="178.75684" y="364.13574" type="line"/>
			<point x="207.98536" y="355.97558"/>
			<point x="235.06934" y="340.28808"/>
			<point x="256.7334" y="319.03808" type="curve" smooth="yes"/>
			<point x="258.18945" y="317.60937"/>
			<point x="259.75683" y="316.01464"/>
			<point x="261.03515" y="314.67089" type="curve"/>
			<point x="277.27441" y="295.59374"/>
			<point x="289.49023" y="273.3789"/>
			<point x="297.06543" y="249.56835" type="curve" smooth="yes"/>
			<point x="307.16602" y="217.82421"/>
			<point x="308.89747" y="183.64061"/>
			<point x="303.54981" y="150.75975" type="curve" smooth="yes"/>
			<point x="298.20118" y="117.87889"/>
			<point x="289.53712" y="83.84862"/>
			<point x="269.06544" y="57.56835" type="curve" smooth="yes"/>
			<point x="223.83302" y="-0.50001"/>
			<point x="151.06544" y="-59.43165"/>
			<point x="151.06544" y="-59.43165" type="curve"/>
			<point x="157.75684" y="-66.86329" type="line"/>
			<point x="279.33301" y="34.49999" type="line" smooth="yes"/>
			<point x="319.20996" y="67.74706"/>
			<point x="348.12305" y="101.87694"/>
			<point x="364.93457" y="130.4326" type="curve" smooth="yes"/>
			<point x="381.83496" y="159.13963"/>
			<point x="394.06934" y="190.74315"/>
			<point x="399.41895" y="223.62401" type="curve" smooth="yes"/>
			<point x="404.76661" y="256.50487"/>
			<point x="403.03419" y="290.68847"/>
			<point x="392.93458" y="322.43261" type="curve" smooth="yes"/>
			<point x="384.89356" y="347.70507"/>
			<point x="371.53809" y="371.30859"/>
			<point x="353.83789" y="391.04297" type="curve" smooth="yes"/>
			<point x="353.78223" y="391.10449" type="line"/>
			<point x="353.72363" y="391.16992" type="line"/>
			<point x="346.91699" y="398.73047" type="line"/>
			<point x="346.86035" y="398.79199" type="line" smooth="yes"/>
			<point x="344.39648" y="401.52637"/>
			<point x="341.84863" y="404.18653"/>
			<point x="339.21973" y="406.76465" type="curve" smooth="yes"/>
			<point x="317.55567" y="428.01465"/>
			<point x="290.47169" y="443.70313"/>
			<point x="261.24317" y="451.86329" type="curve"/>
			<point x="139.00001" y="345.96472" type="line"/>
			<point x="139.00001" y="592" type="line"/>
			<point x="19.00001" y="592" type="line"/>
			<point x="19.00001" y="582" type="line"/>
			<point x="19.00001" y="0.00002" type="line"/>
		</contour>
	</outline>
</glyph>
<glyph name="i" format="2">
	<advance width="160"/>
	<unicode hex="0069"/>
	<outline>
		<contour>
			<point x="19" y="434" type="line"/>
			<point x="19.00098" y="0" type="line"/>
			<point x="139.00098" y="0" type="line"/>
			<point x="139" y="434" type="line"/>
		</contour>
	</outline>
</glyph>
<glyph name="j" format="2">
	<advance width="157"/>
	<unicode hex="006A"/>
	<outline>
		<contour>
			<point x="138.23047" y="434" type="line"/>
			<point x="17.76953" y="434" type="line"/>
			<point x="17.76953" y="-155.89062" type="line"/>
			<point x="-76.23047" y="-255.89062" type="line"/>
			<point x="-69.16016" y="-262.96191" type="line"/>
			<point x="138.23046" y="-58" type="line"/>
		</contour>
	</outline>
</glyph>
<glyph name="k" format="2">
	<advance width="408"/>
	<unicode hex="006B"/>
	<outline>
		<contour>
			<point x="139" y="0" type="line"/>
			<point x="139" y="10" type="line"/>
			<point x="139" y="141.78809" type="line"/>
			<point x="142.48111" y="133.7179"/>
			<point x="147.18214" y="124.24012"/>
			<point x="153.52441" y="113.25392" type="curve" smooth="yes"/>
			<point x="158.59668" y="104.46779" type="line"/>
			<point x="158.8877" y="103.96584" type="line" smooth="yes"/>
			<point x="161.70606" y="99.10744"/>
			<point x="164.77833" y="94.11037"/>
			<point x="168.12599" y="89.00002" type="curve" smooth="yes"/>
			<point x="223.16115" y="5.00002"/>
			<point x="261.12599" y="-17.99998"/>
			<point x="261.12599" y="-17.99998" type="curve"/>
			<point x="365.04884" y="42.00002" type="line"/>
			<point x="390.04884" y="64.00002" type="line"/>
			<point x="385.04884" y="72.66018" type="line"/>
			<point x="354.18751" y="54.84182" type="line"/>
			<point x="341.54786" y="64.5928"/>
			<point x="309.32813" y="93.12893"/>
			<point x="267.04981" y="157.66018" type="curve" smooth="yes"/>
			<point x="264.55567" y="161.46682"/>
			<point x="262.25782" y="165.13967"/>
			<point x="260.03321" y="168.85549" type="curve" smooth="yes"/>
			<point x="236.54966" y="208.08091"/>
			<point x="227.96936" y="249.48345"/>
			<point x="226.49489" y="257.33114" type="curve"/>
			<point x="330.53908" y="356.89065" type="line"/>
			<point x="323.46779" y="363.96194" type="line"/>
			<point x="236.46779" y="444.96194" type="line"/>
			<point x="143.46779" y="353.96194" type="line"/>
			<point x="139.00002" y="349.49421" type="line"/>
			<point x="139.00002" y="612" type="line"/>
			<point x="19.00002" y="612" type="line"/>
			<point x="19.00002" y="602" type="line"/>
			<point x="19.00002" y="0.00002" type="line"/>
		</contour>
		<contour>
			<point x="139.00002" y="333.7759" type="line"/>
			<point x="158.68557" y="353.0381" type="line"/>
			<point x="232.71096" y="284.11915" type="line"/>
			<point x="139.00002" y="195.39079" type="line"/>
		</contour>
	</outline>
</glyph>
<glyph name="l" format="2">
	<advance width="218"/>
	<unicode hex="006C"/>
	<outline>
		<contour>
			<point x="24" y="612" type="line"/>
			<point x="24" y="55" type="line"/>
			<point x="101" y="-3" type="line"/>
			<point x="199.85059" y="60.52539" type="line"/>
			<point x="195.44629" y="69.50293" type="line"/>
			<point x="139" y="106.48731" type="line"/>
			<point x="139" y="611.50001" type="line"/>
		</contour>
	</outline>
</glyph>
<glyph name="m" format="2">
	<advance width="567"/>
	<unicode hex="006D"/>
	<outline>
		<contour>
			<point x="139.35352" y="347.12827" type="line"/>
			<point x="252.92579" y="438.66016" type="line"/>
			<point x="252.92579" y="438.66016"/>
			<point x="298.28517" y="426.30078"/>
			<point x="318.7422" y="402.08594" type="curve" smooth="yes"/>
			<point x="318.88673" y="401.91504" type="line"/>
			<point x="325.38478" y="394.16992" type="line" smooth="yes"/>
			<point x="333.59767" y="384.36523"/>
			<point x="339.35548" y="370.63085"/>
			<point x="339.35548" y="357" type="curve" smooth="yes"/>
			<point x="339.35548" y="341.4639" type="line"/>
			<point x="460.92775" y="438.66014" type="line"/>
			<point x="460.92775" y="438.66014"/>
			<point x="505.62697" y="431.48729"/>
			<point x="526.16408" y="407.16307" type="curve" smooth="yes"/>
			<point x="526.21877" y="407.09862" type="line" smooth="yes"/>
			<point x="526.30471" y="406.9951"/>
			<point x="526.31057" y="406.99022"/>
			<point x="526.31057" y="406.99022" type="curve"/>
			<point x="532.7383" y="399.33006" type="line" smooth="yes"/>
			<point x="541.29299" y="389.12986"/>
			<point x="547.35549" y="373.92869"/>
			<point x="547.35354" y="356.999" type="curve"/>
			<point x="547.35549" y="0.99998" type="line"/>
			<point x="439.00197" y="0.99998" type="line"/>
			<point x="439.00197" y="288.52537" type="line" smooth="yes"/>
			<point x="439.00197" y="303.33299"/>
			<point x="434.25002" y="315.46678"/>
			<point x="427.43557" y="324.94139" type="curve" smooth="yes"/>
			<point x="410.00881" y="349.17088"/>
			<point x="381.00979" y="349.33397"/>
			<point x="381.00979" y="349.33397" type="curve"/>
			<point x="339.35549" y="319.82152" type="line"/>
			<point x="339.35549" y="0.99999" type="line"/>
			<point x="231.00197" y="0.99999" type="line"/>
			<point x="231.00197" y="289.52538" type="line" smooth="yes"/>
			<point x="231.00197" y="301.40233"/>
			<point x="226.52541" y="311.9951"/>
			<point x="220.02151" y="320.88768" type="curve" smooth="yes"/>
			<point x="202.16604" y="345.30077"/>
			<point x="173.19924" y="351.18358"/>
			<point x="173.17776" y="351.16698" type="curve" smooth="yes"/>
			<point x="139.35354" y="325.17823" type="line"/>
			<point x="139.35354" y="0.99999" type="line"/>
			<point x="19.00198" y="0.99999" type="line"/>
			<point x="19.00003" y="433.52538" type="line"/>
			<point x="132.92581" y="433.66015" type="line"/>
			<point x="139.35354" y="426" type="line"/>
		</contour>
	</outline>
</glyph>
<glyph name="n" format="2">
	<advance width="386"/>
	<unicode hex="006E"/>
	<outline>
		<contour>
			<point x="19" y="434" type="line"/>
			<point x="19" y="424" type="line"/>
			<point x="19" y="-2" type="line"/>
			<point x="139" y="-2" type="line"/>
			<point x="139" y="8" type="line"/>
			<point x="139" y="351.95375" type="line"/>
			<point x="162.16309" y="363" type="line" smooth="yes"/>
			<point x="182.67188" y="372.78027"/>
			<point x="201.39063" y="365.26269"/>
			<point x="212.75196" y="358.53027" type="curve" smooth="yes"/>
			<point x="224.11329" y="351.79785"/>
			<point x="233.66505" y="342.12597"/>
			<point x="240.5586" y="330.86132" type="curve" smooth="yes"/>
			<point x="241.44337" y="329.41503"/>
			<point x="242.36915" y="327.77929"/>
			<point x="243.11036" y="326.38867" type="curve"/>
			<point x="246.15528" y="318.83887"/>
			<point x="248.27051" y="310.89551"/>
			<point x="249.59766" y="302.85645" type="curve" smooth="yes"/>
			<point x="251.74805" y="289.82618"/>
			<point x="251.84864" y="263.34864"/>
			<point x="251.84864" y="263.34864" type="curve"/>
			<point x="251.84864" y="0.00001" type="line"/>
			<point x="364.83204" y="0.00001" type="line"/>
			<point x="364.83204" y="312" type="line" smooth="yes"/>
			<point x="364.83204" y="325.20704"/>
			<point x="364.73145" y="338.47755"/>
			<point x="362.58008" y="351.50685" type="curve" smooth="yes"/>
			<point x="360.98828" y="361.15529"/>
			<point x="358.26172" y="370.6631"/>
			<point x="354.1543" y="379.52052" type="curve" smooth="yes"/>
			<point x="354.10157" y="379.63478" type="line"/>
			<point x="349.8213" y="388.81251" type="line" smooth="yes"/>
			<point x="348.40919" y="391.8379"/>
			<point x="346.83497" y="394.78712"/>
			<point x="345.08887" y="397.63868" type="curve" smooth="yes"/>
			<point x="338.19532" y="408.90333"/>
			<point x="328.64356" y="418.57521"/>
			<point x="317.28321" y="425.30763" type="curve" smooth="yes"/>
			<point x="305.92091" y="432.04005"/>
			<point x="292.80861" y="435.79884"/>
			<point x="279.60549" y="436.06349" type="curve"/>
			<point x="139.00002" y="373.42032" type="line"/>
			<point x="139.00002" y="434.00002" type="line"/>
		</contour>
	</outline>
</glyph>
<glyph name="o" format="2">
	<advance width="471"/>
	<unicode hex="006F"/>
	<outline>
		<contour>
			<point x="295.13965" y="50.34766" type="line"/>
			<point x="272.86426" y="60.83008" type="line" smooth="yes"/>
			<point x="247.35742" y="72.83398"/>
			<point x="221.83008" y="85.25488"/>
			<point x="199.22461" y="102.09863" type="curve" smooth="yes"/>
			<point x="178.88574" y="117.25195"/>
			<point x="160.91113" y="136.09472"/>
			<point x="147.68652" y="157.5664" type="curve"/>
			<point x="134.51953" y="181.96874"/>
			<point x="127.20215" y="209.27343"/>
			<point x="126.0791" y="236.91991" type="curve" smooth="yes"/>
			<point x="124.93555" y="265.0869"/>
			<point x="130.12403" y="293.40526"/>
			<point x="140.36426" y="319.66991" type="curve" smooth="yes"/>
			<point x="146.6211" y="335.71776"/>
			<point x="154.8379" y="351.11815"/>
			<point x="164.45411" y="365.23925" type="curve"/>
			<point x="193.09766" y="362.23241"/>
			<point x="221.08301" y="353.48436"/>
			<point x="246.18067" y="339.41014" type="curve" smooth="yes"/>
			<point x="276.82032" y="322.22948"/>
			<point x="303.10841" y="297.04198"/>
			<point x="321.39259" y="267.15819" type="curve"/>
			<point x="323.94435" y="262.46679"/>
			<point x="326.2881" y="257.70605"/>
			<point x="328.44142" y="252.83007" type="curve" smooth="yes"/>
			<point x="349.53322" y="205.05566"/>
			<point x="349.70802" y="148.35546"/>
			<point x="328.084" y="100.8203" type="curve" smooth="yes"/>
			<point x="319.73341" y="82.46581"/>
			<point x="308.08693" y="65.19628"/>
			<point x="295.13966" y="50.34765" type="curve"/>
		</contour>
		<contour>
			<point x="46.18068" y="93.23827" type="line"/>
			<point x="46.2217" y="93.166" type="line" smooth="yes"/>
			<point x="59.74611" y="69.75877"/>
			<point x="78.61232" y="49.59764"/>
			<point x="100.30177" y="33.43846" type="curve" smooth="yes"/>
			<point x="122.90724" y="16.59471"/>
			<point x="148.43458" y="4.17283"/>
			<point x="173.94142" y="-7.8301" type="curve" smooth="yes"/>
			<point x="216.44142" y="-27.8301" type="line"/>
			<point x="320.36427" y="32.1699" type="line"/>
			<point x="330.86427" y="39.6699" type="line" smooth="yes"/>
			<point x="352.11232" y="54.84666"/>
			<point x="373.32326" y="70.28318"/>
			<point x="391.85744" y="88.67673" type="curve" smooth="yes"/>
			<point x="410.39064" y="107.07028"/>
			<point x="426.19435" y="128.39157"/>
			<point x="437.00685" y="152.16012" type="curve" smooth="yes"/>
			<point x="458.63087" y="199.69528"/>
			<point x="458.45607" y="256.39548"/>
			<point x="437.36427" y="304.16989" type="curve" smooth="yes"/>
			<point x="434.59474" y="310.44333"/>
			<point x="431.49025" y="316.56149"/>
			<point x="428.07716" y="322.50094" type="curve" smooth="yes"/>
			<point x="422.86036" y="331.53707" type="line" smooth="yes"/>
			<point x="404.47169" y="363.37691"/>
			<point x="377.20704" y="390.06929"/>
			<point x="345.10352" y="408.07027" type="curve" smooth="yes"/>
			<point x="306.89356" y="429.49703"/>
			<point x="261.91211" y="438.59566"/>
			<point x="218.36426" y="433.83004" type="curve"/>
			<point x="114.44141" y="373.83004" type="line"/>
			<point x="77.39356" y="347.62008"/>
			<point x="47.92579" y="310.61227"/>
			<point x="31.44141" y="268.33004" type="curve" smooth="yes"/>
			<point x="21.20118" y="242.06539"/>
			<point x="16.0127" y="213.74801"/>
			<point x="17.15625" y="185.58102" type="curve" smooth="yes"/>
			<point x="18.30078" y="157.41305"/>
			<point x="25.91601" y="129.49508"/>
			<point x="39.53515" y="104.81246" type="curve" smooth="yes"/>
			<point x="40.01855" y="103.93648"/>
			<point x="40.50976" y="103.06538"/>
			<point x="41.00781" y="102.19819" type="curve" smooth="yes"/>
			<point x="41.0498" y="102.12592" type="line"/>
			<point x="41.09375" y="102.04877" type="line"/>
		</contour>
	</outline>
</glyph>
<glyph name="p" format="2">
	<advance width="492"/>
	<unicode hex="0070"/>
	<outline>
		<contour>
			<point x="163.88379" y="335.08145" type="line"/>
			<point x="163.88379" y="427" type="line"/>
			<point x="43.88379" y="427" type="line"/>
			<point x="43.88379" y="90.71536" type="line"/>
			<point x="17" y="68.15722" type="line"/>
			<point x="23.42773" y="60.49706" type="line"/>
			<point x="23.42773" y="60.49706"/>
			<point x="31.25302" y="57.43348"/>
			<point x="43.88379" y="52.56222" type="curve"/>
			<point x="43.88379" y="-181.00001" type="line"/>
			<point x="163.88379" y="-181.00001" type="line"/>
			<point x="163.88379" y="7.88418" type="line"/>
			<point x="197.41927" y="-3.9428"/>
			<point x="225.51627" y="-12.92684"/>
			<point x="232.13575" y="-12.39747" type="curve" smooth="yes"/>
			<point x="244.74122" y="-11.38966"/>
			<point x="285.25587" y="7.3994"/>
			<point x="320.47071" y="36.93553" type="curve" smooth="yes"/>
			<point x="412.39649" y="114.06932" type="line" smooth="yes"/>
			<point x="433.64747" y="131.89354"/>
			<point x="452.96876" y="153.63182"/>
			<point x="463.06056" y="177.73729" type="curve" smooth="yes"/>
			<point x="492.32228" y="247.63084"/>
			<point x="457.50197" y="336.6533"/>
			<point x="424.16017" y="376.55564" type="curve" smooth="yes"/>
			<point x="424.06642" y="376.66794" type="line"/>
			<point x="424.01954" y="376.72458" type="line"/>
			<point x="423.97169" y="376.78024" type="line"/>
			<point x="417.54396" y="384.44137" type="line" smooth="yes"/>
			<point x="416.60256" y="385.56344"/>
			<point x="415.66213" y="386.64547"/>
			<point x="414.72463" y="387.68746" type="curve" smooth="yes"/>
			<point x="369.08401" y="438.39742"/>
			<point x="312.63186" y="453.39742"/>
			<point x="312.63186" y="453.39742" type="curve"/>
			<point x="167.0967" y="337.7773" type="line"/>
		</contour>
		<contour>
			<point x="163.88381" y="124.16147" type="line"/>
			<point x="163.88381" y="318.35289" type="line"/>
			<point x="227.13479" y="368.60251" type="line"/>
			<point x="227.13479" y="368.60251"/>
			<point x="283.35354" y="353.582"/>
			<point x="328.87014" y="303.2822" type="curve"/>
			<point x="361.22073" y="261.749"/>
			<point x="393.07425" y="176.01853"/>
			<point x="364.70706" y="108.26267" type="curve" smooth="yes"/>
			<point x="361.47366" y="100.53904"/>
			<point x="357.04397" y="92.71092"/>
			<point x="352.40139" y="85.88084" type="curve"/>
			<point x="336.71096" y="77.66307"/>
			<point x="323.81545" y="72.89159"/>
			<point x="317.63283" y="72.39745" type="curve" smooth="yes"/>
			<point x="305.525" y="71.4291"/>
			<point x="221.55237" y="102.29298"/>
			<point x="163.88381" y="124.16151" type="curve"/>
		</contour>
	</outline>
</glyph>
<glyph name="q" format="2">
	<advance width="443"/>
	<unicode hex="0071"/>
	<outline>
		<contour>
			<point x="186.68066" y="374.63281" type="line"/>
			<point x="155.61132" y="376"/>
			<point x="125.61132" y="359"/>
			<point x="118.87011" y="335.73438" type="curve" smooth="yes"/>
			<point x="108.46581" y="299.82715"/>
			<point x="116.40136" y="260.49024"/>
			<point x="130.17675" y="225.73731" type="curve" smooth="yes"/>
			<point x="139.28613" y="202.75489"/>
			<point x="152.01562" y="181.37403"/>
			<point x="167.51952" y="162.15333" type="curve" smooth="yes"/>
			<point x="192.8662" y="133.09278"/>
			<point x="224.66991" y="109.45801"/>
			<point x="259.74803" y="93.39746" type="curve"/>
			<point x="301.82323" y="121.24121" type="line"/>
			<point x="301.82323" y="329.92187" type="line"/>
			<point x="296.43358" y="332.73339"/>
			<point x="290.76073" y="335.72851"/>
			<point x="285.25096" y="338.60253" type="curve" smooth="yes"/>
			<point x="254.04491" y="354.88378"/>
			<point x="221.84569" y="373.08495"/>
			<point x="186.68065" y="374.6328" type="curve"/>
		</contour>
		<contour>
			<point x="391.166" y="407.49999" type="line"/>
			<point x="422.17674" y="383.73729" type="line"/>
			<point x="422.17674" y="-108.00001" type="line"/>
			<point x="301.82322" y="-108.00001" type="line"/>
			<point x="301.82322" y="93.02538" type="line"/>
			<point x="174.25095" y="8.60253" type="line"/>
			<point x="137.69529" y="25.33983"/>
			<point x="104.68259" y="50.29198"/>
			<point x="78.85251" y="81.05956" type="curve" smooth="yes"/>
			<point x="78.7988" y="81.12401" type="line"/>
			<point x="72.20407" y="88.98241" type="line"/>
			<point x="72.14841" y="89.04979" type="line"/>
			<point x="72.0947" y="89.11327" type="line" smooth="yes"/>
			<point x="55.26267" y="109.24315"/>
			<point x="41.50095" y="131.84862"/>
			<point x="31.82322" y="156.26268" type="curve" smooth="yes"/>
			<point x="18.04783" y="191.01561"/>
			<point x="12.92381" y="229.65623"/>
			<point x="20.51756" y="266.25975" type="curve" smooth="yes"/>
			<point x="27.2949" y="298.9287"/>
			<point x="44.77049" y="329.56054"/>
			<point x="70.26463" y="350.94824" type="curve" smooth="yes"/>
			<point x="162.18943" y="428.08203" type="line" smooth="yes"/>
			<point x="165.26072" y="430.65918"/>
			<point x="168.4492" y="433.10156"/>
			<point x="171.749" y="435.39746" type="curve" smooth="yes"/>
			<point x="200.64158" y="455.5"/>
			<point x="237.21678" y="463.50488"/>
			<point x="272.17869" y="459.42773" type="curve" smooth="yes"/>
			<point x="307.13963" y="455.35058"/>
			<point x="363.39842" y="428.91406"/>
			<point x="391.166" y="407.5" type="curve"/>
		</contour>
	</outline>
</glyph>
<glyph name="r" format="2">
	<advance width="309"/>
	<unicode hex="0072"/>
	<outline>
		<contour>
			<point x="123.03418" y="327.51675" type="line"/>
			<point x="144.39746" y="347.01074" type="line"/>
			<point x="208.39746" y="299.51074" type="line"/>
			<point x="290.89746" y="387.01074" type="line"/>
			<point x="213.89746" y="445.51074" type="line"/>
			<point x="123.03418" y="350.0273" type="line"/>
			<point x="123.03418" y="434.01074" type="line"/>
			<point x="19" y="434.01074" type="line"/>
			<point x="19" y="117.69238" type="line" smooth="yes"/>
			<point x="19" y="98.16894"/>
			<point x="27.84277" y="74.56542"/>
			<point x="42.82812" y="53.14257" type="curve" smooth="yes"/>
			<point x="48.61621" y="44.87597" type="line"/>
			<point x="48.77441" y="44.65136" type="line" smooth="yes"/>
			<point x="65.25293" y="21.20507"/>
			<point x="89.08984" y="0.41112"/>
			<point x="116.73535" y="-9.49904" type="curve"/>
			<point x="215.03418" y="59.33006" type="line"/>
			<point x="257.03418" y="91.33006" type="line"/>
			<point x="251.29785" y="99.52146" type="line"/>
			<point x="206.87988" y="68.4199" type="line"/>
			<point x="181.85449" y="78.05076"/>
			<point x="159.9873" y="96.59568"/>
			<point x="144.10644" y="117.84958" type="curve"/>
			<point x="130.90039" y="137.99997"/>
			<point x="123.03418" y="160.08981"/>
			<point x="123.03418" y="178.33004" type="curve" smooth="yes"/>
		</contour>
	</outline>
</glyph>
<glyph name="s" format="2">
	<advance width="394"/>
	<unicode hex="0073"/>
	<outline>
		<contour>
			<point x="263.42773" y="279.33984" type="line"/>
			<point x="355.35351" y="356.47461" type="line"/>
			<point x="351.50488" y="362.44922"/>
			<point x="347.27734" y="368.18457"/>
			<point x="342.708" y="373.63281" type="curve" smooth="yes"/>
			<point x="336.27929" y="381.29394" type="line" smooth="yes"/>
			<point x="336.22656" y="381.35742"/>
			<point x="336.27832" y="381.29492"/>
			<point x="336.22559" y="381.3584" type="curve" smooth="yes"/>
			<point x="336.17188" y="381.42285"/>
			<point x="336.22364" y="381.36035"/>
			<point x="336.17091" y="381.42383" type="curve" smooth="yes"/>
			<point x="336.11427" y="381.49023" type="line"/>
			<point x="336.06056" y="381.55371" type="line" smooth="yes"/>
			<point x="322.44728" y="397.71973"/>
			<point x="305.81544" y="411.34473"/>
			<point x="287.12404" y="421.18653" type="curve" smooth="yes"/>
			<point x="262.04494" y="434.39258"/>
			<point x="232.66115" y="440.97656"/>
			<point x="204.9258" y="435.13476" type="curve" smooth="yes"/>
			<point x="189.99514" y="431.99023"/>
			<point x="175.86428" y="425.125"/>
			<point x="164.16213" y="415.33398" type="curve" smooth="yes"/>
			<point x="72.11818" y="338.0996" type="line" smooth="yes"/>
			<point x="57.68556" y="325.94042"/>
			<point x="46.95216" y="309.2119"/>
			<point x="42.00001" y="291" type="curve" smooth="yes"/>
			<point x="34.73731" y="264.29296"/>
			<point x="38.73829" y="235.69921"/>
			<point x="46.2295" y="209.05566" type="curve" smooth="yes"/>
			<point x="53.72169" y="182.41308"/>
			<point x="65.07423" y="156.91796"/>
			<point x="79.00001" y="132.99999" type="curve"/>
			<point x="85.42774" y="125.33983" type="line"/>
			<point x="177.35352" y="202.4746" type="line"/>
			<point x="163.42676" y="226.39159"/>
			<point x="152.0752" y="251.88671"/>
			<point x="144.58301" y="278.53026" type="curve" smooth="yes"/>
			<point x="137.83594" y="302.52538"/>
			<point x="133.92188" y="328.14061"/>
			<point x="138.51465" y="352.46483" type="curve"/>
			<point x="160.0957" y="352.83983"/>
			<point x="182.25195" y="346.59373"/>
			<point x="201.62695" y="336.39061" type="curve" smooth="yes"/>
			<point x="218.92578" y="327.28221"/>
			<point x="234.50488" y="314.89159"/>
			<point x="247.48926" y="300.30858" type="curve"/>
			<point x="250.8291" y="296.07909"/>
			<point x="254.05176" y="291.57811"/>
			<point x="257" y="287" type="curve"/>
		</contour>
		<contour>
			<point x="17" y="56.99999" type="line"/>
			<point x="23.42773" y="49.33983" type="line"/>
			<point x="52.13183" y="23.16014"/>
			<point x="86.21093" y="2.48338"/>
			<point x="123.42773" y="-8.66017" type="curve" smooth="yes"/>
			<point x="144.40429" y="-14.94044"/>
			<point x="166.52929" y="-18.00782"/>
			<point x="188.30566" y="-15.7295" type="curve" smooth="yes"/>
			<point x="210.08398" y="-13.4502"/>
			<point x="231.48046" y="-5.52442"/>
			<point x="248.42773" y="8.33984" type="curve" smooth="yes"/>
			<point x="248.7207" y="8.5791"/>
			<point x="249.01172" y="8.82031"/>
			<point x="249.30078" y="9.0625" type="curve" smooth="yes"/>
			<point x="341.4873" y="86.41602" type="line" smooth="yes"/>
			<point x="359.29882" y="101.49707"/>
			<point x="371.3496" y="122.85645"/>
			<point x="374.6748" y="145.74903" type="curve" smooth="yes"/>
			<point x="378.07812" y="169.16505"/>
			<point x="372.3496" y="193.70118"/>
			<point x="359.3535" y="213.47462" type="curve" smooth="yes"/>
			<point x="357.27147" y="216.64161"/>
			<point x="355.00585" y="219.6797"/>
			<point x="352.57421" y="222.57814" type="curve" smooth="yes"/>
			<point x="346.14648" y="230.23927" type="line" smooth="yes"/>
			<point x="346.09277" y="230.30275"/>
			<point x="346.1416" y="230.24513"/>
			<point x="346.08789" y="230.30861" type="curve" smooth="yes"/>
			<point x="346.02344" y="230.38478" type="line"/>
			<point x="345.96973" y="230.44923" type="line" smooth="yes"/>
			<point x="328.14746" y="251.57813"/>
			<point x="301.55176" y="265.2334"/>
			<point x="273.92578" y="267.13477" type="curve"/>
			<point x="182" y="190" type="line"/>
			<point x="188.42773" y="182.33984" type="line"/>
			<point x="214.46679" y="180.54785"/>
			<point x="239.59569" y="168.31055"/>
			<point x="257.31737" y="149.21875" type="curve"/>
			<point x="258.57421" y="147.55469"/>
			<point x="259.83105" y="145.7793"/>
			<point x="261" y="144" type="curve" smooth="yes"/>
			<point x="273.99707" y="124.22754"/>
			<point x="279.72461" y="99.69141"/>
			<point x="276.32227" y="76.27539" type="curve" smooth="yes"/>
			<point x="275.96973" y="73.85156"/>
			<point x="275.60938" y="71.8789"/>
			<point x="275.00489" y="69.19726" type="curve"/>
			<point x="275.00489" y="69.19726"/>
			<point x="274.25391" y="69.1123"/>
			<point x="273.80371" y="69.06542" type="curve" smooth="yes"/>
			<point x="252.02637" y="66.7871"/>
			<point x="229.90137" y="69.85448"/>
			<point x="208.92578" y="76.13475" type="curve" smooth="yes"/>
			<point x="171.70898" y="87.2783"/>
			<point x="137.62988" y="107.95506"/>
			<point x="108.9248" y="134.13475" type="curve"/>
		</contour>
		<contour>
			<point x="72.11816" y="338.09959" type="line"/>
			<point x="71.35156" y="337.45799"/>
			<point x="72.88281" y="338.74412"/>
			<point x="72.11816" y="338.09959" type="curve"/>
		</contour>
	</outline>
</glyph>
<glyph name="t" format="2">
	<advance width="294"/>
	<unicode hex="0074"/>
	<outline>
		<contour>
			<point x="127.75684" y="539.77734" type="line"/>
			<point x="19" y="489.0625" type="line"/>
			<point x="19.00098" y="77.06348" type="line"/>
			<point x="23.22657" y="68" type="line"/>
			<point x="95.22657" y="-4" type="line"/>
			<point x="203.98341" y="46.71387" type="line"/>
			<point x="239.98341" y="68.71387" type="line"/>
			<point x="235.75782" y="77.77735" type="line"/>
			<point x="197.69239" y="60.02735" type="line"/>
			<point x="176.37794" y="81.34278"/>
			<point x="153.40333" y="102.13087"/>
			<point x="132.02247" y="123.51271" type="curve"/>
			<point x="131.99969" y="361" type="line"/>
			<point x="276.4922" y="361" type="line"/>
			<point x="276.4922" y="434" type="line"/>
			<point x="131.99269" y="434" type="line"/>
			<point x="131.99269" y="466.23797"/>
			<point x="131.98341" y="498.47592"/>
			<point x="131.98341" y="530.71388" type="curve"/>
		</contour>
	</outline>
</glyph>
<glyph name="u" format="2">
	<advance width="364"/>
	<unicode hex="0075"/>
	<outline>
		<contour>
			<point x="20" y="143" type="line" smooth="yes"/>
			<point x="21.69531" y="101.42285"/>
			<point x="28.99804" y="74.52734"/>
			<point x="55.36132" y="42.333" type="curve" smooth="yes"/>
			<point x="78.51952" y="14.05566"/>
			<point x="119.53514" y="-1.72266"/>
			<point x="143.43162" y="-3.80078" type="curve"/>
			<point x="223.36294" y="71.45616" type="line"/>
			<point x="223.36296" y="47.63745"/>
			<point x="223.36328" y="23.81874"/>
			<point x="223.36328" y="0.00001" type="curve"/>
			<point x="343.36328" y="0.00001" type="line"/>
			<point x="343.36133" y="434" type="line"/>
			<point x="223.36133" y="434" type="line"/>
			<point x="223.36133" y="314.57031"/>
			<point x="223.36295" y="195.14059"/>
			<point x="223.36295" y="75.71089" type="curve"/>
			<point x="218.92969" y="80.99415" type="line"/>
			<point x="196.39844" y="82.95313"/>
			<point x="165.07227" y="96.00684"/>
			<point x="148.65039" y="118.46387" type="curve" smooth="yes"/>
			<point x="137.56836" y="133.61817"/>
			<point x="130.08594" y="150.9209"/>
			<point x="129.125" y="174.46973" type="curve" smooth="yes"/>
			<point x="129" y="434" type="line"/>
			<point x="19" y="434" type="line"/>
			<point x="19" y="424" type="line"/>
		</contour>
	</outline>
</glyph>
